<svg id="svg" version="1.1" xmlns="http://www.w3.org/2000/svg" xmlns:xlink="http://www.w3.org/1999/xlink" width="400" height="417.39130434782606" viewBox="0, 0, 400,417.39130434782606"><g id="svgg"><path id="path0" d="M186.400 18.454 C 106.280 24.395,39.653 86.878,28.431 166.600 C 14.598 264.866,84.978 354.391,183.464 363.804 C 278.510 372.888,363.129 303.526,372.564 208.800 C 383.302 100.985,294.728 10.421,186.400 18.454 M216.400 55.824 C 242.044 58.742,266.872 69.450,287.600 86.534 C 294.301 92.056,306.565 105.077,309.763 110.064 L 310.445 111.128 305.522 115.527 C 302.815 117.946,298.664 121.652,296.298 123.763 C 291.099 128.400,291.626 128.404,288.200 123.702 C 282.269 115.561,270.305 104.486,260.732 98.275 C 202.707 60.626,124.716 84.408,97.792 147.960 L 95.521 153.321 166.660 224.460 C 205.787 263.587,237.979 295.597,238.200 295.594 C 238.420 295.590,241.035 294.546,244.011 293.273 C 270.191 282.077,291.531 260.534,302.568 234.160 C 304.621 229.255,307.600 220.267,307.600 218.979 C 307.600 218.487,303.444 218.391,278.300 218.303 L 249.000 218.200 248.895 204.700 L 248.789 191.200 292.571 191.200 C 322.601 191.200,336.434 191.331,336.611 191.618 C 337.264 192.674,335.543 209.831,333.966 218.000 C 324.082 269.174,282.479 312.578,232.400 323.964 L 230.600 324.373 148.744 242.531 L 66.888 160.688 67.826 157.182 C 85.683 90.457,147.877 48.028,216.400 55.824 M131.100 260.100 C 167.895 296.894,198.000 327.162,198.000 327.362 C 198.000 327.573,195.790 327.617,192.700 327.467 C 126.510 324.258,71.335 272.176,64.443 206.400 C 63.777 200.048,63.467 193.200,63.845 193.200 C 64.040 193.200,94.304 223.305,131.100 260.100 " stroke="none" fill="#744c9c" fill-rule="evenodd"></path><path id="path1" d="M189.891 17.889 C 190.601 17.977,191.861 17.979,192.691 17.892 C 193.521 17.805,192.940 17.733,191.400 17.731 C 189.860 17.729,189.181 17.800,189.891 17.889 M207.091 17.889 C 207.801 17.977,209.061 17.979,209.891 17.892 C 210.721 17.805,210.140 17.733,208.600 17.731 C 207.060 17.729,206.381 17.800,207.091 17.889 M184.700 18.282 C 185.195 18.378,186.005 18.378,186.500 18.282 C 186.995 18.187,186.590 18.109,185.600 18.109 C 184.610 18.109,184.205 18.187,184.700 18.282 M213.900 18.282 C 214.395 18.378,215.205 18.378,215.700 18.282 C 216.195 18.187,215.790 18.109,214.800 18.109 C 213.810 18.109,213.405 18.187,213.900 18.282 M180.900 18.676 C 181.285 18.776,181.915 18.776,182.300 18.676 C 182.685 18.575,182.370 18.493,181.600 18.493 C 180.830 18.493,180.515 18.575,180.900 18.676 M128.000 33.000 C 127.450 33.314,127.180 33.572,127.400 33.572 C 127.620 33.572,128.250 33.314,128.800 33.000 C 129.350 32.686,129.620 32.428,129.400 32.428 C 129.180 32.428,128.550 32.686,128.000 33.000 M83.178 62.700 L 81.800 64.200 83.300 62.822 C 84.696 61.538,84.984 61.200,84.678 61.200 C 84.612 61.200,83.937 61.875,83.178 62.700 M322.600 68.400 C 325.674 71.480,328.279 74.000,328.389 74.000 C 328.499 74.000,326.074 71.480,323.000 68.400 C 319.926 65.320,317.321 62.800,317.211 62.800 C 317.101 62.800,319.526 65.320,322.600 68.400 M77.381 68.100 L 75.800 69.800 77.500 68.219 C 78.435 67.349,79.200 66.584,79.200 66.519 C 79.200 66.216,78.852 66.519,77.381 68.100 M144.000 67.000 C 143.450 67.314,143.180 67.572,143.400 67.572 C 143.620 67.572,144.250 67.314,144.800 67.000 C 145.350 66.686,145.620 66.428,145.400 66.428 C 145.180 66.428,144.550 66.686,144.000 67.000 M71.178 74.700 L 69.800 76.200 71.300 74.822 C 72.696 73.538,72.984 73.200,72.678 73.200 C 72.612 73.200,71.937 73.875,71.178 74.700 M329.200 75.325 C 329.200 75.394,329.785 75.979,330.500 76.625 L 331.800 77.800 330.625 76.500 C 329.530 75.288,329.200 75.016,329.200 75.325 M192.100 80.276 C 192.485 80.376,193.115 80.376,193.500 80.276 C 193.885 80.175,193.570 80.093,192.800 80.093 C 192.030 80.093,191.715 80.175,192.100 80.276 M206.705 80.283 C 207.202 80.379,207.922 80.375,208.305 80.275 C 208.687 80.175,208.280 80.096,207.400 80.101 C 206.520 80.105,206.207 80.187,206.705 80.283 M292.383 91.300 C 293.364 92.345,294.219 93.200,294.283 93.200 C 294.584 93.200,294.266 92.841,292.500 91.183 L 290.600 89.400 292.383 91.300 M103.792 94.900 L 99.800 99.000 103.900 95.008 C 107.708 91.299,108.182 90.800,107.892 90.800 C 107.833 90.800,105.988 92.645,103.792 94.900 M299.800 98.800 C 300.659 99.680,301.452 100.400,301.562 100.400 C 301.672 100.400,301.059 99.680,300.200 98.800 C 299.341 97.920,298.548 97.200,298.438 97.200 C 298.328 97.200,298.941 97.920,299.800 98.800 M272.400 106.525 C 272.400 106.594,272.985 107.179,273.700 107.825 L 275.000 109.000 273.825 107.700 C 272.730 106.488,272.400 106.216,272.400 106.525 M124.585 109.300 L 122.600 111.400 124.700 109.415 C 125.855 108.323,126.800 107.378,126.800 107.315 C 126.800 107.017,126.429 107.349,124.585 109.300 M278.600 112.400 C 279.906 113.720,281.065 114.800,281.175 114.800 C 281.285 114.800,280.306 113.720,279.000 112.400 C 277.694 111.080,276.535 110.000,276.425 110.000 C 276.315 110.000,277.294 111.080,278.600 112.400 M306.575 114.100 L 305.400 115.400 306.700 114.225 C 307.415 113.579,308.000 112.994,308.000 112.925 C 308.000 112.616,307.670 112.888,306.575 114.100 M117.785 116.100 L 115.800 118.200 117.900 116.215 C 119.055 115.123,120.000 114.178,120.000 114.115 C 120.000 113.817,119.629 114.149,117.785 116.100 M299.775 120.100 L 298.600 121.400 299.900 120.225 C 300.615 119.579,301.200 118.994,301.200 118.925 C 301.200 118.616,300.870 118.888,299.775 120.100 M296.378 123.100 L 295.000 124.600 296.500 123.222 C 297.896 121.938,298.184 121.600,297.878 121.600 C 297.812 121.600,297.137 122.275,296.378 123.100 M373.293 178.400 C 373.293 179.170,373.375 179.485,373.476 179.100 C 373.576 178.715,373.576 178.085,373.476 177.700 C 373.375 177.315,373.293 177.630,373.293 178.400 M26.509 180.800 C 26.509 181.790,26.587 182.195,26.682 181.700 C 26.778 181.205,26.778 180.395,26.682 179.900 C 26.587 179.405,26.509 179.810,26.509 180.800 M373.765 191.400 C 373.766 195.360,373.826 196.926,373.898 194.880 C 373.971 192.834,373.971 189.594,373.898 187.680 C 373.824 185.766,373.765 187.440,373.765 191.400 M292.483 191.500 L 335.966 191.604 336.103 194.702 L 336.239 197.800 336.320 194.500 L 336.400 191.200 292.700 191.298 L 249.000 191.396 292.483 191.500 M115.000 244.800 C 143.159 272.960,166.289 296.000,166.399 296.000 C 166.509 296.000,143.559 272.960,115.400 244.800 C 87.241 216.640,64.111 193.600,64.001 193.600 C 63.891 193.600,86.841 216.640,115.000 244.800 M26.509 202.000 C 26.509 202.990,26.587 203.395,26.682 202.900 C 26.778 202.405,26.778 201.595,26.682 201.100 C 26.587 200.605,26.509 201.010,26.509 202.000 M373.293 204.000 C 373.293 204.770,373.375 205.085,373.476 204.700 C 373.576 204.315,373.576 203.685,373.476 203.300 C 373.375 202.915,373.293 203.230,373.293 204.000 M26.893 207.200 C 26.893 207.970,26.975 208.285,27.076 207.900 C 27.176 207.515,27.176 206.885,27.076 206.500 C 26.975 206.115,26.893 206.430,26.893 207.200 M278.378 217.899 C 301.243 217.982,307.834 218.115,308.108 218.503 C 308.368 218.869,308.418 218.842,308.297 218.400 C 308.153 217.874,304.507 217.800,278.567 217.796 L 249.000 217.792 278.378 217.899 M76.028 247.800 C 76.028 248.020,76.286 248.650,76.600 249.200 C 76.914 249.750,77.172 250.020,77.172 249.800 C 77.172 249.580,76.914 248.950,76.600 248.400 C 76.286 247.850,76.028 247.580,76.028 247.800 M323.072 249.419 C 322.132 251.389,322.264 251.724,323.247 249.862 C 323.693 249.016,323.987 248.254,323.901 248.167 C 323.814 248.081,323.441 248.644,323.072 249.419 M41.628 263.000 C 41.628 263.220,41.886 263.850,42.200 264.400 C 42.514 264.950,42.772 265.220,42.772 265.000 C 42.772 264.780,42.514 264.150,42.200 263.600 C 41.886 263.050,41.628 262.780,41.628 263.000 M281.385 267.300 L 279.400 269.400 281.500 267.415 C 283.451 265.571,283.783 265.200,283.485 265.200 C 283.422 265.200,282.477 266.145,281.385 267.300 M356.181 267.237 C 355.829 267.918,355.612 268.545,355.699 268.632 C 355.786 268.719,356.156 268.162,356.522 267.395 C 357.344 265.670,357.059 265.538,356.181 267.237 M212.800 270.925 C 212.800 270.994,213.385 271.579,214.100 272.225 L 215.400 273.400 214.225 272.100 C 213.130 270.888,212.800 270.616,212.800 270.925 M275.785 272.900 L 273.800 275.000 275.900 273.015 C 277.055 271.923,278.000 270.978,278.000 270.915 C 278.000 270.617,277.629 270.949,275.785 272.900 M47.000 274.000 C 47.341 274.660,47.711 275.200,47.821 275.200 C 47.931 275.200,47.741 274.660,47.400 274.000 C 47.059 273.340,46.689 272.800,46.579 272.800 C 46.469 272.800,46.659 273.340,47.000 274.000 M301.775 281.700 L 300.600 283.000 301.900 281.825 C 303.112 280.730,303.384 280.400,303.075 280.400 C 303.006 280.400,302.421 280.985,301.775 281.700 M222.800 280.925 C 222.800 280.994,223.385 281.579,224.100 282.225 L 225.400 283.400 224.225 282.100 C 223.130 280.888,222.800 280.616,222.800 280.925 M99.600 283.400 C 100.346 284.170,101.047 284.800,101.157 284.800 C 101.267 284.800,100.746 284.170,100.000 283.400 C 99.254 282.630,98.553 282.000,98.443 282.000 C 98.333 282.000,98.854 282.630,99.600 283.400 M296.191 287.700 L 293.000 291.000 296.300 287.809 C 299.365 284.846,299.782 284.400,299.491 284.400 C 299.430 284.400,297.945 285.885,296.191 287.700 M227.600 285.725 C 227.600 285.794,228.185 286.379,228.900 287.025 L 230.200 288.200 229.025 286.900 C 227.930 285.688,227.600 285.416,227.600 285.725 M107.600 291.400 C 108.346 292.170,109.047 292.800,109.157 292.800 C 109.267 292.800,108.746 292.170,108.000 291.400 C 107.254 290.630,106.553 290.000,106.443 290.000 C 106.333 290.000,106.854 290.630,107.600 291.400 M234.000 292.200 C 234.746 292.970,235.447 293.600,235.557 293.600 C 235.667 293.600,235.146 292.970,234.400 292.200 C 233.654 291.430,232.953 290.800,232.843 290.800 C 232.733 290.800,233.254 291.430,234.000 292.200 M290.175 293.300 L 289.000 294.600 290.300 293.425 C 291.015 292.779,291.600 292.194,291.600 292.125 C 291.600 291.816,291.270 292.088,290.175 293.300 M173.000 302.800 C 176.515 306.320,179.481 309.200,179.591 309.200 C 179.701 309.200,176.915 306.320,173.400 302.800 C 169.885 299.280,166.919 296.400,166.809 296.400 C 166.699 296.400,169.485 299.280,173.000 302.800 M328.175 308.500 L 327.000 309.800 328.300 308.625 C 329.512 307.530,329.784 307.200,329.475 307.200 C 329.406 307.200,328.821 307.785,328.175 308.500 M77.000 314.000 C 80.294 317.300,83.080 320.000,83.190 320.000 C 83.300 320.000,80.694 317.300,77.400 314.000 C 74.106 310.700,71.320 308.000,71.210 308.000 C 71.100 308.000,73.706 310.700,77.000 314.000 M184.600 314.400 C 187.233 317.040,189.477 319.200,189.587 319.200 C 189.697 319.200,187.633 317.040,185.000 314.400 C 182.367 311.760,180.123 309.600,180.013 309.600 C 179.903 309.600,181.967 311.760,184.600 314.400 M143.600 315.400 C 144.150 315.714,144.780 315.972,145.000 315.972 C 145.220 315.972,144.950 315.714,144.400 315.400 C 143.850 315.086,143.220 314.828,143.000 314.828 C 142.780 314.828,143.050 315.086,143.600 315.400 M317.381 319.300 L 315.800 321.000 317.500 319.419 C 319.081 317.948,319.384 317.600,319.081 317.600 C 319.016 317.600,318.251 318.365,317.381 319.300 M192.200 322.000 C 193.283 323.100,194.260 324.000,194.370 324.000 C 194.480 324.000,193.683 323.100,192.600 322.000 C 191.517 320.900,190.540 320.000,190.430 320.000 C 190.320 320.000,191.117 320.900,192.200 322.000 M195.952 325.673 L 197.304 327.146 195.752 327.306 L 194.200 327.466 195.900 327.533 C 197.985 327.615,198.014 327.337,196.100 325.578 L 194.600 324.200 195.952 325.673 M220.100 363.876 C 220.485 363.976,221.115 363.976,221.500 363.876 C 221.885 363.775,221.570 363.693,220.800 363.693 C 220.030 363.693,219.715 363.775,220.100 363.876 M182.500 364.276 C 182.885 364.376,183.515 364.376,183.900 364.276 C 184.285 364.175,183.970 364.093,183.200 364.093 C 182.430 364.093,182.115 364.175,182.500 364.276 M216.500 364.276 C 216.885 364.376,217.515 364.376,217.900 364.276 C 218.285 364.175,217.970 364.093,217.200 364.093 C 216.430 364.093,216.115 364.175,216.500 364.276 M187.105 364.683 C 187.602 364.779,188.322 364.775,188.705 364.675 C 189.087 364.575,188.680 364.496,187.800 364.501 C 186.920 364.505,186.607 364.587,187.105 364.683 M211.700 364.676 C 212.085 364.776,212.715 364.776,213.100 364.676 C 213.485 364.575,213.170 364.493,212.400 364.493 C 211.630 364.493,211.315 364.575,211.700 364.676 M196.900 365.097 C 198.605 365.172,201.395 365.172,203.100 365.097 C 204.805 365.022,203.410 364.961,200.000 364.961 C 196.590 364.961,195.195 365.022,196.900 365.097 " stroke="none" fill="#cbb9dd" fill-rule="evenodd"></path><path id="path2" d="M194.700 17.882 C 195.195 17.978,196.005 17.978,196.500 17.882 C 196.995 17.787,196.590 17.709,195.600 17.709 C 194.610 17.709,194.205 17.787,194.700 17.882 M203.905 17.883 C 204.402 17.979,205.122 17.975,205.505 17.875 C 205.887 17.775,205.480 17.696,204.600 17.701 C 203.720 17.705,203.407 17.787,203.905 17.883 M199.105 55.083 C 199.602 55.179,200.322 55.175,200.705 55.075 C 201.087 54.975,200.680 54.896,199.800 54.901 C 198.920 54.905,198.607 54.987,199.105 55.083 M121.178 112.700 L 119.800 114.200 121.300 112.822 C 122.125 112.063,122.800 111.388,122.800 111.322 C 122.800 111.016,122.462 111.304,121.178 112.700 M98.600 156.800 C 99.683 157.900,100.660 158.800,100.770 158.800 C 100.880 158.800,100.083 157.900,99.000 156.800 C 97.917 155.700,96.940 154.800,96.830 154.800 C 96.720 154.800,97.517 155.700,98.600 156.800 M103.800 162.000 C 104.883 163.100,105.860 164.000,105.970 164.000 C 106.080 164.000,105.283 163.100,104.200 162.000 C 103.117 160.900,102.140 160.000,102.030 160.000 C 101.920 160.000,102.717 160.900,103.800 162.000 M68.400 162.200 C 69.146 162.970,69.847 163.600,69.957 163.600 C 70.067 163.600,69.546 162.970,68.800 162.200 C 68.054 161.430,67.353 160.800,67.243 160.800 C 67.133 160.800,67.654 161.430,68.400 162.200 M73.200 167.000 C 74.617 168.430,75.867 169.600,75.977 169.600 C 76.087 169.600,75.017 168.430,73.600 167.000 C 72.183 165.570,70.933 164.400,70.823 164.400 C 70.713 164.400,71.783 165.570,73.200 167.000 M108.600 166.800 C 109.459 167.680,110.252 168.400,110.362 168.400 C 110.472 168.400,109.859 167.680,109.000 166.800 C 108.141 165.920,107.348 165.200,107.238 165.200 C 107.128 165.200,107.741 165.920,108.600 166.800 M113.400 171.600 C 114.483 172.700,115.460 173.600,115.570 173.600 C 115.680 173.600,114.883 172.700,113.800 171.600 C 112.717 170.500,111.740 169.600,111.630 169.600 C 111.520 169.600,112.317 170.500,113.400 171.600 M78.200 172.000 C 79.283 173.100,80.260 174.000,80.370 174.000 C 80.480 174.000,79.683 173.100,78.600 172.000 C 77.517 170.900,76.540 170.000,76.430 170.000 C 76.320 170.000,77.117 170.900,78.200 172.000 M118.600 176.800 C 119.906 178.120,121.065 179.200,121.175 179.200 C 121.285 179.200,120.306 178.120,119.000 176.800 C 117.694 175.480,116.535 174.400,116.425 174.400 C 116.315 174.400,117.294 175.480,118.600 176.800 M83.400 177.200 C 84.483 178.300,85.460 179.200,85.570 179.200 C 85.680 179.200,84.883 178.300,83.800 177.200 C 82.717 176.100,81.740 175.200,81.630 175.200 C 81.520 175.200,82.317 176.100,83.400 177.200 M88.800 182.600 C 90.217 184.030,91.467 185.200,91.577 185.200 C 91.687 185.200,90.617 184.030,89.200 182.600 C 87.783 181.170,86.533 180.000,86.423 180.000 C 86.313 180.000,87.383 181.170,88.800 182.600 M93.800 187.600 C 94.883 188.700,95.860 189.600,95.970 189.600 C 96.080 189.600,95.283 188.700,94.200 187.600 C 93.117 186.500,92.140 185.600,92.030 185.600 C 91.920 185.600,92.717 186.500,93.800 187.600 M98.200 192.000 C 99.283 193.100,100.260 194.000,100.370 194.000 C 100.480 194.000,99.683 193.100,98.600 192.000 C 97.517 190.900,96.540 190.000,96.430 190.000 C 96.320 190.000,97.117 190.900,98.200 192.000 M114.800 208.600 C 122.608 216.410,129.086 222.800,129.196 222.800 C 129.306 222.800,123.008 216.410,115.200 208.600 C 107.392 200.790,100.914 194.400,100.804 194.400 C 100.694 194.400,106.992 200.790,114.800 208.600 M153.800 212.000 C 162.158 220.360,169.086 227.200,169.196 227.200 C 169.306 227.200,162.558 220.360,154.200 212.000 C 145.842 203.640,138.914 196.800,138.804 196.800 C 138.694 196.800,145.442 203.640,153.800 212.000 M131.400 225.200 C 132.483 226.300,133.460 227.200,133.570 227.200 C 133.680 227.200,132.883 226.300,131.800 225.200 C 130.717 224.100,129.740 223.200,129.630 223.200 C 129.520 223.200,130.317 224.100,131.400 225.200 M135.800 229.600 C 136.883 230.700,137.860 231.600,137.970 231.600 C 138.080 231.600,137.283 230.700,136.200 229.600 C 135.117 228.500,134.140 227.600,134.030 227.600 C 133.920 227.600,134.717 228.500,135.800 229.600 M171.400 229.600 C 172.483 230.700,173.460 231.600,173.570 231.600 C 173.680 231.600,172.883 230.700,171.800 229.600 C 170.717 228.500,169.740 227.600,169.630 227.600 C 169.520 227.600,170.317 228.500,171.400 229.600 M175.800 234.000 C 176.883 235.100,177.860 236.000,177.970 236.000 C 178.080 236.000,177.283 235.100,176.200 234.000 C 175.117 232.900,174.140 232.000,174.030 232.000 C 173.920 232.000,174.717 232.900,175.800 234.000 M140.000 233.725 C 140.000 233.794,140.585 234.379,141.300 235.025 L 142.600 236.200 141.425 234.900 C 140.330 233.688,140.000 233.416,140.000 233.725 M145.983 239.700 C 147.641 241.466,148.000 241.784,148.000 241.483 C 148.000 241.419,147.145 240.564,146.100 239.583 L 144.200 237.800 145.983 239.700 M181.583 239.700 C 183.241 241.466,183.600 241.784,183.600 241.483 C 183.600 241.419,182.745 240.564,181.700 239.583 L 179.800 237.800 181.583 239.700 M185.983 244.100 C 187.641 245.866,188.000 246.184,188.000 245.883 C 188.000 245.819,187.145 244.964,186.100 243.983 L 184.200 242.200 185.983 244.100 M150.800 244.600 C 151.546 245.370,152.247 246.000,152.357 246.000 C 152.467 246.000,151.946 245.370,151.200 244.600 C 150.454 243.830,149.753 243.200,149.643 243.200 C 149.533 243.200,150.054 243.830,150.800 244.600 M155.983 249.700 C 157.641 251.466,158.000 251.784,158.000 251.483 C 158.000 251.419,157.145 250.564,156.100 249.583 L 154.200 247.800 155.983 249.700 M191.583 249.700 C 193.241 251.466,193.600 251.784,193.600 251.483 C 193.600 251.419,192.745 250.564,191.700 249.583 L 189.800 247.800 191.583 249.700 M195.983 254.100 C 197.641 255.866,198.000 256.184,198.000 255.883 C 198.000 255.819,197.145 254.964,196.100 253.983 L 194.200 252.200 195.983 254.100 M161.200 255.000 C 161.946 255.770,162.647 256.400,162.757 256.400 C 162.867 256.400,162.346 255.770,161.600 255.000 C 160.854 254.230,160.153 253.600,160.043 253.600 C 159.933 253.600,160.454 254.230,161.200 255.000 M201.583 259.700 C 203.241 261.466,203.600 261.784,203.600 261.483 C 203.600 261.419,202.745 260.564,201.700 259.583 L 199.800 257.800 201.583 259.700 M166.200 260.000 C 167.059 260.880,167.852 261.600,167.962 261.600 C 168.072 261.600,167.459 260.880,166.600 260.000 C 165.741 259.120,164.948 258.400,164.838 258.400 C 164.728 258.400,165.341 259.120,166.200 260.000 M206.200 264.400 C 207.059 265.280,207.852 266.000,207.962 266.000 C 208.072 266.000,207.459 265.280,206.600 264.400 C 205.741 263.520,204.948 262.800,204.838 262.800 C 204.728 262.800,205.341 263.520,206.200 264.400 M171.200 265.000 C 171.946 265.770,172.647 266.400,172.757 266.400 C 172.867 266.400,172.346 265.770,171.600 265.000 C 170.854 264.230,170.153 263.600,170.043 263.600 C 169.933 263.600,170.454 264.230,171.200 265.000 M211.200 269.400 C 211.946 270.170,212.647 270.800,212.757 270.800 C 212.867 270.800,212.346 270.170,211.600 269.400 C 210.854 268.630,210.153 268.000,210.043 268.000 C 209.933 268.000,210.454 268.630,211.200 269.400 M175.200 268.925 C 175.200 268.994,175.785 269.579,176.500 270.225 L 177.800 271.400 176.625 270.100 C 175.530 268.888,175.200 268.616,175.200 268.925 M216.400 274.600 C 217.146 275.370,217.847 276.000,217.957 276.000 C 218.067 276.000,217.546 275.370,216.800 274.600 C 216.054 273.830,215.353 273.200,215.243 273.200 C 215.133 273.200,215.654 273.830,216.400 274.600 M189.600 283.325 C 189.600 283.394,190.185 283.979,190.900 284.625 L 192.200 285.800 191.025 284.500 C 189.930 283.288,189.600 283.016,189.600 283.325 M225.200 283.325 C 225.200 283.394,225.785 283.979,226.500 284.625 L 227.800 285.800 226.625 284.500 C 225.530 283.288,225.200 283.016,225.200 283.325 " stroke="none" fill="#b4a4c9" fill-rule="evenodd"></path><path id="path3" d="M198.711 17.893 C 199.651 17.978,201.091 17.977,201.911 17.891 C 202.730 17.805,201.960 17.736,200.200 17.737 C 198.440 17.739,197.770 17.809,198.711 17.893 M188.300 18.282 C 188.795 18.378,189.605 18.378,190.100 18.282 C 190.595 18.187,190.190 18.109,189.200 18.109 C 188.210 18.109,187.805 18.187,188.300 18.282 M210.305 18.283 C 210.802 18.379,211.522 18.375,211.905 18.275 C 212.287 18.175,211.880 18.096,211.000 18.101 C 210.120 18.105,209.807 18.187,210.305 18.283 M195.705 55.087 C 196.314 55.179,197.214 55.177,197.705 55.082 C 198.197 54.987,197.700 54.911,196.600 54.914 C 195.500 54.917,195.097 54.995,195.705 55.087 M202.100 55.087 C 202.705 55.178,203.695 55.178,204.300 55.087 C 204.905 54.995,204.410 54.920,203.200 54.920 C 201.990 54.920,201.495 54.995,202.100 55.087 M83.978 62.300 L 82.600 63.800 84.100 62.422 C 85.496 61.138,85.784 60.800,85.478 60.800 C 85.412 60.800,84.737 61.475,83.978 62.300 M318.200 64.400 C 319.059 65.280,319.852 66.000,319.962 66.000 C 320.072 66.000,319.459 65.280,318.600 64.400 C 317.741 63.520,316.948 62.800,316.838 62.800 C 316.728 62.800,317.341 63.520,318.200 64.400 M77.192 68.700 L 73.400 72.600 77.300 68.808 C 79.445 66.722,81.200 64.967,81.200 64.908 C 81.200 64.618,80.714 65.078,77.192 68.700 M320.400 66.525 C 320.400 66.594,320.985 67.179,321.700 67.825 L 323.000 69.000 321.825 67.700 C 320.730 66.488,320.400 66.216,320.400 66.525 M326.600 72.800 C 327.683 73.900,328.660 74.800,328.770 74.800 C 328.880 74.800,328.083 73.900,327.000 72.800 C 325.917 71.700,324.940 70.800,324.830 70.800 C 324.720 70.800,325.517 71.700,326.600 72.800 M70.778 75.500 L 69.400 77.000 70.900 75.622 C 72.296 74.338,72.584 74.000,72.278 74.000 C 72.212 74.000,71.537 74.675,70.778 75.500 M195.305 80.287 C 195.914 80.379,196.814 80.377,197.305 80.282 C 197.797 80.187,197.300 80.111,196.200 80.114 C 195.100 80.117,194.697 80.195,195.305 80.287 M203.505 80.283 C 204.002 80.379,204.722 80.375,205.105 80.275 C 205.487 80.175,205.080 80.096,204.200 80.101 C 203.320 80.105,203.007 80.187,203.505 80.283 M109.375 89.300 L 108.200 90.600 109.500 89.425 C 110.712 88.330,110.984 88.000,110.675 88.000 C 110.606 88.000,110.021 88.585,109.375 89.300 M296.400 95.000 C 298.923 97.530,301.077 99.600,301.187 99.600 C 301.297 99.600,299.323 97.530,296.800 95.000 C 294.277 92.470,292.123 90.400,292.013 90.400 C 291.903 90.400,293.877 92.470,296.400 95.000 M103.200 95.000 C 101.561 96.650,100.310 98.000,100.420 98.000 C 100.530 98.000,101.961 96.650,103.600 95.000 C 105.239 93.350,106.490 92.000,106.380 92.000 C 106.270 92.000,104.839 93.350,103.200 95.000 M97.775 100.900 L 96.600 102.200 97.900 101.025 C 99.112 99.930,99.384 99.600,99.075 99.600 C 99.006 99.600,98.421 100.185,97.775 100.900 M278.600 112.800 C 280.128 114.340,281.469 115.600,281.579 115.600 C 281.689 115.600,280.528 114.340,279.000 112.800 C 277.472 111.260,276.131 110.000,276.021 110.000 C 275.911 110.000,277.072 111.260,278.600 112.800 M303.578 117.100 L 302.200 118.600 303.700 117.222 C 305.096 115.938,305.384 115.600,305.078 115.600 C 305.012 115.600,304.337 116.275,303.578 117.100 M116.975 117.300 L 115.800 118.600 117.100 117.425 C 118.312 116.330,118.584 116.000,118.275 116.000 C 118.206 116.000,117.621 116.585,116.975 117.300 M293.375 126.100 L 292.200 127.400 293.500 126.225 C 294.215 125.579,294.800 124.994,294.800 124.925 C 294.800 124.616,294.470 124.888,293.375 126.100 M27.293 174.400 C 27.293 175.170,27.375 175.485,27.476 175.100 C 27.576 174.715,27.576 174.085,27.476 173.700 C 27.375 173.315,27.293 173.630,27.293 174.400 M372.901 176.600 C 372.905 177.480,372.987 177.793,373.083 177.295 C 373.179 176.798,373.175 176.078,373.075 175.695 C 372.975 175.313,372.896 175.720,372.901 176.600 M26.914 179.000 C 26.917 180.100,26.995 180.503,27.087 179.895 C 27.179 179.286,27.177 178.386,27.082 177.895 C 26.987 177.403,26.911 177.900,26.914 179.000 M373.328 183.200 C 373.328 184.630,373.401 185.215,373.489 184.500 C 373.578 183.785,373.578 182.615,373.489 181.900 C 373.401 181.185,373.328 181.770,373.328 183.200 M26.566 191.200 C 26.566 195.270,26.625 196.935,26.698 194.900 C 26.771 192.865,26.771 189.535,26.698 187.500 C 26.625 185.465,26.566 187.130,26.566 191.200 M248.992 204.600 L 249.000 218.200 278.178 218.303 C 300.911 218.383,307.426 218.515,307.672 218.903 C 307.896 219.255,307.990 219.196,307.994 218.700 C 308.000 218.040,306.336 218.000,278.605 218.000 L 249.211 218.000 249.097 204.500 L 248.984 191.000 248.992 204.600 M336.520 193.600 C 336.520 194.810,336.595 195.305,336.687 194.700 C 336.778 194.095,336.778 193.105,336.687 192.500 C 336.595 191.895,336.520 192.390,336.520 193.600 M63.600 193.624 C 63.600 193.857,63.746 193.957,63.925 193.847 C 64.103 193.736,94.343 223.742,131.125 260.526 C 167.906 297.310,198.000 327.314,198.000 327.202 C 198.000 326.874,64.228 193.200,63.900 193.200 C 63.735 193.200,63.600 193.391,63.600 193.624 M63.709 196.800 C 63.709 197.790,63.787 198.195,63.882 197.700 C 63.978 197.205,63.978 196.395,63.882 195.900 C 63.787 195.405,63.709 195.810,63.709 196.800 M373.328 199.600 C 373.328 201.030,373.401 201.615,373.489 200.900 C 373.578 200.185,373.578 199.015,373.489 198.300 C 373.401 197.585,373.328 198.170,373.328 199.600 M336.093 200.400 C 336.093 201.170,336.175 201.485,336.276 201.100 C 336.376 200.715,336.376 200.085,336.276 199.700 C 336.175 199.315,336.093 199.630,336.093 200.400 M26.909 203.600 C 26.909 204.590,26.987 204.995,27.082 204.500 C 27.178 204.005,27.178 203.195,27.082 202.700 C 26.987 202.205,26.909 202.610,26.909 203.600 M372.901 205.800 C 372.905 206.680,372.987 206.993,373.083 206.495 C 373.179 205.998,373.175 205.278,373.075 204.895 C 372.975 204.513,372.896 204.920,372.901 205.800 M27.293 208.400 C 27.293 209.170,27.375 209.485,27.476 209.100 C 27.576 208.715,27.576 208.085,27.476 207.700 C 27.375 207.315,27.293 207.630,27.293 208.400 M372.493 210.000 C 372.493 210.770,372.575 211.085,372.676 210.700 C 372.776 210.315,372.776 209.685,372.676 209.300 C 372.575 208.915,372.493 209.230,372.493 210.000 M282.181 266.100 L 280.600 267.800 282.300 266.219 C 283.881 264.748,284.184 264.400,283.881 264.400 C 283.816 264.400,283.051 265.165,282.181 266.100 M172.800 266.525 C 172.800 266.594,173.385 267.179,174.100 267.825 L 175.400 269.000 174.225 267.700 C 173.130 266.488,172.800 266.216,172.800 266.525 M177.600 271.325 C 177.600 271.394,178.185 271.979,178.900 272.625 L 180.200 273.800 179.025 272.500 C 177.930 271.288,177.600 271.016,177.600 271.325 M274.778 273.500 L 273.400 275.000 274.900 273.622 C 276.296 272.338,276.584 272.000,276.278 272.000 C 276.212 272.000,275.537 272.675,274.778 273.500 M183.400 277.200 C 184.259 278.080,185.052 278.800,185.162 278.800 C 185.272 278.800,184.659 278.080,183.800 277.200 C 182.941 276.320,182.148 275.600,182.038 275.600 C 181.928 275.600,182.541 276.320,183.400 277.200 M301.375 282.500 L 300.200 283.800 301.500 282.625 C 302.215 281.979,302.800 281.394,302.800 281.325 C 302.800 281.016,302.470 281.288,301.375 282.500 M100.600 284.800 C 101.906 286.120,103.065 287.200,103.175 287.200 C 103.285 287.200,102.306 286.120,101.000 284.800 C 99.694 283.480,98.535 282.400,98.425 282.400 C 98.315 282.400,99.294 283.480,100.600 284.800 M193.583 287.300 C 195.241 289.066,195.600 289.384,195.600 289.083 C 195.600 289.019,194.745 288.164,193.700 287.183 L 191.800 285.400 193.583 287.300 M296.581 287.700 L 295.000 289.400 296.700 287.819 C 298.281 286.348,298.584 286.000,298.281 286.000 C 298.216 286.000,297.451 286.765,296.581 287.700 M106.000 290.200 C 107.417 291.630,108.667 292.800,108.777 292.800 C 108.887 292.800,107.817 291.630,106.400 290.200 C 104.983 288.770,103.733 287.600,103.623 287.600 C 103.513 287.600,104.583 288.770,106.000 290.200 M197.600 291.325 C 197.600 291.394,198.185 291.979,198.900 292.625 L 200.200 293.800 199.025 292.500 C 197.930 291.288,197.600 291.016,197.600 291.325 M290.975 292.900 L 289.800 294.200 291.100 293.025 C 291.815 292.379,292.400 291.794,292.400 291.725 C 292.400 291.416,292.070 291.688,290.975 292.900 M203.583 297.300 C 204.564 298.345,205.419 299.200,205.483 299.200 C 205.784 299.200,205.466 298.841,203.700 297.183 L 201.800 295.400 203.583 297.300 M213.800 307.600 C 214.883 308.700,215.860 309.600,215.970 309.600 C 216.080 309.600,215.283 308.700,214.200 307.600 C 213.117 306.500,212.140 305.600,212.030 305.600 C 211.920 305.600,212.717 306.500,213.800 307.600 M328.378 307.900 L 327.000 309.400 328.500 308.022 C 329.896 306.738,330.184 306.400,329.878 306.400 C 329.812 306.400,329.137 307.075,328.378 307.900 M72.600 309.200 C 73.459 310.080,74.252 310.800,74.362 310.800 C 74.472 310.800,73.859 310.080,73.000 309.200 C 72.141 308.320,71.348 307.600,71.238 307.600 C 71.128 307.600,71.741 308.320,72.600 309.200 M218.200 312.000 C 219.283 313.100,220.260 314.000,220.370 314.000 C 220.480 314.000,219.683 313.100,218.600 312.000 C 217.517 310.900,216.540 310.000,216.430 310.000 C 216.320 310.000,217.117 310.900,218.200 312.000 M322.788 313.900 L 320.200 316.600 322.900 314.012 C 325.408 311.607,325.783 311.200,325.488 311.200 C 325.427 311.200,324.212 312.415,322.788 313.900 M224.600 318.400 C 226.128 319.940,227.469 321.200,227.579 321.200 C 227.689 321.200,226.528 319.940,225.000 318.400 C 223.472 316.860,222.131 315.600,222.021 315.600 C 221.911 315.600,223.072 316.860,224.600 318.400 M82.000 318.600 C 82.746 319.370,83.447 320.000,83.557 320.000 C 83.667 320.000,83.146 319.370,82.400 318.600 C 81.654 317.830,80.953 317.200,80.843 317.200 C 80.733 317.200,81.254 317.830,82.000 318.600 M316.378 319.900 L 315.000 321.400 316.500 320.022 C 317.896 318.738,318.184 318.400,317.878 318.400 C 317.812 318.400,317.137 319.075,316.378 319.900 M229.287 323.005 C 230.104 323.860,230.838 324.479,230.917 324.380 C 230.997 324.281,230.328 323.581,229.431 322.825 L 227.800 321.450 229.287 323.005 M191.300 327.476 C 191.685 327.576,192.315 327.576,192.700 327.476 C 193.085 327.375,192.770 327.293,192.000 327.293 C 191.230 327.293,190.915 327.375,191.300 327.476 M185.905 364.283 C 186.402 364.379,187.122 364.375,187.505 364.275 C 187.887 364.175,187.480 364.096,186.600 364.101 C 185.720 364.105,185.407 364.187,185.905 364.283 M212.700 364.282 C 213.195 364.378,214.005 364.378,214.500 364.282 C 214.995 364.187,214.590 364.109,213.600 364.109 C 212.610 364.109,212.205 364.187,212.700 364.282 M192.713 364.695 C 193.876 364.776,195.676 364.776,196.713 364.693 C 197.751 364.611,196.800 364.545,194.600 364.546 C 192.400 364.547,191.551 364.614,192.713 364.695 M202.900 364.696 C 204.165 364.775,206.235 364.775,207.500 364.696 C 208.765 364.616,207.730 364.551,205.200 364.551 C 202.670 364.551,201.635 364.616,202.900 364.696 " stroke="none" fill="#b49cca" fill-rule="evenodd"></path></g></svg>