<svg id="svg" version="1.1" xmlns="http://www.w3.org/2000/svg" xmlns:xlink="http://www.w3.org/1999/xlink" width="400" height="400" viewBox="0, 0, 400,400"><g id="svgg"><path id="path0" d="M124.824 37.635 C 98.516 41.039,86.706 70.943,94.034 115.600 C 94.838 120.502,97.412 133.044,97.845 134.174 C 98.009 134.599,97.310 134.966,95.133 135.598 C 35.318 152.968,10.244 186.126,33.576 217.000 C 37.890 222.709,47.646 230.954,54.600 234.769 C 55.480 235.252,57.280 236.266,58.600 237.023 C 67.673 242.228,87.003 249.982,96.504 252.228 C 98.062 252.596,98.058 252.497,96.749 258.009 C 87.256 297.981,91.898 330.644,108.860 343.220 C 129.071 358.206,160.074 348.463,195.387 316.029 C 200.620 311.222,199.514 311.318,203.850 315.300 C 270.538 376.548,319.850 354.493,305.582 269.800 C 304.952 266.060,303.903 260.754,303.251 258.009 C 301.942 252.497,301.938 252.596,303.496 252.228 C 312.997 249.982,332.327 242.228,341.400 237.023 C 342.720 236.266,344.520 235.252,345.400 234.769 C 352.354 230.954,362.110 222.709,366.424 217.000 C 389.758 186.123,364.687 152.970,304.867 135.598 C 302.690 134.966,301.991 134.599,302.155 134.174 C 302.276 133.859,302.998 130.676,303.760 127.101 C 313.307 82.314,306.908 51.508,285.884 41.043 C 265.142 30.719,236.402 41.942,202.110 73.758 L 200.000 75.716 197.890 73.758 C 169.298 47.230,144.689 35.064,124.824 37.635 M136.400 53.260 C 149.050 55.307,166.930 66.225,184.890 82.869 L 189.181 86.845 184.813 91.723 C 178.620 98.638,172.816 105.793,166.094 114.800 C 162.892 119.090,160.065 122.830,159.811 123.110 C 159.541 123.409,157.122 123.865,153.975 124.210 C 142.147 125.505,128.905 127.554,118.838 129.647 C 114.557 130.537,113.001 130.724,112.784 130.375 C 110.361 126.454,106.972 99.817,107.324 87.454 C 108.068 61.308,117.511 50.203,136.400 53.260 M275.600 53.470 C 291.157 57.716,296.584 81.496,290.145 117.200 C 289.064 123.195,287.458 130.275,287.099 130.634 C 286.986 130.747,284.308 130.301,281.147 129.644 C 271.095 127.554,257.846 125.504,246.025 124.210 C 242.878 123.865,240.459 123.409,240.189 123.110 C 239.935 122.830,237.108 119.090,233.906 114.800 C 227.184 105.793,221.380 98.638,215.187 91.723 L 210.819 86.845 215.110 82.875 C 233.305 66.038,251.050 55.233,263.800 53.231 C 269.285 52.369,271.749 52.419,275.600 53.470 M203.476 101.900 C 205.194 103.825,208.035 107.110,209.789 109.200 C 211.542 111.290,213.082 113.090,213.211 113.200 C 213.340 113.310,214.540 114.840,215.876 116.600 C 217.213 118.360,218.688 120.233,219.153 120.761 C 219.619 121.290,220.000 121.830,220.000 121.961 C 220.000 122.093,211.000 122.200,200.000 122.200 C 189.000 122.200,180.000 122.140,180.000 122.067 C 180.000 121.089,199.186 98.400,200.013 98.400 C 200.199 98.400,201.757 99.975,203.476 101.900 M221.278 137.604 C 232.833 138.180,231.375 137.565,235.305 143.513 C 245.628 159.132,256.114 177.403,262.461 190.829 L 263.894 193.859 261.724 198.229 C 254.439 212.908,245.755 228.027,236.317 242.461 L 231.962 249.123 229.281 249.374 C 215.560 250.660,184.440 250.660,170.719 249.374 L 168.038 249.123 163.683 242.461 C 154.184 227.933,145.130 212.157,138.278 198.195 L 136.116 193.790 138.980 187.995 C 149.486 166.734,166.584 138.680,169.323 138.208 C 174.498 137.316,207.730 136.930,221.278 137.604 M148.000 140.612 C 148.000 140.728,146.414 143.383,144.476 146.512 C 140.459 152.997,133.537 165.046,130.354 171.094 C 129.170 173.345,128.089 175.190,127.953 175.194 C 127.515 175.205,121.566 159.743,118.449 150.491 C 117.317 147.129,116.968 145.600,117.332 145.600 C 117.405 145.600,120.510 144.987,124.232 144.239 C 127.955 143.490,133.880 142.419,137.400 141.858 C 146.521 140.404,148.000 140.230,148.000 140.612 M262.600 141.865 C 266.120 142.422,272.045 143.490,275.768 144.239 C 279.490 144.987,282.595 145.600,282.668 145.600 C 283.398 145.600,279.432 157.239,274.315 170.114 C 271.929 176.117,272.229 176.060,269.585 171.000 C 266.360 164.828,259.455 152.809,255.537 146.549 C 253.592 143.440,252.000 140.768,252.000 140.611 C 252.000 140.270,254.061 140.514,262.600 141.865 M104.911 157.915 C 107.228 164.997,114.598 184.210,115.922 186.619 C 116.321 187.347,117.732 190.519,118.662 192.784 C 119.046 193.718,118.300 195.922,115.612 201.800 C 111.957 209.789,106.297 224.742,102.892 235.400 C 101.967 238.297,102.470 238.290,94.200 235.523 C 32.585 214.912,23.022 185.330,70.331 161.686 C 78.777 157.464,99.137 149.668,101.800 149.635 C 102.020 149.632,103.420 153.358,104.911 157.915 M300.187 150.159 C 301.074 150.467,303.870 151.388,306.400 152.206 C 341.098 163.426,362.034 180.769,359.595 196.271 C 357.392 210.276,338.533 224.360,308.000 234.800 C 300.808 237.259,297.966 237.978,297.742 237.394 C 297.631 237.103,297.032 235.275,296.412 233.332 C 293.673 224.744,287.635 208.743,284.973 203.017 C 281.774 196.135,280.933 193.768,281.338 192.784 C 282.268 190.519,283.679 187.347,284.078 186.619 C 285.402 184.210,292.772 164.997,295.089 157.915 C 296.580 153.358,297.974 149.623,298.187 149.615 C 298.399 149.607,299.299 149.852,300.187 150.159 M196.271 162.419 C 169.972 165.510,159.120 197.990,178.179 216.570 C 180.048 218.393,185.783 222.400,186.522 222.400 C 186.699 222.400,187.599 222.744,188.522 223.164 C 198.516 227.713,213.401 224.764,221.821 216.567 C 243.418 195.544,226.132 158.909,196.271 162.419 M131.207 218.000 C 133.909 223.047,140.433 234.488,142.390 237.614 C 147.084 245.110,148.299 247.200,147.961 247.200 C 147.080 247.200,133.526 245.097,129.800 244.382 C 119.752 242.454,117.200 241.849,117.200 241.392 C 117.200 240.889,120.713 230.449,122.716 225.000 C 125.185 218.281,127.810 212.051,128.057 212.320 C 128.199 212.474,129.616 215.030,131.207 218.000 M275.134 219.500 C 277.994 226.776,282.800 240.491,282.800 241.376 C 282.800 241.852,280.388 242.427,270.200 244.382 C 266.474 245.097,252.920 247.200,252.039 247.200 C 251.701 247.200,252.916 245.110,257.610 237.614 C 258.087 236.851,260.145 233.341,262.182 229.814 C 265.609 223.879,266.847 221.640,270.426 214.900 C 272.174 211.607,271.942 211.380,275.134 219.500 M131.400 260.178 C 140.002 261.621,155.002 263.590,157.567 263.613 C 159.184 263.627,159.875 264.071,160.973 265.800 C 164.015 270.590,176.804 286.715,184.344 295.266 L 189.162 300.731 184.281 305.236 C 158.507 329.025,134.952 339.394,121.327 332.948 C 106.873 326.110,103.135 297.669,111.839 260.767 L 112.838 256.534 117.919 257.651 C 120.713 258.266,126.780 259.403,131.400 260.178 M289.182 265.400 C 295.411 295.289,293.523 318.790,284.083 328.884 C 271.837 341.976,245.845 332.981,215.711 305.221 L 210.838 300.731 215.656 295.266 C 223.196 286.715,235.985 270.590,239.027 265.800 C 240.125 264.071,240.816 263.627,242.433 263.613 C 247.268 263.570,272.150 259.829,282.000 257.665 L 287.000 256.566 287.507 258.183 C 287.786 259.072,288.540 262.320,289.182 265.400 M220.000 265.527 C 220.000 266.313,200.664 289.200,200.000 289.200 C 199.336 289.200,180.000 266.313,180.000 265.527 C 180.000 265.457,189.000 265.400,200.000 265.400 C 211.000 265.400,220.000 265.457,220.000 265.527 " stroke="none" fill="#64dcfc" fill-rule="evenodd"></path><path id="path1" d="" stroke="none" fill="#68dcfc" fill-rule="evenodd"></path><path id="path2" d="" stroke="none" fill="#68dcfc" fill-rule="evenodd"></path><path id="path3" d="" stroke="none" fill="#68dcfc" fill-rule="evenodd"></path><path id="path4" d="" stroke="none" fill="#68dcfc" fill-rule="evenodd"></path></g></svg>