<?xml version="1.0" encoding="UTF-8"?>
<!DOCTYPE svg PUBLIC "-//W3C//DTD SVG 1.1//EN" "http://www.w3.org/Graphics/SVG/1.1/DTD/svg11.dtd">
<!-- Creator: CorelDRAW X8 -->
<svg xmlns="http://www.w3.org/2000/svg" xml:space="preserve" width="27.2513in" height="4.66747in" version="1.1" style="shape-rendering:geometricPrecision; text-rendering:geometricPrecision; image-rendering:optimizeQuality; fill-rule:evenodd; clip-rule:evenodd"
viewBox="0 0 27251 4667"
 xmlns:xlink="http://www.w3.org/1999/xlink">
 <defs>
  <style type="text/css">
   <![CDATA[
    .fil0 {fill:black;fill-rule:nonzero}
   ]]>
  </style>
 </defs>
 <g id="Layer_x0020_156">
  <metadata id="CorelCorpID_0Corel-Layer156"/>
  <g id="_1569722159264">
   <path class="fil0" d="M3196 4239c0,-17 8,-26 17,-26 8,0 8,9 8,9l0 8c0,17 -8,25 -17,25 0,0 -8,0 -8,-16zm76 -118l-9 0c0,0 -8,0 -8,-8l17 -17 0 25zm-101 -25l0 17c0,8 0,8 -9,8 -8,0 -25,0 -58,-17 8,-8 8,-8 8,-17 0,-8 -8,-8 -8,-8l67 0c0,0 -9,0 -9,8l9 9zm-118 -25c9,0 17,8 17,16l-17 0 -17 9 0 -9 17 -16zm269 -43c9,0 9,9 9,9l-9 8 0 -17zm-134 17c-9,0 -26,-8 -26,-17 0,-8 0,-8 9,-8l8 0c17,0 17,8 17,8 0,9 -8,17 -8,17zm-42 -59l-17 26 -9 0c-8,0 -16,0 -42,8l0 -25c0,-9 0,-9 17,-17 25,-17 34,-17 42,-17 9,0 9,0 9,9l0 16zm109 -16c0,-9 8,-26 17,-26l0 17c0,9 -9,17 -9,17l-8 -8zm42 -17c0,-9 8,-9 17,-9l0 9c0,8 0,25 -9,25 0,0 0,-8 -8,-25zm-2944 -76c9,0 17,9 17,17l-17 0c0,0 -8,0 -8,8l8 9 0 -34zm2851 25c-8,-8 -8,-8 -16,-8 -9,0 -9,8 -9,8l0 9c9,0 9,-9 9,-25l0 -17 8 -9 8 42zm-2826 -67c9,0 17,8 17,8l-17 0c0,0 -16,9 -25,9 0,0 0,-9 9,-17l16 0zm2734 -42c17,-25 25,-34 50,-34 9,0 17,0 34,9l0 33 -34 0c0,0 -8,9 -16,9 -9,0 -26,-9 -34,-17l0 0zm151 0l0 -42c0,-8 0,-8 17,-25 0,8 25,0 25,33 -8,26 -16,17 -42,34zm-50 -67c8,0 17,8 17,8l-9 0c0,0 -8,9 -17,9l0 -17 9 0zm-2860 0c9,0 9,-9 17,-9l0 34c-8,0 -8,8 -17,8 0,0 0,-8 -8,-33l8 0zm76 -17c0,-8 8,-17 8,-17 0,0 9,9 9,17 0,0 0,8 -9,8l-8 17 0 -25zm-320 -25c0,-17 9,-25 17,-25 9,0 9,0 9,8l0 8c0,17 -9,26 -17,26 0,0 -9,-9 -9,-17zm2986 -42c67,0 67,8 93,50 -26,-8 -42,-8 -59,-8 -25,0 -34,0 -34,-42l0 0zm118 -17l25 25c0,0 -17,0 -25,17 0,-8 -17,0 -17,-17l17 -25zm-2843 42c8,-42 25,-67 42,-67 17,0 25,16 25,59l-67 8 0 0zm-84 -59c17,25 25,25 25,25 0,9 0,17 -8,26l-17 -51 0 0zm269 17c0,8 -8,17 -8,17l-9 8 0 -17 17 -8zm2876 -25c-33,-17 -42,0 -42,-51l42 51zm-411 -51c0,-8 8,-17 8,-17 8,0 25,9 25,17 0,9 -8,9 -17,9 -8,0 -16,8 -16,16l0 -25zm-2524 -17c0,-8 -8,-8 -8,-8l59 0c0,8 0,8 8,17 -25,17 -34,17 -42,17 -9,0 0,-9 -25,-17l8 -9 0 0zm-134 34c16,-59 8,-17 42,-67 16,17 25,33 25,42 0,17 -25,17 -67,25l0 0zm2868 -8c-26,0 -42,8 -59,8 -25,0 -42,-8 -76,-34 17,-8 17,-16 17,-16l0 -9c0,0 8,9 59,17l17 0c25,0 33,-8 33,-8 0,0 0,8 9,42l0 0zm-2910 -26c-17,0 -34,-16 -34,-16 0,-9 8,-9 17,-9l42 0c0,0 -9,-8 -17,-8 -8,0 -8,0 -8,8l0 25zm2792 -75c0,-17 8,-17 17,-17 0,0 8,0 8,8 0,0 0,9 -8,9 -9,0 -9,17 -17,17l0 -17zm50 0c9,-9 17,-42 42,-42 9,0 17,0 34,17 9,8 17,8 17,8 0,0 0,8 8,25 -25,0 -42,9 -50,9 -9,0 -25,-9 -51,-17l0 0zm-2834 0c0,-9 0,-25 8,-25l9 8 8 0c9,0 9,0 9,8 0,0 -9,0 -17,9l-9 8c0,0 0,-8 -8,-8zm3019 -51c0,0 9,0 9,17l-9 25 0 51 -16 0 -9 8 0 -17c0,-42 -8,-58 -8,-75 0,0 0,-9 8,-9l25 0zm-336 76c17,-59 9,-42 84,-59 -25,51 0,34 -84,59zm-2759 -93c17,9 17,9 25,9l9 8c8,26 8,17 8,51 -42,-25 -17,-34 -42,-68zm1683 9c0,-17 8,-17 17,-17 8,0 8,0 8,8l0 9c0,8 0,17 -8,17 -9,0 -9,0 -17,-17zm-1557 8c9,-8 17,-25 17,-25 0,0 9,8 17,42l-34 -17zm2911 -25c0,-17 8,-34 16,-34l0 17c0,9 0,25 -8,25l-8 -8zm117 -25c-8,17 -8,17 -8,25l-42 0 8 -8 0 -9c0,0 9,0 42,-8zm-193 33c17,-33 25,-42 34,-42 0,0 8,9 16,34l-50 8 0 0zm-2919 -58l17 -9c-8,25 -8,17 -17,34l0 -25zm135 -34c17,-8 25,-8 33,-8 17,0 17,8 17,16 0,9 0,26 -8,34 -51,-17 -25,-25 -42,-42zm2742 0c0,-8 8,-17 8,-17 9,0 9,9 9,17 0,17 0,25 -9,25l-8 -25zm-1387 25l8 -8c0,-9 -8,-9 -8,-9 0,-8 8,-8 33,-8 17,0 25,0 25,8l0 9 -58 8 0 0zm1294 -25c9,-59 0,-34 42,-59 -8,42 -8,42 -42,59zm-2742 -50c9,0 9,8 9,8l0 8c-17,17 -25,17 -34,17 0,0 0,-8 -8,-17l33 -16zm1607 0l51 0 -9 8 -42 -8 0 0zm-1354 8c0,8 -9,8 -17,8 0,0 -9,0 -9,-8l26 0zm2859 -34c0,0 9,9 9,17l-9 0c-8,0 -8,9 -8,9l0 8 8 -34zm-168 17c0,-17 9,-25 17,-25l0 17c0,17 0,17 -8,17 0,0 -9,0 -9,-9zm-143 -17c9,0 9,-8 9,-8 8,0 16,17 16,17l-8 0 -17 8c0,0 -8,0 -8,-8l8 -9zm-1017 26l33 -26 -16 34c0,0 0,-8 -9,-8l-8 0zm-379 -26c0,-17 9,-33 17,-33l0 25c0,17 0,17 -8,17l-9 -9zm152 -33c8,16 8,25 8,33 0,17 -8,17 -25,26l17 -59 0 0zm-1380 -34c0,0 17,-25 42,-25 8,0 25,17 34,75 -26,-8 -34,0 -51,-16 -17,-9 -25,-17 -25,-17l8 0c0,-9 0,-9 -8,-17l0 0zm3011 -17l17 -8c0,8 -9,17 -17,17l0 -9zm-1757 -8l42 8 0 25 -34 0 0 -16c0,0 0,-9 -8,-17zm1622 -17c0,34 0,50 -8,50 -8,0 -17,-8 -34,-25 17,-25 9,-17 42,-25l0 0zm-1555 17c25,-17 25,-17 34,-17l-9 8 17 0c8,0 8,0 8,-8l59 -17 0 59c-8,0 -25,-8 -25,-8l-42 0c-17,0 -8,8 -17,8l-25 -25 0 0zm210 -59l-59 42 17 -8 42 -34 0 0zm-1582 -8c68,25 34,0 59,50 -8,8 -25,8 -33,8 -17,0 -26,-16 -26,-58l0 0zm-126 25l26 75c-26,-33 -34,-50 -34,-58 0,-9 0,-9 8,-9l0 -8zm1574 -42c0,-17 8,-25 8,-25 8,0 17,16 17,25 0,8 -9,17 -17,17 0,0 -8,-9 -8,-17zm1580 0c-25,17 -42,17 -50,17 -17,0 -17,-9 -34,-17l9 -9 0 -8 59 0c16,0 16,0 16,8l0 9zm-1757 -17c17,25 25,34 25,42 0,17 -8,17 -42,42 0,-8 -8,-8 -8,-8l-9 0 0 -42 17 -51c0,0 0,17 17,17l0 0zm-1464 0c0,-17 8,-17 8,-17 9,0 17,9 17,17l9 25 0 -8c0,-9 0,-9 -17,-9 -9,0 -9,9 -9,9 0,0 0,-9 -8,-17zm2944 67c42,-42 25,-50 67,-101 67,9 76,0 93,68 -76,-17 -9,-34 -110,-34 9,42 9,67 9,84 0,34 0,50 -17,50 -17,0 -51,-33 -76,-50l34 -17 0 0zm-1211 -84c0,-8 9,-17 17,-17 0,0 8,9 8,17l-16 34c0,0 -9,-9 -9,-34zm-202 0l17 -8c34,-9 34,-9 67,-9 -16,26 -33,42 -50,42 -8,0 -17,0 -34,-8l0 -17zm-1296 51c17,-42 26,-51 34,-51l9 0c8,0 25,0 25,9 0,0 -9,8 -25,16l-9 17 0 9 -34 0 0 0zm1212 -85c0,-16 9,-16 17,-16 8,0 8,0 8,16 0,17 -8,17 -8,17 -8,0 -17,-8 -17,-17zm-1043 -8c25,0 8,0 33,8 -17,9 -25,17 -33,17l-17 -17 17 -8zm2683 25c0,-33 33,-59 59,-75l8 42 -67 33 0 0zm-118 -50c0,0 0,-9 9,-9 8,0 16,9 42,26l-17 8c-17,0 -17,0 -17,8 0,0 0,-8 -17,-16l0 -17zm-92 -25c0,0 8,8 8,16 0,9 0,26 -8,26 0,0 0,-9 -9,-26l9 -16zm-2616 16l8 -8c9,0 17,8 17,8l-17 0 -8 9 0 -9zm-84 0c0,-16 8,-16 8,-16 8,0 8,0 8,8 0,0 0,8 -8,8l0 17 -8 -17zm1842 -58c17,16 17,16 17,25l0 25c-9,-17 -17,-8 -17,-17l0 -33zm-151 67l-17 8 -9 -8c0,-9 9,-17 17,-17 9,0 17,8 17,17l-8 0zm-412 -59c0,34 8,42 8,42 -8,0 -8,0 -25,8l17 -50 0 0zm-110 42c9,-8 17,-8 17,-8l9 0c0,8 -9,8 -17,8l-9 0zm1648 -42c9,0 9,-8 17,-8 9,0 25,8 25,16 0,0 -8,9 -16,9l-9 0c-8,0 -17,-9 -17,-9l0 -8zm-2658 -67l17 92 -59 -50 42 -42 0 0zm-134 33c0,0 17,9 17,17 0,0 0,9 -9,9 0,0 -25,0 -25,-9 0,-8 8,-8 17,-17zm-67 0c0,-8 8,-16 8,-16 8,0 8,8 8,16 0,9 -8,17 -8,17 0,0 -8,-8 -8,-17zm2901 -16c42,0 68,-9 68,-9 8,0 8,0 8,9 0,0 -8,0 -8,8 0,8 8,8 8,17l-34 0c-25,-17 -33,-17 -33,-17l-9 -8 0 0zm-2548 -34c0,0 8,8 8,17l-8 8 0 -25zm2616 -25c50,16 42,0 58,42 -8,0 -8,8 -8,8 0,0 -8,-8 -25,-17 -17,-17 -17,-25 -17,-25l-8 -8 0 0zm126 25c8,-9 -9,-34 67,-51 -34,42 -42,42 -50,42 -9,0 -9,0 -17,9l0 0zm-278 -25c9,-9 9,-9 17,-9 9,0 17,0 17,9 0,0 -8,8 -17,8l-8 0c0,0 -9,0 -9,-8zm-1370 -26c42,0 25,0 50,17 -17,9 -25,17 -33,17 -9,0 0,-25 -17,-34l0 0zm-1254 34c-17,-17 -17,-17 -25,-42l92 -17c-17,34 -42,42 -67,59l0 0zm2860 -92l8 8 9 -8c0,8 0,16 -9,33l0 25 -8 0c-9,0 -9,0 -26,9 -8,-25 -8,-34 -8,-42 0,-9 8,-17 34,-25zm-1716 0c9,-9 9,-9 17,-9 9,0 17,17 17,51l-17 -17 0 -9c0,-8 -8,-8 -17,-16l0 0zm682 -59c0,0 -9,0 -9,8 0,9 9,17 9,25l-26 -8 0 -8c0,0 0,-9 -8,-17l34 0zm-1607 17c0,-17 8,-26 16,-26l0 17c0,9 -8,25 -8,25l-8 -16zm-160 -59c33,33 17,25 33,92 -33,-17 -50,-25 -50,-42 0,-8 8,-25 17,-50l0 0zm2843 25l50 8c0,9 0,9 -8,9 0,0 -25,42 -59,50l17 -67zm-110 -8c0,0 9,8 9,25l0 25 8 -8c0,-9 0,-17 -17,-17 -8,0 -8,8 -8,8l8 -33zm-67 -26c-8,59 9,34 -42,51l0 -42c0,0 9,0 42,-9l0 0zm-1750 17c35,25 17,9 43,34l-26 -9c0,-8 0,-8 -17,-25zm1977 0c0,-8 9,-17 9,-17l8 9c0,8 0,8 -8,8l0 17 -9 -17zm-1858 -34c0,-16 8,-25 8,-25l9 9c0,8 0,8 -9,16l-8 17 0 -17zm-1128 9c9,-9 17,-9 17,-9 9,0 9,9 9,9l0 17 -26 -17zm168 0l-58 -17 -51 0c17,-50 17,-34 76,-50l33 67 0 0zm858 -51c10,-8 18,-8 18,-8l-8 8 -10 0zm1859 -33c0,-17 9,-25 9,-25 8,0 17,16 17,25 0,8 -9,25 -9,25 -8,0 -8,-8 -17,-25zm185 0c-8,-17 -8,-17 -8,-25l8 25zm-319 -25c17,0 25,8 25,8l8 -8c0,0 0,8 9,33l-34 0 0 -8 -8 -25zm-2767 25c8,-25 8,-34 16,-34 0,0 9,9 26,9 -26,25 0,16 -42,25zm2952 -34c25,9 33,9 42,9 8,0 8,0 33,-9 -8,34 -33,51 -58,76l-17 -76 0 0zm-2734 76c-17,-34 -25,-59 -25,-84l0 -42c42,0 50,8 76,25 0,25 -9,34 -9,34 -8,0 -17,-9 -33,-9 8,25 16,34 16,42 0,0 -8,9 -25,34l0 0zm918 -76c0,0 -9,0 -42,-17l0 -8c0,-8 0,-8 8,-8 8,0 17,0 34,16l0 17zm-834 -33l9 -9 -9 17 0 -8zm-244 -59c26,-9 42,-9 51,-9 17,0 8,9 25,51l-76 25 0 -67zm2995 25c8,-8 16,-8 16,-8 17,0 26,8 26,16l-26 0c0,0 -16,9 -25,9 0,0 0,-9 9,-17zm-160 17l-9 0c-8,0 -8,0 -8,-17l0 -42 17 59 0 0zm59 -68c59,26 50,9 59,59 -68,0 -34,-25 -59,-59zm160 -50c16,17 16,8 16,17l0 33 -16 -50 0 0zm-1110 50c16,-33 25,-33 33,-33l51 0c-9,33 -17,33 -42,33l-42 0 0 0zm-1742 0c0,-8 -8,-25 -8,-33 0,-42 33,-76 67,-84l-59 117zm-168 -25c-17,17 -25,17 -25,17 -9,0 -9,-8 -25,-25l50 8 0 0zm2792 -42c43,17 17,0 34,34 -25,0 -34,0 -34,-9 0,0 9,0 9,-8 0,-8 0,-8 -9,-17zm-92 25c0,-16 8,-25 17,-25 0,0 8,9 8,17 0,0 0,8 -8,8l-9 0 -8 17 0 -17zm-1505 0c8,-8 17,-8 17,-8 8,0 17,8 17,8 0,9 0,9 -17,17l-9 0c-8,0 -8,-8 -8,-17zm1749 -16c0,-17 8,-17 8,-17 9,0 17,0 17,8l-8 9c0,8 0,25 -9,25 0,0 -8,-9 -8,-25zm-3036 0c8,-9 25,-17 42,-17 0,8 0,8 -9,17 -8,8 -17,16 -25,16l-8 -16zm2994 16c0,-8 -9,-8 -9,-8 -8,0 -16,8 -16,8l0 -33c8,-25 8,-34 16,-34l9 9 8 -9 -8 67 0 0zm-160 -33c0,0 -8,0 -8,-9l8 9zm-1656 8c16,-17 8,-8 33,-17l0 17 -17 17c-8,-17 0,-8 -16,-17zm-1019 -33l25 8c0,0 0,-8 17,-8l9 -9 50 -17c-25,26 -33,34 -42,34 0,0 0,8 -25,76 -9,33 -9,25 -25,33l-9 -117 0 0zm42 8c-8,0 -8,0 -8,8l17 9 0 -9 -9 -8zm884 -25c9,0 9,-9 9,-9l0 -8c8,0 8,0 25,8l17 9 0 8 -51 -8 0 0zm1783 -76c0,0 8,0 8,8l-8 0c-9,0 -17,0 -17,9 0,8 8,8 8,8l9 -25zm-2456 -34c16,17 25,26 25,34 0,8 -9,17 -17,34 -8,-17 -17,-26 -17,-34 0,-8 0,-17 9,-34zm2641 26c16,-17 25,-34 33,-34 9,0 17,8 26,34 -17,8 -17,8 -26,8 -8,0 -17,0 -33,-8zm-93 -9c67,17 51,0 67,59 -75,-17 -42,0 -67,-59zm-2506 -25l8 8 -8 -8zm-152 42c9,-34 0,-34 25,-67l42 8 -25 34 -42 25 0 0zm-210 -67c8,-9 8,-17 17,-17 8,0 17,8 17,8 0,9 -9,9 -17,9 -9,0 -17,8 -17,8l0 -8zm3070 -25c0,-9 8,-17 8,-17l9 8c0,9 0,9 -9,9l0 16 -8 -16zm-2650 -9l9 9 0 8 -9 -8 0 -9zm-311 118c-25,-9 -33,-9 -33,-17 0,-17 8,-25 8,-59 0,-59 0,-42 59,-50 -17,42 -17,67 -17,75l0 17c0,9 0,17 -17,34l0 0zm2179 -118c0,-17 8,-17 8,-17 9,0 9,0 9,9 0,0 0,8 -9,8l0 17 -8 -17zm-202 0c0,-17 9,-25 17,-25l0 34 -17 -9zm690 -17c16,-8 25,-8 33,-8 17,0 26,17 26,59l-59 -51 0 0zm-2524 -109c34,25 51,25 76,76l-25 17c-9,0 -9,-9 -9,-9l0 -17 17 17c0,0 -8,-8 -25,-33 -17,-34 -17,8 -34,-51l0 0zm2641 59l0 34c-50,-17 -16,8 -42,-34l42 0zm-2666 0l17 8 -9 17 0 25c0,9 0,0 -25,17l17 -67 0 0zm1926 8l-16 -42c33,9 25,0 33,26l-17 16zm1018 -50l0 17 -34 8c9,-25 17,-25 17,-34l17 9zm-2077 -25l34 25 -9 8c-8,0 -17,-8 -50,-17l25 -16 0 0zm-901 0c0,0 9,8 9,16l0 34c-9,0 -9,-8 -17,-34l8 -16zm2877 0c0,-17 8,-26 17,-26 0,0 8,0 8,9 0,8 -8,8 -17,17l0 16 -8 -16zm-210 -26c8,0 25,0 25,26 0,42 -8,25 -25,33 -9,-17 -17,-25 -17,-33 0,0 8,-9 17,-26zm-614 0c8,0 8,0 8,9 0,0 0,8 -8,8l0 -17zm731 26c59,-34 26,-34 68,-42l-9 58c0,17 -16,43 -25,59l-34 -75 0 0zm-42 -42c0,-17 9,-26 17,-26 9,0 17,0 17,9 0,0 -8,8 -17,8l0 9 -8 16c0,0 -9,-8 -9,-16zm-1917 42c9,-42 0,-42 42,-51l0 17c0,17 0,25 -42,34l0 0zm1127 -59c0,0 25,-25 34,-25l8 8 -17 17c0,0 -17,8 -25,8l0 -8zm-984 -17c0,-8 9,-17 17,-17l9 9 -9 8c0,8 0,25 -8,25 0,0 -9,-8 -9,-25zm1901 -17c0,-8 8,-8 8,-8l0 25 -8 -17zm-34 9c-8,8 -8,16 -17,16 0,0 0,-8 -17,-8l0 -8c0,-9 0,-9 9,-9 8,0 17,0 25,9zm-160 -9c0,-8 9,-8 17,-8l0 17c-8,0 -17,8 -17,8l0 -17zm-580 -8c25,-17 34,-25 42,-25l0 16 -42 9zm-2103 50c-25,-8 -42,-17 -50,-17l33 -67 17 84 0 0zm2944 -75c17,0 25,8 25,8l-17 0 -17 8 0 -16 9 0zm-2860 8c8,0 17,0 17,8l-25 0 0 -8 8 0zm-219 -8c-8,-9 -8,-17 -8,-17l17 17 0 16c0,0 0,-8 -9,-16zm883 -9l9 0c8,0 26,9 26,9 0,8 0,8 -8,8 -10,0 -27,0 -27,-8l0 -9zm-622 -25c17,25 25,42 25,50 0,9 -8,9 -8,9l-17 0c-8,-34 -17,-42 -17,-51 0,0 9,0 17,-8zm2692 0c8,-8 8,-8 17,-8 16,0 25,16 25,25 0,0 -9,0 -17,-9l-8 -8 -17 0zm-2633 -17c34,17 25,-8 34,42 -34,-8 -42,-8 -42,-8 0,-9 8,-17 8,-34zm648 9l9 0 0 8 -17 0 8 -8zm1842 -26l8 0c9,0 17,9 17,17 0,0 -8,0 -17,-8l-8 -9zm-555 9c0,-9 17,-26 25,-26l0 17c0,9 -8,26 -17,26 0,0 -8,-9 -8,-17zm-2036 8l-34 0 9 -17c0,0 -9,-8 -17,-8l42 25zm151 -42c0,-8 9,-25 9,-25l0 33 -9 -8zm2574 17l26 -93c58,17 58,17 67,76l-42 0 -9 8 -42 9 0 0zm-2700 -59l0 -8c0,0 0,8 9,8l17 8 0 9c33,-51 8,-25 58,-51l0 76 -25 0c-17,0 -50,0 -67,-34l8 -8zm2625 -8c0,0 8,8 8,16l-8 0 0 17 -9 -17 9 -16zm-2473 0l8 -9c8,0 8,0 17,9l8 0 0 8c0,8 9,17 9,25 -9,0 -17,-8 -51,-33l9 0 0 0zm-253 -86c34,9 51,26 51,60 0,9 0,26 -9,42 -16,-16 -25,-25 -25,-33l0 -17c0,-9 0,-26 -17,-52l0 0zm2347 128l-75 0 25 -85c25,17 8,34 33,68 9,17 17,25 17,25 0,-8 -8,-17 -8,-17l8 9 0 0zm-1522 -59l-33 -9 0 -17c0,0 0,-9 -9,-17l42 43zm-404 -43l0 8c0,9 0,9 -9,9l-8 17 0 -26 17 -8zm2683 34l-17 0c-8,0 -17,0 -17,-8 0,-9 17,-18 26,-18l8 0 0 26zm-143 -110c8,17 17,34 17,50 0,9 -9,17 -17,26 -8,17 -25,17 -34,17 -25,0 -33,-17 -50,-26 17,-25 17,-25 25,-25 0,0 0,8 9,8 8,0 25,-8 50,-50zm-2868 8c17,-8 25,-8 42,-8 34,0 59,17 59,42 0,8 0,17 -9,25 -25,-42 -33,-50 -42,-50l-16 0c-9,0 -17,0 -34,-9l0 0zm2658 0c33,17 50,17 59,17l33 0 0 17c0,8 0,8 -16,8l-26 0c-42,0 -50,-16 -50,-33l0 -9zm-1783 17c0,0 0,-8 9,-8 17,0 25,0 25,8 0,0 -8,9 -25,9l-9 -9zm-732 68c0,-9 -17,-17 -17,-34 0,0 8,-9 8,-25 17,-26 17,-34 26,-34 8,0 8,8 8,8l8 17c0,25 -16,51 -33,68l0 0zm589 -101c9,-9 17,-9 26,-9 8,0 16,9 16,9 0,8 -8,8 -16,16l-17 0c-9,0 -9,0 -9,-8l0 -8zm2144 -101l9 8 25 42c8,9 8,9 8,17l26 34c-34,-17 -68,-34 -135,-51l67 -50 0 0zm-840 84l8 -9 0 17 -8 0 0 -8zm756 -17c0,-17 9,-25 17,-25 9,0 9,8 9,25l0 8c0,9 0,17 -9,17 0,0 -8,-8 -17,-25zm-75 -50c17,16 8,0 25,33l8 17 0 25c-33,-8 -50,-8 -50,-25 0,-8 8,-25 17,-50l0 0zm-639 33c0,-8 8,-17 17,-17 8,0 8,9 8,9l0 8c0,9 -8,25 -17,25 0,0 -8,-8 -8,-25zm-1851 -8c17,17 25,17 25,25l0 25c-8,0 -8,-8 -17,-8l-17 -9 0 -8c9,0 9,-8 9,-25zm-109 42c16,-25 33,-42 50,-59l0 59 -17 -9c-8,0 -17,9 -33,9l0 0zm2843 -42c0,-17 8,-17 8,-17 8,0 17,8 17,17l-9 0c-16,0 -16,8 -16,8l0 -8zm-387 0c0,-9 8,-17 17,-17l8 8 0 9 -8 0c-9,0 -17,8 -17,8l0 -8zm-2549 0c0,-17 9,-25 17,-25 8,0 17,8 17,16l-9 9c-16,8 -25,8 -25,8l0 -8zm2204 0c17,-17 25,-17 25,-17 9,0 17,8 17,17l-42 0zm-2313 -42c17,17 25,25 25,42 0,8 0,17 -8,25l-9 8c-8,0 -8,-8 -17,-42l0 -33 9 0zm3061 0c0,-17 -8,-17 -8,-25 0,-9 8,-9 17,-26 17,17 17,26 17,34l-9 0c-8,0 -8,0 -17,17zm-622 -42c34,8 59,25 59,50 0,9 0,25 -17,42 -8,-8 -17,-17 -25,-33 -17,-34 -17,-51 -17,-59l0 0zm252 0c0,-9 9,-17 9,-17 8,0 17,8 17,17 -26,8 -34,17 -34,17 0,0 8,-9 8,-17zm-2330 -51c17,17 9,0 34,25l17 17 0 25c-51,-8 -42,0 -51,-67l0 0zm-227 42c51,9 51,9 51,51 -42,-9 -42,-9 -42,-17 0,-8 0,-17 -9,-34l0 0zm110 34c-9,-17 -17,-25 -17,-34 0,-8 8,-8 33,-17l-16 51 0 0zm530 -42c9,-25 9,-25 26,-42l75 33 -25 9c-34,0 -42,8 -50,8 -9,0 -9,-8 -26,-8zm-354 -34c0,-8 9,-25 17,-25l0 25c0,17 0,17 -8,17l-9 -17zm-361 0l25 0 0 25c0,0 0,-8 -9,-8 0,0 -8,8 -16,8l0 -25zm2187 -25c0,-8 8,-17 8,-17l9 9c0,8 0,8 -9,8l-8 0c-9,0 -17,0 -17,8l8 9c9,0 9,-9 9,-17zm-1404 -34l33 9 0 42c-8,-9 -17,-9 -25,-9l-8 -42zm-708 34l126 -50c-16,58 -8,58 -67,67 0,0 -8,0 -8,8l-17 0c-25,0 -34,9 -34,9l0 -34zm2902 -25c9,0 17,0 17,-9l-8 -8 -9 17c0,17 -8,25 -8,25 -9,0 -9,-8 -17,-25l25 0zm-294 17l42 -17c25,33 17,25 50,42l59 -42c0,0 0,-9 9,-9 16,26 16,42 16,59 0,17 -8,34 -16,59l-51 -42 -8 8 8 9 -50 8 -59 0c0,-8 8,-8 8,-8l42 -42 -50 -25 0 0zm-429 0l-8 8c0,0 0,-8 8,-17l0 9zm-2019 -51c25,9 42,0 93,42l0 17c0,0 0,8 -9,8 -8,0 -25,-8 -42,-8 -25,-8 -34,-17 -34,-25l0 -9c0,-8 0,-16 -8,-25l0 0zm2633 -17l67 9 -8 67c-9,-8 -9,-17 -9,-17l-8 -8 -42 -51 0 0zm-1934 34c8,-17 8,-25 8,-34l0 -8 26 25c-9,9 -34,17 -34,17zm1774 -8c17,-34 42,-76 76,-85 25,17 17,17 25,51 -42,34 -42,25 -101,34zm-395 -59c34,25 59,33 76,33 16,0 33,-8 58,-16l118 -26c-8,9 -8,17 -8,17l-17 9c-34,25 -51,33 -59,33 -17,0 -25,-17 -42,-25 0,8 8,8 8,17 0,8 -8,25 -25,50 -59,-33 0,-33 -92,-42 -26,-8 -42,0 -42,-17 0,0 8,-16 25,-33l0 0zm656 0c0,-9 8,-9 8,-9 9,0 9,9 9,17l0 9c-17,0 -17,8 -17,16l0 -33zm-353 17l8 -9c0,17 0,25 -17,51l9 -42 0 0zm-2221 67c33,-67 50,-34 84,-101l0 25c0,51 -25,76 -84,76zm430 -93c0,-8 8,-17 8,-17 8,0 8,9 8,17 0,9 0,17 -8,17l-8 -17zm-497 42c-51,-25 -34,0 -42,-59l42 0c8,0 8,0 8,9 0,8 0,17 -8,50zm2834 -92c0,42 0,50 -8,50 -9,0 -17,0 -42,-8 8,-17 8,-25 8,-34 0,-8 0,-8 8,-8l34 0 0 0zm-782 42c9,-9 9,-9 9,-17 0,-8 0,-8 16,-8 34,-9 42,-17 51,-17 0,8 -9,8 -9,17l0 8c-25,25 -42,34 -50,34 -17,0 -17,-9 -17,-17zm-2305 -25c34,-9 51,-17 59,-17 17,0 17,17 42,42 -17,8 -8,8 -42,8 -50,0 -50,0 -50,-8l0 -9c0,-8 0,-8 -9,-16zm2423 -9l8 -8c0,-9 -8,-17 -8,-17 0,0 8,8 25,8l-25 17zm-2288 42c8,-42 8,-50 17,-50l59 0c-26,33 0,8 -34,33 -17,9 -34,17 -42,17l0 0zm2708 -25c17,-25 17,-34 17,-34l8 9c0,0 9,0 17,-9 34,-8 42,-16 51,-16 8,0 17,8 25,16l8 26 -42 8 -84 0zm-2498 -67c17,17 25,33 25,50 0,25 -25,51 -42,76 -17,-25 -17,8 -17,-59l0 -50c0,-9 9,0 34,-17zm514 17l8 0 -8 8 0 -8zm-413 -9l17 67c-42,-25 -34,-33 -59,-50l42 -17 0 0zm2372 0l34 0c0,9 -9,17 -17,17 -9,0 -9,-8 -17,-8l0 -9zm-319 -8l8 -17c8,0 8,8 8,17l0 8c-8,0 -16,0 -16,-8zm-1952 -9c25,17 33,17 33,17l9 0c8,0 8,0 17,25 -9,9 -17,9 -26,9 -8,0 -25,0 -42,-9 -67,-25 -50,-16 -58,-84l67 42 0 0zm-370 9c0,-17 8,-25 8,-25l9 25c0,8 -9,17 -9,17l-8 -17zm2952 -42c9,8 9,17 9,17 0,8 -9,8 -17,16l8 -33zm-2447 -9c-8,34 -16,42 -25,42 -8,0 -17,-8 -33,-16l58 -26 0 0zm-673 34l-9 -8 34 0 -17 8 -8 0zm580 -17c0,9 -9,17 -17,17 0,0 -8,-8 -8,-17 8,-17 16,-25 16,-25 0,0 9,17 9,25zm2313 25c17,-67 9,-58 76,-75 -9,17 -9,25 -9,25 0,0 -8,0 -25,17 -17,17 -17,25 -17,25 0,0 -8,0 -25,8l0 0zm-2043 -25c-50,-8 -50,-8 -50,-17l0 -8c0,-8 0,-17 -9,-25 59,17 42,-9 59,50l0 0zm1606 -50c-25,33 0,25 -42,42 -9,0 -25,8 -34,8 -8,0 -8,-8 -8,-8l0 -25c25,-17 33,-26 42,-26 8,0 25,9 42,9zm-2280 -42c17,17 9,0 17,25l25 84c-33,-8 -59,-25 -59,-59 0,-8 9,-25 17,-50l0 0zm2801 -17c9,8 17,17 17,25 0,9 -8,9 -25,17 -42,0 0,-17 -76,-25l-17 59 -42 -42 -17 75 -33 -42c-17,17 -34,25 -42,25 -9,0 -17,-8 -51,-25l0 -33c0,0 9,-9 34,-9 17,0 50,9 109,9 17,-26 59,-59 93,-59 25,0 42,8 50,25l0 0zm-2515 67c9,-8 0,-33 42,-33 25,0 51,8 93,16 -34,26 -59,34 -84,34 -17,0 -34,-8 -51,-17l0 0zm371 -42l9 9 -9 -9zm-489 -42c0,8 0,25 -8,51 0,25 -8,25 -17,25l-25 0c-8,0 -8,0 -8,-17l0 -25c8,-26 16,-34 16,-34l42 0 0 0zm271 -168c109,-9 50,-17 227,-67 -9,16 -17,25 -26,25 -8,0 -8,-9 -16,-9 -9,0 -17,17 -34,76l-76 -8c9,42 25,8 51,59 -9,0 -9,8 -9,8l-59 34c85,33 59,0 76,50l-17 8 0 -8 -42 0c-25,0 -8,8 -25,17 42,50 42,8 50,59l-25 0c-59,0 -33,-25 -110,-42 8,-9 8,-17 8,-26l9 9 8 -9c10,0 18,-8 18,-8 8,0 8,8 17,8l17 -16c8,-9 8,-9 8,-26 -42,17 -50,26 -50,26 -10,0 -10,-9 -27,-42l17 0 52 -17 -42 -101 0 0zm1790 134c26,17 42,17 42,51l0 25 -42 -76zm-1614 34l0 -8 25 0c0,8 -8,8 -16,8l-9 0zm1825 -76c16,17 25,26 25,34 0,8 0,17 -25,34l42 42c-51,25 -68,8 -68,67 127,34 118,-25 160,101l-160 -17 -67 -84c0,-8 9,-17 9,-17 0,0 8,-8 8,-25 0,-8 0,-17 -8,-25l8 0 42 -17c-34,-34 -34,-17 -42,-67l76 -26 0 0zm-1774 51c0,0 8,0 8,-9l-8 9zm1900 42c-34,-9 -59,-9 -59,-42l0 -17c0,-25 8,-25 17,-25 8,0 25,0 50,8l0 42c0,9 0,17 -8,34zm-2490 17c-8,-17 -8,8 -8,-34l0 -34c0,-33 16,-42 25,-42l8 0 -8 76 0 8 -17 26 0 0zm-143 -68c0,-25 59,-25 93,-25 -17,25 0,17 -34,34 -17,8 -34,17 -42,17 -17,0 -9,-17 -17,-26l0 0zm261 -33l-17 -9 0 -8c0,0 0,-8 -9,-17 26,-17 34,-25 51,-25 17,0 17,25 25,50 0,0 0,17 -17,17 -8,0 -17,0 -33,-8l0 0zm59 75c16,-67 16,-84 42,-84 16,0 33,0 58,9 -8,-34 -16,-51 -16,-59 0,-8 8,-8 33,-8 9,16 9,25 9,42 0,25 -17,16 -17,42 0,8 0,16 8,42 0,0 -8,-9 -25,-9 -8,0 -25,9 -50,25 -17,17 -17,26 -17,34l0 17c0,8 -9,17 -51,42 -25,17 -33,17 -42,17l-8 0c0,0 -9,8 -34,17 -33,16 -33,25 -33,33 0,9 0,17 -34,34 -8,-17 -8,-25 -8,-34 0,-25 42,-33 75,-67 51,-42 51,-67 51,-76l0 -8c0,-9 0,-9 59,-9l0 0zm2128 -185l17 34 0 9 -17 -9 0 -34zm-2322 59c-25,-8 -17,0 -33,-16 25,8 16,0 33,16zm2877 -33l-17 -9 0 -17c0,0 8,0 8,-8l0 -8 9 42zm-2616 -26c-9,26 -9,43 -17,43 -8,0 -17,-9 -59,-17l17 -17 -8 -9c0,0 8,0 42,-8l25 0 0 8 0 0zm2523 9c-75,-9 -42,8 -59,-42 26,8 42,8 42,8l9 0c0,9 8,17 8,34l0 0zm-370 -17c42,-50 59,-42 59,-59 0,-8 0,-25 -17,-50l26 33c-9,34 -9,0 -26,51 9,17 17,33 34,50l17 -42c42,51 33,59 75,76 17,-17 17,-34 17,-42 0,-17 -17,-25 -17,-34 0,0 9,-17 34,-33 8,16 8,33 8,59 0,33 0,58 -8,75l-34 34c76,0 59,0 68,-84l33 0 0 8 17 9 42 8c-8,59 -17,76 -33,109 -26,-8 -42,-17 -59,-17 -26,0 -59,17 -118,42 0,-8 34,-92 34,-92 0,-8 8,-17 8,-17 0,-8 -8,-8 -25,-17l-9 0c0,0 0,9 -16,9l-26 0c-16,0 -8,-9 -84,-76l0 0zm261 101l8 0c9,0 17,8 17,8l-8 -50 -17 42 0 0zm-2532 -126c0,25 0,33 -8,33l-9 0c0,0 -8,0 -17,9 0,-34 -8,-51 -8,-67 0,-9 8,-9 17,-17 8,8 33,0 33,25l-8 17 0 0zm-118 8l0 -8 26 8 16 0c0,9 -8,17 -16,17l-26 -17zm185 -84c-8,-8 -25,-17 -42,-33 -25,-17 -25,-9 -33,-42 75,8 8,8 75,58 68,42 42,-8 59,84 42,-33 67,-33 93,-67l68 34c-17,8 -25,8 -34,8l-16 0c-10,0 -10,9 -60,84 -42,-25 -34,-17 -59,-59l-76 17c0,-50 -8,-59 -8,-59l8 9c0,0 9,-9 25,-34l0 0zm-151 25l-8 9 8 -9zm2313 -50c9,8 17,8 34,8l-25 26c-9,-9 -17,-9 -17,-9 0,0 8,-8 8,-25zm-1824 42l0 -17 17 9 16 0c0,0 -8,8 -25,8l-8 0zm2068 -34c67,-33 42,-8 76,-50 17,8 25,8 42,17 17,0 33,8 42,8 8,0 17,-8 25,-8 0,8 -8,17 -17,42 -17,0 -50,-17 -67,-17 -25,0 -34,-8 -34,-8l-8 8c0,8 0,17 -8,34l67 25c-17,17 -25,25 -34,25 -17,0 -33,-17 -84,-34 -42,-16 -34,0 -76,-25l17 -50 51 25c0,0 8,0 8,8l0 0zm-2203 -8c-25,-17 -33,-8 -33,-8l0 -9c0,0 0,-8 -10,-25 43,17 26,-8 43,42zm-144 0c-8,-17 -8,-25 -8,-34 0,-8 8,-8 25,-33 50,0 42,0 50,67l-67 0 0 0zm228 -25c0,-25 25,-25 68,-34 -9,34 -9,51 -26,51 -8,0 -25,-9 -42,-17l0 0zm2027 -51c16,17 25,9 25,17 0,0 0,9 -17,25 -8,-8 -17,-16 -17,-25 0,0 9,-8 9,-17zm117 0c9,17 17,26 17,26 0,8 -17,0 -42,16l25 -42zm-2405 -8l0 17c8,0 8,8 8,8l0 9c-8,0 -8,0 -17,-17l9 -17zm2557 25c0,-8 8,-8 8,-8l-8 8zm-370 -34c0,-8 8,-8 8,-8l17 8 8 0c9,0 9,0 9,9 0,0 -9,8 -17,8 0,0 -8,0 -17,-8l-8 -9zm-2070 0c0,-25 17,-16 52,-25l0 34 -9 0c-8,0 -16,0 -43,8l0 -17zm2347 0l-8 -16c-9,-17 -9,-26 -9,-34 0,0 9,8 17,8 9,0 9,9 9,9l0 -9c8,0 8,9 8,51l-17 -9 0 0zm143 -33l25 0c0,0 -17,8 -25,8l0 -8zm-2675 -25c0,8 0,16 -25,42 -8,-9 -8,-17 -8,-26 0,-8 16,-8 16,-16l17 0zm270 -26l9 17c0,9 -9,0 -17,17l8 -34zm2111 -25l33 0c17,-8 26,-8 51,-8l0 59c-34,-9 -51,-17 -67,-17l-17 0c0,0 -9,0 -34,-17l34 -17 0 0zm-1783 2566c-42,-42 -50,-227 -50,-488 0,-504 50,-1271 50,-1674 0,-68 0,-135 -8,-177 -17,-151 -76,-185 -177,-235 -117,-67 -253,-152 -387,-152 -34,0 -68,9 -101,17 -84,17 -135,160 -177,236l-42 84c-92,159 -252,588 -277,630l-513 1456c-34,92 -34,168 -76,244 -59,126 -126,387 -185,538 -25,76 -42,160 -42,235 0,101 34,202 126,261 84,59 143,118 261,151 33,17 75,34 117,34 9,0 26,-8 34,-8 42,-17 42,-26 42,-26l0 -25c51,-118 76,-277 109,-412 110,-437 244,-849 370,-1278l421 -1220 42 59c25,-9 42,-9 59,-9 26,0 51,0 68,17 -8,17 -8,17 -17,17l-68 0 -59 8c8,51 25,101 25,152l-8 33 -17 497 0 68c0,269 -25,571 -25,857 0,143 8,278 25,404 17,101 0,92 67,160 52,42 186,134 270,159 26,9 42,9 59,9 84,0 152,-76 219,-143 202,-227 530,-740 681,-1017 143,-253 378,-614 496,-842l50 -101 51 -76 34 -59 0 -8 -17 -9 -9 0 -8 -8 0 -67c34,8 34,17 50,17 9,0 26,-9 59,-42 -17,84 -33,143 -67,218 -17,42 -17,76 -25,126l-76 178c-25,59 0,17 -34,118 -16,67 -50,143 -67,210 -17,50 -25,59 -42,109l-34 109c-75,219 -109,463 -185,681 -50,143 -67,312 -100,446 -26,101 -42,244 -42,370 0,50 0,93 8,135 50,235 50,243 202,361 92,76 202,109 328,109 50,0 101,-8 151,-16 34,-59 42,-110 42,-169 0,-58 -8,-117 -8,-210 0,-59 0,-126 8,-210 59,-589 219,-1177 353,-1749 84,-370 210,-732 303,-1094 33,-118 67,-227 67,-319 0,-76 -25,-143 -92,-211 -68,-50 -126,-92 -219,-134 -118,-59 -143,-59 -286,-67l-286 403c-42,109 -143,227 -210,345 -17,34 -42,59 -59,92 -42,76 -143,278 -210,345l-118 168c-75,111 -50,119 -151,262l-93 177c-50,100 -92,117 -159,269 -34,67 -76,84 -110,159l-218 362c-101,143 -42,59 -93,160l0 0z"/>
   <path class="fil0" d="M5450 3415c0,-17 9,-26 17,-26 0,0 9,0 9,9 0,0 0,8 -9,8 -8,9 -8,26 -17,26l0 -17zm59 -9c0,-8 9,-8 9,-8 8,0 8,0 8,8l-17 0zm-176 -168l8 9 9 0 0 33c0,-8 0,-8 -9,-8l-8 -9c-9,-25 -9,-33 -9,-33l9 25 0 -17zm17 -59l67 34c0,0 0,17 -17,17 -8,0 -17,0 -34,-9 -16,-8 -16,-8 -16,-17l0 -25 0 0zm92 17c0,-8 8,-17 8,-17 9,0 17,9 17,17 0,8 -8,17 -8,17 -9,0 -9,-9 -17,-17zm-1069 -25c0,-9 9,-9 9,-9 0,9 0,17 -9,17l-8 0 8 -8zm109 -9c9,0 17,-8 17,-8l17 0c0,8 0,8 9,17 -17,8 -26,8 -26,8l-17 -17zm977 -92c0,0 0,-8 8,-8 0,0 9,8 9,16l0 9 -17 0 0 -17zm-1035 76c0,-9 -17,0 -17,-17l8 -17 -8 -8 42 0 -17 33c0,0 -8,0 -8,9zm210 -76l0 -8c0,-9 0,-17 17,-17 8,0 25,8 59,42l-76 -17zm-294 8c0,-8 16,-16 16,-16l9 0 -25 25 0 -9zm1010 -92l8 0c17,0 25,8 25,8l-17 0 -16 9c-9,0 -9,0 -9,-9l9 -8zm176 -17c0,-8 0,-8 9,-8l8 8 0 8 -17 -8zm-842 17c0,25 0,25 -50,25 25,-17 33,-34 50,-59l0 34 0 0zm-109 17l8 8 -8 9 0 -17zm-50 75l-76 9 17 -42 16 0c9,0 17,0 26,-9 -9,-50 -17,-59 -26,-59 -8,0 -16,9 -16,9l0 -9c0,0 0,-16 8,-42 -42,17 -25,17 -59,34l-33 -67 117 8c0,-67 -25,-59 -25,-75 0,-9 0,-17 17,-43 25,17 34,34 59,59 50,-25 25,-25 75,-33 -16,84 -67,67 -126,84 -8,17 -8,33 -8,50 0,17 17,34 50,59l-16 67 0 0zm791 -134l17 8 -25 0c0,9 8,9 8,9l0 -17zm-598 84c8,-34 17,-42 17,-51 0,0 -9,-8 -17,-25 8,-8 8,-17 17,-17 8,0 17,34 25,68l-42 25zm-345 -51l59 17c-34,51 -17,17 -59,42l0 -59 0 0zm1103 -67l-9 -8 9 8zm-126 0c33,-8 42,-17 50,-17l0 17c0,9 0,17 8,25 -25,0 -42,9 -42,9 -8,0 -8,-9 -16,-34l0 0zm-1044 51l8 -9 9 17c0,8 0,0 -9,17l-8 -25zm437 -42c0,-9 9,-17 17,-17l0 17c0,16 -8,25 -8,25 -9,0 -9,-9 -9,-25zm-218 50c0,-8 8,-17 8,-17 0,-8 -8,-17 -8,-17 0,0 8,0 33,-8 9,-8 42,-8 59,-17 -25,51 -25,51 -92,59l0 0zm142 -67c0,-17 9,-25 9,-25 8,0 8,8 8,8l0 8c0,17 -8,26 -8,26 -9,0 -9,-9 -9,-17zm842 -93c-8,17 -8,26 -17,26 0,0 -8,-9 -25,-9l42 -17zm-134 59c0,-67 17,-59 33,-76 0,0 17,0 17,17 0,9 -8,17 -17,34 -8,17 -16,8 -33,25l0 0zm-1044 -8c9,-9 17,-9 17,-9 8,0 17,9 25,17 -17,17 -17,25 -25,25 0,0 0,-16 -17,-33zm1136 -93l17 -17 8 0c0,9 -8,9 -8,17 -8,0 -17,9 -17,9l0 -9zm101 -42c-17,42 0,25 -33,42l0 -33c0,0 8,0 33,-9zm-1153 51c17,8 34,0 34,16 0,9 0,17 -9,26 0,17 -8,17 -16,17l-34 0c0,-9 0,-17 8,-34l0 -17c9,0 9,0 17,-8zm506 0l8 -9 0 9 -8 8 0 -8zm-228 33c-34,-8 -42,-17 -42,-25 0,-8 8,-25 25,-42l17 67 0 0zm-421 26c26,-34 17,-17 59,-42l0 16c0,9 0,9 -25,26 -17,8 -17,8 -25,8l-9 -8 0 0zm1229 -143l-9 -9c0,-8 0,-8 9,-8l17 8 8 0 -17 9 -8 0zm-1304 75c0,0 8,-8 8,-17 0,0 -8,-8 -8,-16 42,16 25,0 50,33l-50 0zm1354 -126c0,0 9,17 17,17 9,0 9,8 9,17 0,8 -9,17 -17,17 0,0 -9,-9 -9,-26l0 -25zm-934 59l17 17c0,8 0,8 -9,8 0,0 -8,0 -8,-8l0 -17zm59 -8c8,0 8,8 8,8 0,0 0,8 -8,8 -9,0 -17,-8 -17,-16l17 0zm-387 8c0,8 9,17 9,25 0,17 -9,25 -43,34l34 -59 0 0zm1103 -160c0,93 33,76 84,110l8 67c-8,0 -8,0 -8,8l-26 17c-25,17 -8,8 -42,17l0 -25c0,-26 9,-17 51,-34l-42 -42c0,-8 -9,-25 -17,-34 -118,34 0,59 -135,76 26,-50 17,-50 76,-76l9 0c0,0 8,0 8,-8l8 0c-16,-17 -25,-17 -42,-17l-59 0c17,-67 9,-25 127,-59l0 0zm-1044 160c8,-17 8,-25 8,-34l9 0c0,0 8,0 25,-8 0,8 -8,17 -8,25 0,9 0,9 -34,17zm1203 -101l0 17 -101 -17c17,-42 26,-34 59,-67l26 50 16 17zm-984 -34c42,17 16,-8 33,34l-25 0 0 -8c0,0 0,-9 -8,-26zm867 -50l16 17 0 17c0,0 -8,-9 -16,-26l0 -8zm218 -34l17 17 0 17c-8,0 -17,-8 -17,-17l0 -17zm-67 -8c17,8 25,8 34,8l8 0 8 34 -58 17 8 -59 0 0zm-286 34l9 -9 42 0 -9 9 9 8c-9,0 -9,8 -9,8l-17 0 -16 -8 -9 -8zm76 25c-9,-17 -9,-25 -9,-34l17 -17c9,9 9,17 9,17 0,9 0,9 -17,34zm-657 33c-42,-8 -34,-8 -51,-33l17 -17c34,25 26,8 34,50l0 0zm774 -75c0,-34 9,-42 9,-42 8,0 8,17 17,25l-26 17zm-900 -320c-42,-42 -42,0 -67,-84 67,25 33,59 151,76l34 -67c143,25 93,67 143,117l17 17 0 -8 9 17c-17,16 -9,16 -42,16 -51,-50 0,-25 -69,-84 -8,-8 -8,-8 -8,-17 0,-8 8,-8 8,-8 0,0 -8,0 -33,-8 -9,25 -17,33 -17,42 0,8 8,8 25,33l9 17 8 25c-67,26 -34,9 -76,68 -25,42 -33,42 -101,50l68 34 8 8 -25 34 0 17c-51,-17 -59,-17 -59,-26 0,-8 8,-8 8,-16 0,0 -8,-9 -25,-17 0,8 9,17 9,17 16,42 25,58 25,75 0,9 -9,17 -17,25l-93 85c43,50 76,33 118,50 -8,67 -17,17 -33,59l0 8c0,25 16,25 16,25 0,9 -8,17 -33,34 -93,0 -126,0 -135,-92 9,0 51,16 51,25l16 0c9,0 9,0 17,-9l9 0c-17,-42 8,-8 -34,-50 -17,-17 -25,-17 -42,-17 -8,0 -25,0 -42,-8l-34 -34 93 -8c17,-101 -17,-84 109,-101 -17,-67 -42,-51 -42,-76 0,-8 9,-25 17,-59 -34,9 -51,9 -59,9 8,-42 25,-34 59,-59l8 42c0,8 9,17 9,17l0 8 17 -17c25,-25 25,-33 25,-33l0 -68 -9 9c0,0 -8,0 -8,-9 0,0 0,-8 -8,-8 0,-8 -9,-8 -9,-17 0,-8 9,-17 34,-59l0 0zm92 110c9,-26 17,-34 17,-68l0 -8c0,-8 0,-8 -8,-8l-17 25c-25,-25 -25,-34 -34,-34 0,0 -8,9 -25,9l0 25c0,33 34,50 67,59l0 0zm775 143l8 -17c9,0 9,0 25,-9 34,-16 43,-25 51,-25 8,0 8,0 8,9l0 8 -92 34zm-741 -9l-8 17c-9,25 -9,17 -26,34 9,-59 0,-42 34,-68l0 17 0 0zm867 -50l8 -9 0 -8c9,0 17,0 26,8 0,9 -9,9 -9,9 0,8 9,8 9,8l-17 0c-17,0 -17,9 -17,9l8 -9c0,0 0,-8 -8,-8zm92 -42c0,0 0,16 9,16 8,0 17,9 17,9 0,8 -9,8 -17,8 0,0 -9,0 -9,-17l0 -16zm-1245 159l-34 -75c42,0 76,17 101,59l-67 16zm1128 -168l-9 34 -8 -9 -8 0 25 -25zm-143 42c0,0 8,0 8,-8l-8 8zm-665 17c-26,0 -17,-8 -26,-50 26,16 34,25 52,50l-26 0zm152 -92l8 0c9,0 9,8 9,8 0,8 -9,17 -9,17 -8,0 -8,-9 -8,-17l0 -8zm-93 25l-8 0 -25 -17c0,-17 17,-17 25,-17 17,0 34,9 42,17l-34 17zm-278 -9c-8,-16 -8,9 -25,-42l0 -16 17 0 8 25 0 33zm0 -126c8,0 8,9 17,26l0 8c0,0 0,8 -9,8 0,0 -8,-8 -8,-25l0 -17zm354 9c0,-51 9,-42 59,-59 -17,50 -17,42 -59,59zm109 -68l17 -8c0,0 9,0 9,8 0,9 -17,26 -34,26l-8 -9 16 -17zm68 -75l0 -9c8,0 17,9 17,9l0 17 -17 -17zm-397 -17c9,8 17,8 17,8 9,0 9,-8 17,-8 0,8 -8,17 -8,50 -9,-8 -17,-8 -17,-8l-9 -42 0 0zm111 -8c25,50 8,16 67,50l17 8c-25,17 0,17 -51,26 -16,0 -25,-9 -43,-9l10 -75zm202 -34c0,-8 0,-8 8,-8l25 0c-8,50 0,25 -33,42l0 -34zm-110 -118l0 -8c26,8 101,33 126,67l-50 17 0 -17c-25,-8 -50,-34 -50,-34 -9,-8 -9,-8 -17,-8 -9,25 -17,42 -17,59 0,59 50,76 109,101 -17,17 -17,17 -25,17l-25 0c-25,0 -34,0 -68,8l0 -50c-8,-26 -8,-34 -8,-34l0 8c-8,0 -8,0 -17,-8l-50 0 8 -76c25,0 34,9 42,9 0,0 0,-9 25,-17l17 -34 0 0zm-135 143c-17,-8 -34,-8 -34,-17 0,-8 0,-16 9,-33 8,-26 16,-26 25,-26l8 0 -8 76 0 0zm413 -101c0,-17 8,-17 17,-17 16,0 33,0 42,9 -26,33 0,8 -34,33l-25 -25zm-118 -33c8,0 8,8 17,8 8,0 8,0 8,8 0,9 -8,17 -17,17 0,0 -8,-8 -8,-25l0 -8zm235 16c-16,0 -25,0 -25,-16 0,-9 9,-17 9,-34l25 0c8,0 8,8 17,50l-26 0 0 0zm-159 -16l25 0 -8 8 -17 -8zm75 -76l-8 59c-50,-9 -34,0 -50,-42l58 -17 0 0zm-218 67l0 -17c0,-8 -9,-16 -9,-16 0,-9 9,-9 42,-17l26 -9c16,0 16,9 16,17l-75 42 0 0zm361 -126c9,0 17,0 17,25l0 17c0,17 -8,9 -33,17 -9,-17 -17,-25 -17,-34 0,0 0,-8 8,-25l25 0zm-302 25c0,0 8,9 16,9l0 8c0,0 -8,0 -16,-8l0 -9zm-76 26c-17,8 -25,16 -34,16 0,0 0,-8 -8,-42l25 0c9,0 0,0 17,26zm277 -9c0,-17 0,-17 9,-42 0,-17 8,-17 17,-25 8,17 8,34 8,50 0,17 -8,17 -17,17l-17 0 0 0zm-109 -8c-33,0 -50,-9 -50,-17 0,-8 17,-25 25,-42 25,25 25,25 25,59l0 0zm269 -42l0 -9 -8 9 8 0zm-210 8c-25,-17 -17,0 -25,-25l25 0 0 25zm235 -42c0,-17 9,-8 34,-17l0 9c0,8 8,16 8,16 0,0 -8,0 -42,9l0 -17zm-412 8c0,-16 9,-16 17,-33l25 17c-8,33 -8,25 -42,42l0 -26zm143 -42c-8,26 -16,34 -16,34 -9,0 -9,-17 -17,-25l33 -9zm505 -33c-42,-17 -25,0 -34,-43 9,0 17,8 17,8 8,0 8,-8 8,-8 0,0 0,8 9,43zm-336 8c-9,-8 -17,-17 -17,-25 0,-9 17,-9 17,-9l25 0c17,0 17,9 17,43l-17 0c-9,0 -9,0 -25,-9zm-59 -34l-9 9 9 8 25 0c0,9 -9,26 -17,26 -8,0 -8,-9 -8,-17l0 -26zm-168 -17l-9 8c0,9 9,9 9,9l8 0 0 17 -8 -34zm168 1111c0,50 -51,243 -51,437 0,185 42,370 210,454 51,25 93,42 135,42 59,0 109,-34 160,-84 0,-126 -42,-67 -51,-252l0 -17c0,-160 118,-496 152,-631 25,-92 67,-218 67,-319 0,-110 -42,-194 -194,-219 -25,-8 -42,-8 -58,-8 -42,0 -59,16 -101,50 -68,42 -34,0 -126,84 -34,34 -68,59 -101,101l-404 437c-17,34 -59,84 -84,84 -8,0 -8,-8 -17,-8 -18,-8 -34,-25 -34,-42 0,-160 396,-648 421,-673 84,-92 193,-202 353,-252 59,-17 109,-25 143,-25 193,0 202,185 219,227l16 0c110,0 169,-84 169,-194 0,-151 -118,-354 -370,-421 -68,-17 -143,-25 -210,-25 -152,0 -295,42 -429,92 -253,94 -523,304 -666,506l-143 252c-58,109 -151,412 -151,580l0 17c17,244 151,429 311,496 42,17 84,25 118,25 109,0 185,-67 227,-109 178,-135 194,-193 321,-370 67,-84 100,-160 168,-235l0 0z"/>
   <path class="fil0" d="M6897 3221c-9,-8 -9,-17 -9,-25l9 0c8,0 25,8 25,8l25 -8 0 8c0,0 -17,17 -34,17l-16 0zm193 -67c0,-17 8,-25 17,-25 0,0 8,8 17,33l8 17c0,9 -8,17 -8,17 -17,0 -34,-25 -34,-42zm-261 17l-8 8 8 -8zm51 -17l0 -34c0,-33 17,-25 67,-33l-67 67 0 0zm134 -84l-8 17 8 -17zm-252 -34c0,-8 -8,-16 -8,-16l-9 8c0,8 9,17 26,17l8 0c17,0 17,8 17,8 0,17 -9,25 -25,25 -9,0 -17,-8 -17,-25l8 -17zm378 -59l9 26c8,8 17,17 17,25 0,8 -9,17 -9,17 -8,0 -17,-17 -17,-51l0 -17 0 0zm-193 17c-8,-17 -8,-17 -8,-25 0,-8 0,-8 8,-8 8,0 34,16 34,16l33 0c0,9 -16,26 -42,26 -8,0 -17,0 -25,-9zm-261 -25c9,-25 17,-42 17,-42 9,0 17,17 17,42 0,17 -8,25 -17,25 -8,0 -17,0 -17,-17l0 -8zm-285 -67c58,0 58,0 92,8 -34,25 -67,42 -109,42 -25,0 -59,-8 -93,-17l110 -33zm185 -42l33 92c-42,-17 -59,9 -84,-42l0 -25c0,-25 17,-25 34,-25l17 0 0 0zm201 117c-42,-109 -59,-126 -75,-126 -9,0 -17,9 -17,9 -9,0 -17,-9 -34,-51 9,-8 17,-8 25,-8 9,0 17,8 34,8 51,17 93,42 93,110l8 25c0,25 -17,8 -34,33l0 0zm177 -201c17,-59 -9,-34 42,-68 8,9 8,26 8,26 0,25 -8,25 -25,25l-34 0c0,0 17,8 68,42l-84 25c42,-25 50,-34 50,-34l0 -8c-8,0 -8,8 -8,8l-17 -8 0 -8 0 0zm-605 -101c92,42 42,17 117,84l-59 92c-33,-16 -33,-25 -50,-50l84 -9 -92 -117 0 0zm773 117c-25,9 -42,17 -59,17l-8 -8 0 -17c42,-17 67,-25 67,-25l8 0c0,8 -8,17 -8,25l0 8zm-261 -117c-8,134 17,75 -67,109l-25 -25c84,-34 17,-25 92,-84zm-555 67c17,0 26,8 26,8 0,9 0,9 -9,9 -8,0 -17,0 -33,-17l16 0zm581 -84c0,0 -9,8 -9,17 0,17 9,25 25,25 9,0 9,0 9,8 0,9 -9,17 -17,17 0,0 -8,0 -8,-17l0 -50 0 0zm-219 -50c42,16 59,25 59,25 0,0 -9,-9 -9,-25l0 -17 76 17c-92,151 -76,50 -151,168 -34,-42 -34,-42 -34,-51l-42 -17c-33,42 -33,51 -33,59l-51 25c17,-58 25,-109 25,-184l135 100c25,-25 33,-42 33,-50 0,-25 -33,-34 -33,-42 0,0 8,0 25,-8l0 0zm-235 75c0,-8 8,-8 16,-8l-16 8zm538 0l0 -75c0,0 8,8 25,8 8,0 17,-8 25,-8l-50 75 0 0zm-76 -84c0,9 -8,9 -25,9 -9,0 -25,0 -42,-9l101 -42 8 34c0,0 -8,0 -42,8l0 0zm-34 -84c26,8 34,17 34,25 0,0 -8,9 -25,9 -9,0 -25,-9 -25,-17 0,0 8,-9 8,-17l8 0zm-546 17c42,0 50,8 59,8 8,0 17,-8 42,-59 0,34 8,34 8,42 0,0 -8,0 -25,42 -34,-8 -50,-8 -59,-8l-8 0c-9,0 -17,-8 -51,-25l34 0 0 0zm723 -67c0,0 8,25 17,25l8 0c17,0 17,8 17,17 0,8 -8,16 -17,16 -17,0 -25,-8 -25,-33l0 -25zm-294 84c17,-76 8,-42 50,-76 0,59 0,76 -8,76 0,0 0,-9 -17,-9 0,0 -8,0 -25,9l0 0zm487 -93l-8 0c0,0 -17,9 -42,17 17,-67 -8,-34 50,-84l0 67 0 0zm-630 -109l-25 0c-9,0 -9,0 -9,8 0,9 9,26 9,68 50,-26 75,-34 109,-51 42,-17 42,-17 50,-25l68 76c-143,33 -101,84 -185,142l-34 -42c-51,-75 -59,-75 -59,-92l0 -76 76 -8 0 0zm-9 176c51,0 68,9 68,9l0 -17c0,-8 0,-17 8,-34 8,-16 17,-25 17,-33 0,-25 -34,-34 -42,-42 -42,59 -34,59 -51,117l0 0zm-235 -193c42,-17 92,-42 126,-59l0 76 -50 0 -76 -17 0 0zm168 -42c17,-17 17,-25 17,-25l-17 25zm942 -92c0,8 0,25 17,25 8,0 16,8 16,8 0,9 -8,17 -16,17 -9,0 -17,0 -17,-25l0 -25zm-1110 58c-8,-8 -8,-16 -8,-25 8,0 33,17 33,17 17,-8 25,-8 34,-8 0,8 -17,25 -34,25 -8,0 -17,0 -25,-9zm429 -134c0,-9 17,-25 25,-25 8,0 8,8 8,25 0,17 -8,25 -16,25 -9,0 -17,-8 -17,-25zm-219 50c9,0 17,-8 17,-8l109 -84c34,-34 42,-59 42,-67l-8 -17c0,-9 17,-9 92,-25l26 50c-34,25 -42,25 -68,25l-50 0c8,34 8,51 8,67 0,42 -17,9 -42,143 -33,-33 -84,-58 -126,-84l0 0zm1001 -143l-51 0 -8 -25 59 25zm-925 -58c33,42 42,67 42,75l-9 9c-8,0 -16,-9 -25,-9 0,0 -8,0 -17,9l9 -84zm8 -43l-8 -8 50 0c0,0 -17,8 -33,8l-9 0 0 0zm-126 -8c34,-50 0,-25 42,-67 51,-51 84,-67 109,-67 42,0 51,58 51,58l-202 76zm1169 -67c0,-9 -9,-9 -9,-9 -8,0 -8,9 -16,9 0,0 -9,-17 -34,-59 25,8 34,8 42,8l8 0c9,0 9,0 9,9l0 42 0 0zm-782 487c67,-201 420,-689 597,-689 17,0 33,0 42,17 17,8 25,25 25,50 0,168 -361,572 -664,622l0 0zm50 -630l-17 25 -8 -17c17,-25 25,-33 25,-33l0 25zm-328 17c0,-59 42,-76 101,-76 26,0 51,0 68,8l-110 59c-25,9 -50,34 -59,34l0 -25zm463 -76l0 -34c0,-8 0,-8 8,-8 9,0 34,34 34,34l17 16 -17 -8 -42 0zm-236 -295c51,42 68,59 76,151 -84,-42 -109,-67 -118,-67 0,8 42,50 42,151 0,-8 -8,-17 -16,-17l-110 -75c-8,0 -8,8 -8,16 0,9 8,34 8,51l-8 25 -17 -17 0 17 -25 -50 0 -26c0,-16 25,-16 25,-75l-8 -34c42,42 0,25 75,34l84 -84 0 0zm-311 185l26 8 25 0c0,8 -17,17 -25,17 -9,0 -17,0 -26,-9l0 -16zm488 -110l0 42c0,17 0,0 -50,26l50 -68 0 0zm-25 -185c-17,68 0,59 -84,68l84 -68zm-152 34l9 17 -9 -17zm51 -67c-9,-9 -9,-17 -9,-25l9 0c17,0 33,8 33,8 17,0 17,-8 26,-8 8,0 17,8 17,8 0,17 -26,34 -43,34 -8,0 -16,-9 -33,-17zm-151 -76c33,8 42,8 50,8 17,0 0,0 25,68 -33,-17 -25,-9 -50,-34 -25,-25 -9,-17 -25,-42l0 0zm269 42l8 9 -8 -9zm-160 -34c25,-33 33,-50 42,-50 17,0 25,17 50,42 -17,8 -25,17 -42,17 -8,0 -25,-9 -50,-9l0 0zm67 -92l-17 -8 17 8zm-143 -76c0,-8 9,-25 17,-25 8,0 8,9 8,34 9,17 9,25 9,33l0 9c-9,0 -34,-34 -34,-51l0 0zm177 -101c-42,68 0,26 -76,59 25,-42 17,-50 25,-50l17 0c8,0 17,0 34,-9l0 0zm159 0c-8,17 -16,26 -25,26 0,-9 9,-17 17,-34l34 -17 -26 25zm-142 -16c0,-9 16,-9 25,-9l17 0c16,0 16,-8 25,-8l0 8c0,9 -17,25 -34,25 -8,0 -17,-8 -25,-8l-8 -8zm-118 -34c0,8 8,17 8,17l-8 -17zm50 -34c0,-16 9,-25 9,-25 8,0 16,17 16,25l0 26c-8,0 -25,-17 -25,-26zm0 -92c0,8 -17,25 -25,25l0 -17 25 -33 0 25zm101 50c-17,-33 -33,-50 -33,-67 0,-8 25,-17 58,-42 9,8 17,0 17,25l-8 34c0,42 0,42 -9,42 -8,0 -16,0 -25,8l0 0zm160 -185c0,-8 8,-16 8,-16 9,0 17,8 26,33l8 9c0,16 -8,25 -17,25 -8,0 -17,-17 -25,-42l0 -9zm-303 17l17 9 17 0 -9 8c0,0 -8,-8 -25,-17zm202 -160l8 26c9,0 17,8 17,8 0,8 -8,17 -17,17 0,0 -8,-9 -16,-34l8 -17zm-8 1169c8,-92 285,-689 328,-790 42,-101 67,-177 67,-244 0,-286 -303,-336 -387,-336l-17 0c-59,8 -118,33 -160,75 -58,51 -67,101 -100,168l-152 387c-109,252 -202,488 -294,792 -76,227 -395,1505 -395,2051 0,93 8,160 25,202 42,76 151,118 252,118 51,0 101,-9 135,-34 109,-59 126,-261 151,-412 17,-118 34,-362 109,-454 84,303 261,420 471,420 311,0 681,-252 909,-555l253 -336c25,-33 33,-59 33,-84 0,-34 -25,-50 -59,-50 -33,0 -75,25 -126,67l-421 387c0,0 -101,101 -261,126 -17,8 -33,8 -59,8 -117,0 -168,-92 -176,-235l496 -387c92,-92 329,-345 346,-538l8 -34c0,-244 -186,-438 -379,-497 -59,-17 -110,-25 -160,-25 -210,0 -320,151 -437,210l0 0zm-379 615l9 -17 -9 9 0 8zm1590 1127l-8 -9 8 9zm101 -227c9,0 9,-9 17,-9 17,0 34,17 34,25l0 9c0,0 -9,0 -25,-9 0,0 -17,9 -26,9l-8 0c0,-9 0,-17 8,-25zm-109 -68c50,34 34,9 50,68l-50 -68zm143 9l8 -9 -8 9zm-269 -143l-9 8 0 -8 9 0zm218 -84l17 -17c9,0 9,8 9,34 0,16 0,25 -9,25 0,0 -17,-17 -17,-42zm-92 -26l8 26c17,8 26,17 26,17 0,8 -9,16 -9,16 -8,0 -17,-8 -25,-33l0 -26zm353 -42c9,0 17,17 17,26 0,0 -8,0 -25,-17l8 -9zm-294 -8c-25,17 -34,17 -42,17 -9,0 -9,0 -9,-9l0 -8 -8 -8 -42 -34 101 42 0 0zm118 -25l0 -25c0,0 8,16 16,25 9,0 17,8 17,8 0,9 -8,17 -17,17 -8,0 -16,0 -16,-25zm-59 -42c0,0 8,17 8,25l-17 -17 9 -8zm-118 -93c17,-17 25,-17 25,-17l-33 34 8 -17zm521 -59c9,0 17,17 17,26l9 16 0 9c-9,0 -34,-17 -34,-25l8 -26zm-260 -16l0 16 -17 -8 17 -8zm109 0c17,-42 17,-42 25,-42l9 -9c67,-101 0,-42 109,-235l134 -236c42,-50 9,-25 76,-42 17,51 25,93 25,135 0,193 -126,269 -277,370l-101 59 0 0zm-202 -202c17,59 25,67 34,67l8 0c9,0 17,9 17,76 -34,8 -25,8 -67,25 -9,0 -17,0 -25,8l-17 0c0,0 -9,9 -17,9l-17 0 8 -25c0,0 9,-9 34,-51 25,-42 25,-42 25,-50l0 -26c-33,-25 -50,-33 -59,-33 -16,0 -25,8 -67,17l126 -59c17,25 9,17 17,42l0 0zm67 25c0,0 0,8 -8,8l8 -8zm-344 -34c0,-16 8,-16 8,-16 9,0 25,25 25,33 9,9 9,17 9,25l-9 9c-8,0 -33,-25 -33,-34l0 -17zm353 -84c0,-16 8,-16 8,-16 9,0 25,16 25,42l9 25 0 8c-17,0 -42,-25 -42,-33l0 -26zm143 17c17,-8 17,-8 25,-8 0,0 -25,25 -42,25l-8 0 25 -17zm588 -33l0 25 -16 -17 16 -8zm-832 -51c-42,-76 -59,-34 -84,-109l59 0c17,0 17,0 17,17 0,16 0,42 8,92zm67 -17l-8 -17 0 -8 33 17 17 -9c0,9 -17,17 -25,17l-17 0zm286 -84l0 17c0,0 -8,0 -17,-17l17 0zm-370 -109c0,0 9,17 9,25l-26 -17 17 -8zm799 -42c17,-9 17,-17 17,-17 0,-8 -9,-17 -17,-17 -9,0 -17,9 -17,9 0,8 8,8 34,16l-17 9zm-185 -67c0,8 -9,16 -17,16l0 -33c0,-9 8,-17 8,-17 9,0 17,8 17,17l-8 17zm-126 -68c0,-25 8,-33 17,-33 0,0 8,17 8,33l8 9c0,8 -8,8 -16,8 -9,0 -17,-8 -17,-17zm-84 -59c17,26 33,51 50,101 -109,-16 -67,-8 -109,-50l59 -51 0 0zm-177 -16l17 8 25 0c0,8 -8,8 -17,8 -8,0 -16,0 -25,-8l0 -8zm185 -68l-8 -8 42 0c0,0 -17,8 -25,8l-9 0zm1043 673c-126,25 -202,143 -311,244l-278 252c-168,143 -429,378 -664,378l-42 0c-25,-67 -34,-109 -34,-151 0,-42 9,-84 9,-151 277,-9 521,42 756,-379 84,-151 126,-311 126,-462 0,-345 -210,-632 -512,-640 -387,0 -723,590 -850,909 -25,59 -42,135 -67,202 -17,75 -42,160 -42,252l0 109c0,488 244,782 555,782 84,0 177,-25 269,-75 378,-202 647,-555 891,-866 84,-101 185,-244 194,-404l0 0zm286 933c0,-8 -9,-8 -9,-17l25 26 0 25c0,0 -8,-8 -16,-34zm-269 17c8,9 8,17 8,25 -8,0 -34,-16 -42,-25l0 -34c8,0 34,34 34,34zm-127 -109c-8,-9 -8,-9 -8,-17l8 0c9,0 34,8 34,8 17,-8 25,-8 34,-8 0,8 -26,25 -42,25 -9,0 -17,0 -26,-8zm1077 -109l-17 -17 0 -42 17 59 0 0zm-320 -93l0 8 0 -8zm-538 -25l-8 -9 25 0c17,0 25,0 25,9 0,8 -8,8 -17,8 -8,0 -17,0 -25,-8zm-118 8l0 -17c0,-8 0,-8 9,-8 8,0 25,17 25,17l-34 8zm1068 -168c0,-17 0,-17 9,-17 8,0 25,25 25,34 8,17 8,25 8,33 -17,0 -42,-25 -42,-33l0 -17zm-160 25c-8,-8 -8,-17 -8,-17l50 0c0,9 -16,17 -33,17l-9 0 0 0zm76 -33l0 -9 8 9 -8 0zm84 -26c9,-50 25,-42 59,-50 -25,50 8,25 -59,50zm-160 -84l17 9 9 0c16,0 16,-9 16,-9 0,-8 -8,-16 -8,-16l0 67c-8,0 -34,-25 -34,-42l0 -9 0 0zm-126 59c-42,-17 -25,-8 -59,-25 17,-34 17,-42 17,-42 9,0 9,8 25,25 17,9 26,9 26,9 0,0 -9,0 -9,16l0 17 0 0zm-782 -33c9,0 25,16 25,25l0 17c-8,0 -25,-9 -25,-17l0 -25zm1186 -110l8 -8 -8 8zm-143 -42c17,17 42,17 42,25l-34 26 -17 -68c9,9 9,17 9,17l0 0zm-143 17c17,8 34,8 42,8 17,0 17,-8 17,-8l0 8c0,9 0,26 8,59l-67 -67 0 0zm-858 17l0 8 0 -8zm900 -168c8,0 17,8 17,8 17,0 8,9 17,9 8,0 16,0 25,-9 33,-17 42,-25 42,-42 0,-8 -25,-25 -51,-42l68 25 -42 110c-84,-17 -51,0 -101,-51l25 -8 0 0zm-647 50l8 -8c0,0 -17,17 -25,17l17 -9zm-227 9c0,-9 25,-9 25,-9l17 0c0,9 -9,17 -26,17 0,0 -8,-8 -16,-8zm75 -110c25,17 34,25 34,25l8 9c-84,-25 -67,0 -101,-67 26,16 34,16 59,33l0 0zm-160 42c0,-17 9,-25 17,-25 9,0 17,8 17,25 8,17 8,26 8,34 0,8 0,8 -8,8 -8,0 -25,-25 -34,-42zm1211 -75c9,42 9,50 9,50 0,0 0,-8 -9,-8 0,0 -17,8 -33,25 -26,-126 25,-67 -84,-109 0,-17 8,-26 8,-26 8,0 25,26 34,26l33 0c17,0 25,-9 34,-9 8,0 8,9 8,51l0 0zm-176 -93c-9,17 -17,25 -26,25 0,0 -8,0 -8,-8 0,0 8,-17 17,-25l33 -26 0 9c0,0 -8,8 -16,25zm-917 -17c17,26 25,26 25,26 0,0 -8,8 -25,42l-8 -9 -9 0c0,-8 0,-25 17,-59l0 0zm1026 -33c0,-9 8,-9 42,-9 42,-8 50,-8 50,-8 0,0 -16,8 -16,17l8 8c-34,25 -59,25 -67,25 -25,0 -9,-17 -25,-25l8 -8zm-202 -17c0,8 0,33 9,33l8 0c8,0 8,0 8,9 0,8 -8,25 -16,25 -9,0 -17,-8 -17,-34l8 -33zm328 17l-8 -9 16 9 -8 0zm-25 -68c-25,0 -17,0 -59,-25 0,-17 42,-17 59,-17 50,17 25,17 50,42l-50 0zm-269 -50l8 34c9,0 9,8 9,8 0,8 -9,25 -17,25 0,0 -9,-8 -9,-25l9 -42zm-690 50c-8,0 -8,9 -8,9l8 -9zm34 -151c0,-25 0,-34 8,-34l9 34c8,0 8,0 8,8l-8 9c-9,0 -9,0 -17,-17zm-151 -25l42 0c0,0 8,0 8,17 0,8 -8,33 -17,67l-33 -84zm260 -143c0,-17 9,-25 9,-25 8,0 16,17 16,25l0 17c-8,0 -25,-9 -25,-17zm-159 1312l0 -26c0,-252 201,-681 277,-916 50,-143 84,-261 84,-353 0,-178 -109,-254 -378,-254 -42,0 -93,9 -152,9 -42,144 -101,270 -151,413 -84,261 -244,782 -244,1127 0,109 17,193 51,252 92,134 269,260 445,260 110,0 210,-50 303,-159 160,-194 252,-480 345,-707 16,42 16,84 16,135 0,101 -16,210 -16,319 0,76 8,160 33,236 59,168 219,328 404,328 35,0 77,-9 119,-25l-59 -312c0,-50 -9,-92 -9,-142 0,-463 194,-1051 194,-1337 0,-51 -9,-93 -25,-126 -26,-59 -152,-186 -296,-186 -75,0 -160,34 -235,152l-311 555c-59,126 -261,580 -345,689l-50 68 0 0z"/>
   <path class="fil0" d="M11481 4205c8,34 8,42 8,42 0,0 0,-8 -8,-8 0,0 -8,8 -17,8l17 -42zm93 8c50,0 42,9 50,51 -50,-25 -25,-9 -50,-51zm134 -67c0,-8 8,-17 8,-17 9,0 9,9 9,9l0 8c0,9 -9,17 -9,17 -8,0 -8,0 -8,-17zm-118 -17c9,0 17,0 17,9 0,0 0,8 -8,8l-9 0c-8,0 -8,-8 -8,-17l8 0zm93 -101c8,0 17,9 17,17 0,9 -9,17 -9,17l-8 -34zm-59 9c8,0 17,8 17,8l-9 17 -8 -17 0 -8zm-17 -126c0,-17 9,-17 17,-17 8,0 17,8 17,17l-17 0c-8,0 -17,17 -17,17l0 -17zm-92 0c0,0 0,-9 8,-25l9 8c8,0 8,-8 16,-8 0,0 -8,8 -16,33l-17 -8zm59 -101c0,0 8,0 8,8l-17 0 9 -8zm117 -101c0,0 25,0 25,34 0,8 0,33 -25,58 0,-8 0,-8 -8,-8l0 8 -9 -33c0,-51 9,-42 17,-59zm101 76c9,-9 9,-9 17,-9l0 9c0,0 0,8 -8,8l-9 0 0 -8zm-227 -34l9 0 16 8 -16 0 -17 9 0 -9 8 -8zm101 -92c17,-9 25,-9 42,-9 25,0 42,17 42,34l0 8 -8 0c-17,0 -9,0 -26,-8l-50 -25 0 0zm93 -118l25 0 8 17c-8,0 -17,8 -25,8 -8,0 -8,-8 -8,-8l0 -17zm58 -25c0,-9 17,-26 17,-26 9,0 9,0 9,9 0,0 0,8 -9,17l0 8c0,8 0,8 9,8 0,0 8,0 8,-8 0,0 -8,-8 -17,-8 -17,0 -17,8 -17,16l0 -16zm-75 -26c25,-16 33,-16 42,-16l0 25c0,8 0,8 -9,8 0,0 -8,0 -33,-17zm-42 -84l16 42 -42 0 26 -42zm33 -84c0,-8 9,-17 9,-17 8,0 17,9 17,17 0,9 0,9 -9,9 -8,0 -17,16 -17,16l0 -25zm-17 -50c0,0 0,-9 9,-9l76 -42c16,-8 33,-8 42,-8 25,0 25,17 25,50 -34,0 -42,-8 -84,-8 -25,17 -34,34 -51,34 0,0 -8,0 -25,-9l8 -8 0 0zm-16 -34c8,-17 8,-17 8,-25l0 -9 25 -8 0 42c0,0 -8,-8 -17,-8 0,0 -8,8 -16,8zm1421 -42c25,-25 25,-34 33,-34 0,0 9,9 17,34 -8,0 0,8 -25,8 -17,0 -17,0 -25,-8zm-1220 -34c0,34 0,42 -8,42 -8,0 -17,0 -34,-8 17,-42 -8,-17 42,-34zm-16 -58c59,16 33,8 59,42 -68,-9 -34,-9 -59,-42zm-135 -34c51,8 59,34 109,59 -8,8 -8,25 -33,25 -17,0 -42,-8 -93,-34l17 -50zm294 -8c0,0 9,8 9,16l-9 26c-8,0 -8,-9 -8,-26l8 -16zm26 -9c42,9 58,17 58,25 0,9 -8,17 -16,34 -42,-34 -26,0 -42,-59l0 0zm-219 34l17 -17 17 0c0,0 -26,17 -34,17zm118 -110l0 26c0,8 0,8 -25,25l25 -51 0 0zm-152 34l34 0c0,9 0,17 -8,42 -9,-8 -9,-8 -17,-8l-9 -34zm-42 -25c0,-9 9,-17 17,-17l-8 17c0,8 -9,17 -9,17l0 -17zm244 17c9,-17 9,-26 9,-26l0 -8c0,0 8,0 25,-8l0 42c0,0 0,-9 -9,-9 -8,0 -16,9 -25,9zm1093 -17c25,-42 9,-25 59,-42 42,33 42,25 42,92 -42,-16 -17,17 -42,-59 -34,9 -34,17 -34,17l-25 -8 0 0zm-1286 8c17,-42 42,-67 67,-67 0,34 -25,50 -67,67zm1353 -75l0 -9c0,-17 9,-33 51,-33 -17,33 -17,25 -42,50l-9 -8 0 0zm-1395 -51c8,17 17,25 17,34l-9 0 -8 8 -9 -8 0 -9c0,-8 0,-16 9,-25zm126 0c59,25 8,17 84,25 17,-33 8,-25 25,-42 17,17 25,26 25,34 0,8 -8,17 -16,50 -26,0 -51,-8 -76,-16 -34,-17 -34,-17 -34,-26l0 -8c0,-8 0,-8 -8,-17l0 0zm1530 -25c17,-8 34,-17 51,-17l16 0 0 9c0,16 9,16 9,16 0,9 -9,9 -34,9l-17 0c-25,0 -16,-9 -25,-17l0 0zm-34 34c-50,-9 -25,-9 -50,-42l50 42zm-1328 -51c0,-8 8,-17 8,-17l9 9c0,8 0,8 -9,8 0,0 0,25 -8,25l0 -25zm-353 -17l42 9c-25,0 -34,8 -42,8l8 -8 -8 -9zm-93 0c0,-17 9,-17 17,-17l9 9c0,0 0,8 -9,8l-8 0c0,9 -9,17 -9,17l0 -17zm1598 -25c50,17 50,0 67,42l-17 17c0,0 -8,-8 -25,-17 -17,-8 -25,-42 -25,-42l0 0zm-1387 59l0 -17c0,-8 0,-8 -9,-25 25,-8 42,-17 67,-17 26,0 51,17 51,59l-51 -25c-8,42 -16,42 -42,67l-16 -42 0 0zm-59 -59c8,-34 17,-42 25,-42l25 25c-17,9 -17,17 -17,17l-33 0zm1639 -42l9 0c8,0 17,8 17,8l-26 0 0 -8zm-1278 -42c17,0 17,8 17,17l-8 0 -17 8 0 -17 8 -8zm-252 42l8 -50c9,0 17,-9 17,-9l9 0c17,0 17,9 25,9l34 -34c8,25 8,34 8,42 0,8 8,8 42,25l-25 17 -25 25c-26,-17 -17,0 -34,-59 -25,9 -25,17 -25,17l0 9 -34 8 0 0zm-17 0c-33,-8 -33,0 -42,-25 0,-9 -8,-17 -8,-25 0,-9 8,-9 8,-9l17 0 25 59 0 0zm1623 -67c8,-34 8,-34 25,-34l25 0c-8,34 -8,42 -16,42 0,0 -17,-8 -34,-8zm-1757 -42c17,25 25,33 25,33l0 9c-8,0 -17,-9 -17,-9l-8 -33zm311 0c0,-9 -17,-17 -17,-17 0,0 8,8 25,8l25 0 0 17 -33 17c0,0 0,-8 -9,-17l9 -8zm-143 8c0,-17 8,-25 17,-25l8 8c0,9 0,9 -8,9l-9 0 -8 17 0 -9zm-118 -8c0,-17 9,-17 9,-17 16,0 33,17 33,25l-17 0c-16,0 -25,17 -25,17l0 -25zm1589 17c25,-34 17,-34 68,-42 -9,33 -17,50 -43,50 -8,0 -16,0 -25,-8l0 0zm-159 -34c16,-8 25,-8 33,-8 9,0 9,0 9,8l0 8 -42 -8zm-993 0c-8,8 -16,8 -16,8l-17 -8 33 0zm-361 -34c59,-33 76,-25 118,-67 16,8 8,0 42,25 25,25 16,9 33,42l-50 0c0,0 -42,17 -84,17 -17,0 -42,0 -59,-17l0 0zm-177 -17c0,-8 9,-8 9,-8l8 0c0,0 0,8 -8,8l-9 9 0 -9zm1800 -50c8,8 8,8 16,8l9 -8 0 8c0,0 0,9 -9,26l0 25 -33 0c-9,-17 -9,-25 -9,-34 0,-8 0,-8 26,-25zm-135 25l0 25 -34 0c17,-25 9,-25 17,-25l17 0zm-1253 34c-8,0 -8,-9 -8,-9 0,-8 0,-8 8,-8 17,0 17,0 17,8l-17 9zm168 -93c17,17 9,9 17,34 -17,0 -17,0 -17,8 0,-8 0,-8 -8,-16 -8,-9 -8,-17 -8,-17l8 8c8,0 8,-8 8,-17zm-386 -50l42 0c17,0 25,0 50,34 -8,33 -8,42 -8,42 -9,0 -17,0 -34,16 -34,-25 -50,-25 -50,-67l0 -25 0 0zm1555 25c34,-8 42,-17 51,-17 8,0 16,9 25,34l0 8c0,9 0,9 -17,9l-17 0 -33 -9 0 -8c0,0 0,-8 -9,-17l0 0zm-1278 9c0,-17 9,-17 9,-17 8,0 16,8 16,17l-8 0c-8,0 -8,8 -8,8l-9 -8zm143 -17l8 -9 9 9c0,0 0,-34 33,-51l-8 34c0,0 -8,0 -25,25l-17 -8 0 0zm-261 -59l34 59c0,0 0,-9 8,-9 9,0 26,0 42,17l0 59 -126 -67 9 -17c17,-42 8,-25 33,-42l0 0zm-311 76c-8,0 -8,-17 -17,-26l17 26zm1573 -42c0,8 0,8 -9,8l-8 0c0,-8 -17,-8 -17,-17 0,0 0,-8 17,-17l17 26zm159 -59c-8,50 0,25 -33,42 8,-9 8,-17 8,-17 0,-8 -8,-17 -8,-17 0,0 8,0 33,-8zm-33 84l-93 -34c42,-33 17,0 51,-50l8 17c8,16 8,25 8,25l9 25 0 -8 17 25 0 0zm-1245 -76c17,0 26,9 26,9l-17 0c0,0 -17,8 -25,8 0,-8 0,-8 8,-17l8 0zm-252 9c0,-9 9,-9 9,-9 8,0 16,9 16,9l-8 8 -8 0c-9,0 -9,-8 -9,-8zm-50 25c0,0 0,17 -17,17 -9,0 -17,-9 -42,-26 8,-8 8,-8 8,-16l-8 -9 25 0c34,9 34,9 34,17l0 17zm1387 -84c8,0 8,8 8,8 0,0 -8,8 -16,8 0,0 0,-8 8,-16zm210 16l-8 0c-9,0 -17,0 -17,-25 0,-8 17,-17 17,-25l8 50 0 0zm-126 -25c8,-8 8,-17 17,-17 0,0 17,0 33,17 0,9 -8,9 -8,9 0,8 -8,8 -8,8 -17,-8 -26,-8 -26,-8l-8 -9zm-1429 -8c0,0 8,8 8,17 0,0 -8,8 -17,8 0,0 -8,-8 -25,-8 8,-26 8,-34 17,-34 8,0 17,8 17,17zm336 -9c17,9 17,9 25,9l0 -9 9 9c-17,8 -26,8 -34,8 -17,0 -17,-8 -34,-33l34 16zm-168 -25l0 51 67 0c25,0 17,0 25,8 -59,34 -42,8 -126,42 0,-8 -8,-17 -8,-25 0,-9 8,-25 8,-25 0,-9 0,-9 -17,-9l-42 0 26 59c-42,0 -42,-8 -59,-34 -17,-25 -25,-33 -25,-50 0,-8 0,-17 8,-34l34 34c0,0 8,0 8,8 0,0 8,0 8,9 26,-25 68,-76 110,-76 16,0 42,17 59,51l-76 -9 0 0zm1320 -25l8 -8c0,-9 0,-9 34,-17 17,-9 34,-9 50,-9l34 68 -126 -34 0 0zm-76 0c0,-8 9,-17 17,-17l0 17c0,8 -8,8 -8,8 -9,0 -9,0 -9,-8zm-1438 -17l0 9 -8 0 8 -9zm-84 0c0,-8 9,-17 17,-17l0 17 -8 17c-9,0 -9,-8 -9,-17zm1850 -33c0,8 0,8 -8,25 0,-9 0,-9 -9,-9l-8 0c0,-8 0,-16 17,-25l8 9zm-1345 0c-17,25 -9,25 -17,25l-25 0 8 -17 0 -8c0,-9 0,-9 9,-9l16 0 9 9zm-378 -85c25,17 42,34 42,59 0,17 0,34 -17,51 -17,-17 -17,-9 -17,-17l-8 -93 0 0zm1362 51c8,-9 16,-9 25,-9l8 9 -33 0zm159 34c-8,-17 -16,-34 -16,-51 0,-25 25,-34 50,-34 25,0 59,9 67,26 17,16 25,25 25,33 0,17 -8,26 -8,42 -92,-25 -25,-8 -76,-67 -25,59 0,34 -42,51l0 0zm-1261 -9c0,-25 17,-25 25,-84l68 0 -59 101c-9,8 -17,17 -25,17 -9,0 -9,-9 -9,-9l0 -25zm-277 -126c42,-34 0,-25 109,-42 -8,42 -17,50 -50,84 -93,-50 -68,-17 -76,-42l17 0 0 0zm302 -8c26,-17 34,-17 42,-17 17,0 9,17 17,17l34 -34 -17 59c-17,-17 -25,-25 -34,-25 -8,0 -8,8 -16,8 0,0 -9,-8 -26,-8l0 0zm1312 16c-34,-16 -42,-33 -42,-50 0,-17 0,-34 8,-50 34,25 42,33 42,58 0,9 -8,26 -8,42l0 0zm-1118 -50c0,0 8,8 8,17 0,8 -8,17 -8,17 -9,0 -9,-9 -9,-17l9 -17zm-295 8c9,17 9,34 9,42l0 17c0,17 8,34 34,67l0 17 -34 -25c0,17 8,25 8,34 0,8 -8,8 -25,25 -25,-17 -25,-8 -25,-17l0 -50 -76 33c9,-50 17,-59 59,-59l25 0c0,-50 -8,-58 -8,-67 0,0 8,0 33,-17l0 0zm1245 -42l0 26 -25 0 25 -26zm67 51c0,-34 -8,-51 -8,-84 33,8 50,25 50,42 0,17 -17,42 -42,67l0 -25 0 0zm-1454 -42c8,-42 16,-34 25,-76 33,17 50,8 59,59 -26,17 -26,17 -42,17l-42 0 0 0zm151 -68c0,9 -9,17 -34,34 -8,-17 -8,-8 -8,-17l0 -17c0,-16 8,-8 17,-25l25 25zm1354 -16l-9 -9 -8 0 17 -17c8,26 16,9 42,51l-42 -25 0 0zm-1304 59c-8,0 -16,-9 -16,-43l0 -25c0,0 0,9 8,9l8 -9c17,17 17,34 17,42 0,17 -17,17 -17,26zm1472 -85l-9 9c-8,0 -25,-9 -25,-17l0 -17 34 25zm-1724 17c0,-8 -8,-17 -8,-25 0,-17 17,-8 17,-17l8 9 8 42 0 -9 -8 -8c-8,0 -8,0 -17,8zm1354 -25c-9,0 -9,0 -25,8l8 -25c0,-8 0,0 17,-17l0 34zm-959 -25c0,8 -8,17 -8,17l-17 -34c0,-8 8,-8 8,-8l9 0c8,16 8,8 8,25zm-269 -51c25,17 34,26 34,51l0 17 -25 0c-26,0 -59,-9 -84,-17l8 -9 67 -42 0 0zm1362 118c-25,-8 -42,-25 -42,-50 0,-17 17,-34 51,-59 8,8 8,25 8,33 0,26 -8,59 -17,76l0 0zm-1580 -101l8 17c8,0 8,0 8,8l-8 9c0,0 -8,-9 -8,-17l0 -17zm1723 -42c0,0 9,9 9,17l0 8 -17 -8 8 -17zm-1648 -17c34,9 34,9 34,17l0 42c-25,-17 -34,-17 -34,-25l0 -34zm1539 -16c50,8 76,25 76,50 0,8 -9,25 -26,42 -25,-25 -33,-42 -50,-92zm-193 25c8,0 8,8 8,8l0 9 -8 -9 0 -8zm-1127 67c-17,-25 -42,-34 -42,-67 0,-9 8,-34 17,-59 50,0 50,8 75,59l-50 67zm1185 -92c9,-26 9,-51 17,-51 9,0 17,0 25,8l-42 42 0 1zm-185 -9c0,-8 9,-17 9,-17 8,0 17,9 17,17l0 25c-9,0 -17,-8 -26,-25zm244 9c9,-17 9,-17 17,-17l17 0c-17,17 0,8 -34,17zm-471 -9l-8 -8 8 -9 17 9 9 0c0,0 -9,8 -17,8l-9 0zm-697 -8c8,0 8,8 8,17l-8 -9 0 -8zm1311 -34l-8 17c0,0 -9,0 -17,8l25 -25zm-260 -8c8,0 8,16 8,16 8,0 8,9 8,9 0,8 -8,8 -8,8 0,0 -8,0 -8,-17l0 -16zm-1295 50l0 -25c0,-42 17,-59 33,-59 17,0 42,25 42,50 0,17 -16,34 -67,34l-8 0 0 0zm302 -50c0,0 -8,8 -16,8 0,0 -9,0 -17,-8l33 0zm1119 -17c0,0 8,-51 25,-51 8,0 25,17 34,42 -17,9 0,9 -26,9 -8,0 -17,8 -17,8 0,0 -8,-8 -16,-8l0 0zm-1320 -51c25,9 33,9 33,26 0,0 0,16 -8,33 -9,-8 -17,-8 -17,-8l-8 -25 0 -26zm1152 -26c8,0 16,0 16,26 0,26 -8,26 -16,26l-9 0c-8,-17 -17,-26 -17,-34 0,0 9,0 17,-18l9 0zm-1203 43c-8,0 -8,9 -8,9l-25 0c-26,0 -26,-9 -34,-17 8,-17 17,-26 25,-26 17,0 34,9 42,34zm1270 -34c0,-17 0,-17 8,-17 0,0 9,8 9,17l0 17c-9,0 -17,-8 -17,-17zm-1211 -51l8 25c9,9 9,17 9,17 -34,-25 -17,-8 -34,-50l17 8 0 0zm1043 25c0,0 0,9 -9,9 0,0 -8,0 -25,-17l34 8zm-1203 35l0 -26c0,-9 0,-9 9,-9l33 0 -42 35zm295 -68l8 -17c0,0 8,8 8,17l0 8 -16 -8zm824 0c-51,-9 -26,0 -42,-26l25 0c8,0 8,0 17,26zm-934 -110c9,9 9,9 9,17 0,9 0,9 -9,25l-25 0c0,-8 8,-16 25,-42zm177 1591c-34,16 -51,50 -51,100 0,93 84,244 320,345 92,34 193,51 294,51 151,0 311,-42 412,-110 168,-101 303,-260 404,-462 101,-202 176,-488 176,-774 0,-235 -59,-471 -193,-631 -76,-93 -269,-194 -446,-194 -42,0 -75,9 -117,17 -253,67 -152,51 -253,109 -101,59 -84,51 -185,153 -25,17 -16,8 -25,33 -42,51 -185,202 -218,261 -26,51 -9,34 -42,67 -17,26 -26,34 -26,34 -8,0 0,-34 -59,-42l-8 0c25,-42 34,-42 50,-42 17,0 34,-9 43,-101 16,-101 25,-185 25,-262 0,-168 -68,-260 -353,-277l-51 0c-25,0 -25,0 -33,8 -26,9 -118,51 -135,59l-34 51c-33,58 -159,917 -176,1010 -9,50 -9,75 -17,126 0,42 -17,109 -25,159 -42,261 -101,539 -126,808 -17,143 -118,597 -135,815l0 42c0,227 151,294 269,294 51,0 101,-8 126,-25 202,-101 194,-689 311,-1034 84,-244 126,-437 244,-706 76,-177 152,-353 244,-521 109,-177 151,-286 303,-446 59,-67 126,-160 235,-160l9 0c100,0 126,101 126,227 0,118 -26,252 -34,328l-92 294c-17,76 -34,34 -59,135 -17,84 -26,67 -59,118 -34,42 -42,67 -76,117 -76,101 -33,42 -92,101 -34,25 -9,9 -51,42 -50,34 -101,67 -160,67 -8,0 -25,-8 -42,-8 -159,-25 -143,-143 -218,-176z"/>
   <path class="fil0" d="M15947 4146c0,0 8,0 8,9l-8 -9zm-25 -126l8 59c-17,-25 -25,-34 -25,-42l17 -17 0 0zm-101 42c16,-50 33,-67 33,-101 17,25 25,34 25,42 0,25 -25,25 -58,59l0 0zm159 25c110,-75 42,-8 110,-117 0,0 16,0 16,16 0,17 -8,34 -33,68 -17,25 -25,42 -42,42 -17,0 -25,0 -51,-9zm522 -33c8,-26 8,-34 8,-34 8,0 17,8 34,8l-42 26zm260 -17c0,-25 9,-25 9,-25 8,0 8,8 8,25 9,8 9,17 9,17l-26 -17zm-731 -126c8,17 17,25 17,33 0,9 -9,17 -26,34 0,-8 -16,-8 -16,-17 0,-8 8,-25 25,-50l0 0zm-278 25c0,-8 9,-8 9,-8 8,0 17,0 17,16 0,9 0,17 -9,17 -8,0 -17,-8 -17,-25zm850 50c8,-16 8,-25 8,-25l0 25c8,0 8,0 8,9l-8 8 -8 -17zm-673 -50c0,-25 8,-25 8,-25 9,0 26,8 26,25l0 34c-17,0 -34,-26 -34,-34zm891 -42c17,34 17,42 17,50 0,9 -8,9 -25,34 0,-8 -9,-8 -9,-8l0 -76c0,0 0,8 9,8l8 -8zm-479 134c-17,-25 -34,-33 -34,-50 0,-17 0,-25 9,-50 17,-42 25,-51 33,-51l9 9c8,0 17,-9 25,-9 -8,42 -17,59 -25,93l-17 58 0 0zm-278 -142c0,-9 0,-17 9,-17 8,0 25,8 50,42 -17,8 -33,17 -42,17 -17,0 -17,-9 -17,-17l0 -25 0 0zm572 8c-42,25 -25,34 -42,42 -17,8 -33,8 -42,8 -25,0 -25,-8 -25,-16l0 -9c34,-25 50,-25 67,-25l42 0 0 0zm-513 126c17,-42 26,-59 42,-118 68,-33 17,0 68,-42 -17,51 0,17 -26,51 -33,42 -42,67 -42,75l0 17c0,0 0,9 -42,17l0 0zm269 -177c93,34 59,9 84,76l-25 -17c-8,0 -8,0 -33,-25 -17,-17 -17,-17 -26,-34l0 0zm631 34c8,0 8,17 8,17 9,8 17,8 17,17l-8 8c-9,0 -17,-8 -17,-25l0 -17zm-496 -8c0,-9 8,-9 8,-9l-8 9zm748 25l-17 17 0 -17c9,-17 9,-25 17,-25 0,0 9,8 9,17 0,8 -9,8 -9,8zm-143 42c-8,-17 -8,-34 -8,-42 0,-8 8,-17 17,-51l67 17c-34,59 -17,42 -76,76zm-462 -84c84,-34 118,-51 134,-51 17,0 26,17 42,42l-58 9c-51,8 -68,25 -76,25 -9,0 -17,-8 -42,-25l0 0zm-93 -59l-67 25c8,-25 8,-25 17,-25l50 0zm-454 -8l0 -9 26 0c0,9 -9,9 -17,9l-9 0zm850 25c0,-17 0,-17 8,-17 0,0 17,17 17,25l0 25c-9,0 -25,-25 -25,-33zm1026 17l17 -17c9,0 9,8 9,17 0,8 -9,16 -17,16 -9,0 -9,0 -9,-8l0 -8zm-218 -51l8 9c9,0 9,-9 17,-9 0,0 -8,17 -17,51l-8 -51zm-244 59c0,-8 -17,-17 -17,-34 0,-8 17,-16 76,-33l-59 67 0 0zm-195 -92c0,0 9,16 17,16 9,0 9,9 9,9 0,8 -9,17 -9,17 -8,0 -17,0 -17,-26l0 -16zm-134 16c0,-8 -8,-16 -8,-16 0,-9 16,-17 25,-42l-17 58 0 0zm-227 -336c17,34 101,76 160,76l16 0 -16 67c84,59 67,-8 84,93 -51,-26 -34,-26 -84,-43l-59 0c-9,9 -9,9 -17,9 -8,0 -8,-9 -8,-9l0 59c0,17 16,42 25,59l75 42c-50,0 -50,9 -109,25l0 -8 -17 -67 -33 33c-9,0 -9,-8 -9,-8 -8,0 -16,8 -25,8 -34,17 -34,34 -59,59 -101,-33 -84,-42 -151,-75l84 -42c-8,-93 -25,-26 -34,-118l135 -84c17,67 0,25 34,67l58 67 17 -75c-25,-17 -33,-26 -42,-26 -17,0 -17,9 -17,9 0,0 -8,-9 -8,-17 -8,-8 -17,-8 -17,-8l17 -93 0 0zm-84 303c25,17 42,25 50,25l9 -8c0,-9 -34,-34 -59,-34 0,0 -9,0 -17,8l17 9zm101 -67l-9 8 -16 25 0 25c0,9 0,0 8,34 34,-34 50,-42 50,-50 0,0 -16,-9 -33,-42l0 0zm-395 33c8,0 8,17 8,17 8,0 8,8 8,8 0,9 -8,9 -8,9 0,0 -8,0 -8,-17l0 -17zm1354 42c-25,67 0,42 -67,59 8,-17 8,-25 8,-34l0 -8c0,-8 9,0 59,-17l0 0zm-117 0c8,0 8,25 8,25 8,9 17,9 17,17 0,9 -9,17 -9,17 -8,0 -16,-8 -16,-34l0 -25zm-573 25c0,-67 0,-42 67,-58 -17,50 -25,58 -25,58l-42 0 0 0zm-471 -58c-25,-17 -34,-9 -34,-17 0,0 0,-9 9,-34l25 51 0 0zm1203 33c51,17 68,17 68,25 0,0 -17,0 -17,26 -42,-34 -9,0 -51,-51l0 0zm-497 0c-25,9 -42,17 -42,17 -8,0 0,-17 -25,-25 8,-25 17,-34 34,-34 8,0 25,17 33,42zm-59 -92c0,-9 0,-9 -8,-9l8 9zm144 -59c0,-17 9,-25 9,-25 0,0 8,16 8,25l0 17c-8,0 -17,-9 -17,-17zm261 0c8,-17 8,-25 8,-25l9 25 8 0c9,0 9,8 9,8 0,9 -9,17 -17,17 -9,0 -17,0 -17,-25zm-67 8l0 -8 33 0c0,0 -16,8 -25,8l-8 0zm-514 -59c-25,26 0,26 -59,34l-42 0c0,-8 8,-8 8,-17l-8 -8 101 -9zm-437 -67l8 -17c8,0 8,17 8,17 9,0 9,9 9,17 0,8 -9,17 -17,17 0,0 -8,-9 -8,-25l0 -9zm412 25c-34,-8 -42,-8 -42,-25 0,-8 8,-25 8,-50l34 75zm-278 -151c-34,-50 -50,-42 -50,-67 0,-9 8,-25 8,-42 42,50 59,67 59,92 0,25 -17,51 -51,101l34 -84 0 0zm59 -50c67,84 34,8 134,168 -50,-25 -50,-25 -67,-25l-50 0c-9,-43 -9,-59 -9,-68l0 -33c0,-9 0,-17 -8,-42l0 0zm227 -34c-8,8 -8,8 -8,17 0,8 0,8 -59,17l67 -34zm-429 -17l0 17 -50 0 50 -17zm160 -17c0,0 0,9 17,9l17 0c8,0 16,0 16,-9 0,0 -8,-8 -16,-8 0,0 -9,8 -9,17l0 42c-8,0 -25,-25 -25,-34l0 -17zm151 110c-50,-17 -67,-9 -67,-26 0,-8 8,-16 8,-50 0,-25 9,-42 17,-51 34,43 51,43 51,76 0,9 0,25 -9,51zm-92 -169l8 -8 0 42c-8,0 -17,-8 -25,-8 -8,0 -8,8 -8,8l0 -8c0,-9 0,-26 -9,-42l34 16zm-101 17c-9,9 -17,17 -25,17 0,0 8,-8 25,-17l25 -17c0,0 -8,9 -25,17zm227 42c-34,-33 -42,-50 -42,-59 0,-16 17,-16 25,-16l8 -9 0 -8c0,0 9,0 34,17 17,8 25,16 25,25 0,25 -42,50 -50,50l0 0zm-101 -92c25,-42 8,-25 42,-51 25,-16 17,-16 25,-16l25 0c0,67 -16,58 -92,67l0 0zm135 -59c0,-8 -9,-17 -9,-25l9 0 33 33c-8,9 -17,9 -17,9 -8,0 -8,0 -25,-9l9 -8zm-17 -76c33,-8 42,-8 59,-8 8,0 8,8 25,17 -42,25 -17,25 -93,25l9 -34zm185 -59c8,0 8,17 8,17 9,0 9,9 9,9 0,8 0,8 -9,8 0,0 -8,0 -8,-17l0 -17zm-236 -134l9 -9 0 -25c75,34 67,25 92,76 -25,42 -67,50 -84,50l-17 0c0,9 9,26 17,59 -42,9 -67,9 -84,9 -17,0 -17,0 -17,-9l0 -8 -8 0c-9,0 -25,0 -59,8 17,-33 25,-42 34,-42 8,0 25,9 42,9 8,0 25,0 33,-9 0,-50 9,-59 9,-59 0,0 -9,0 -42,-16l75 -34 0 0zm303 -34c-34,-25 -17,-8 -34,-50 9,8 17,8 17,8l9 0c8,0 8,0 8,42l0 0zm-328 -59c0,9 0,9 -8,9l-9 -9 17 0zm160 -92c8,25 17,34 33,67 -33,-8 -50,-17 -50,-33 0,-9 0,-17 17,-34l0 0zm118 -25c0,17 -9,25 -9,25l0 -42 9 -9 0 26zm-253 -126c9,0 9,16 9,16l8 9c0,8 -8,8 -8,8l-9 -33zm160 25c8,25 17,33 17,42 0,17 -17,25 -25,50l-42 -8 -9 -59c-8,-8 -8,-17 -8,-17l0 -50c0,-17 8,-9 25,-17l42 59zm25 -34c9,0 17,-25 42,-25 9,0 17,0 34,17l17 17c0,0 -9,0 -17,42 -59,-9 -67,-9 -67,-17l0 -9c0,-8 0,-16 -9,-25l0 0zm-42 -84l0 -8c0,0 0,-17 -8,-34 59,25 33,-8 50,42l-42 0 0 0zm287 -8c9,0 9,0 9,8 0,0 0,9 -9,9l-8 -17 8 0zm-169 0c34,-68 34,-59 76,-76 0,17 -9,17 -9,25l-17 17c-8,8 -50,34 -50,34l0 0zm-185 -51c17,-8 17,-17 17,-17 0,-8 -9,-8 -9,-8 0,-8 9,-8 51,-17 -34,51 0,25 -59,42zm134 -75c0,-17 9,-26 17,-26 9,0 17,9 17,34l0 17c0,8 0,17 -8,17 -9,0 -26,-26 -26,-42zm-50 0c-8,8 -17,16 -25,16l17 -16c8,-9 8,-9 8,-17l0 17zm67 -93l34 -25c8,0 8,17 8,25l-42 0zm42 -59c-8,-8 -8,-17 -8,-17l0 -8 25 17c9,0 17,-9 17,-9 8,0 8,9 8,9 0,8 -8,25 -25,25l-17 -17zm-59 -33l26 25 0 8c-9,0 -17,-17 -26,-25l0 -8zm-42 -26c0,0 -8,9 -16,9 -9,0 -9,0 -17,-9l33 0zm228 -33c0,-17 0,-17 9,-17 0,0 8,8 8,17l0 17c-8,0 -17,-9 -17,-17zm-236 -76l17 17c17,0 25,8 25,8 0,9 -8,17 -17,17 -17,0 -25,-8 -25,-25l0 -17zm287 0c0,-17 8,-25 8,-25 9,0 26,17 26,33l0 9c0,8 -9,17 -9,17 -17,0 -25,-9 -25,-34zm-211 42c42,-84 17,-42 92,-84l-33 42 8 8 34 26c0,0 8,0 16,8l-33 59c-9,-8 -25,-34 -42,-42l-9 -8 -16 0 -17 -9 0 0zm-51 -151c9,0 17,8 17,8 17,0 25,0 25,9 0,8 -8,8 -25,8 0,0 -8,0 -17,-17l0 -8zm195 -25c0,-9 0,-9 8,-9l-8 9zm-85 16c-34,-25 -26,-16 -42,-42l42 0c8,0 8,0 8,9 0,0 -8,8 -8,33zm278 -109c8,0 8,17 8,17l9 8c0,9 -9,9 -9,9l-8 -34zm-177 -34c26,-16 17,-25 26,-25 0,0 8,9 42,17 -25,25 -17,25 -25,25l-26 0 -17 -17zm-76 0l42 9 0 8c0,9 0,9 8,25l-50 -42 0 0zm-84 -25c0,-25 8,-25 8,-25 9,0 17,17 17,25 8,25 17,34 17,34 0,0 -17,-34 -25,-34l-17 0zm152 -85c-8,8 -8,8 -18,8 0,0 -8,0 -8,-8 0,0 8,-8 8,-17l18 0c8,9 17,9 17,9 -9,0 -9,0 -17,8zm193 51c-16,-9 -8,0 -33,-17 0,-9 -25,-34 -25,-34 -68,17 -34,25 -101,34 17,-84 -9,-42 42,-93 50,17 33,9 75,51l42 59 0 0zm-193 -152l0 -17 34 34 -34 8c0,-8 -8,-8 -8,-16l8 -9zm126 17c42,-34 17,-17 51,-59 16,25 16,34 16,42 0,17 -8,17 -25,17l-42 0 0 0zm-17 -76c9,-25 9,-33 17,-33 0,0 9,17 9,33l0 26c-9,0 -26,-17 -26,-26zm-202 -59l58 34 -16 0 -42 -34 0 0zm278 -16c34,25 51,25 51,42 0,8 -9,25 -17,42 -34,-17 -42,-9 -42,-17 0,-9 8,-17 8,-67l0 0zm-59 16c-25,17 9,9 -50,26l-42 0c8,-26 8,-34 42,-42 17,0 33,-9 42,-9 8,0 17,9 17,9l-9 16 0 0zm-169 -42l17 17 0 25c-9,0 -9,-8 -17,-33l0 -9zm304 -25l-34 17c-8,0 -8,0 -8,-8l0 -17 17 0c8,0 16,0 25,8zm-168 17c-9,-17 -9,-25 -9,-25l9 -9c8,0 25,17 25,17l17 -8 8 8c0,0 -25,25 -42,25l-8 -8zm-17 -50l-9 0c-42,0 -67,-26 -67,-26l25 -16 9 8 42 34 0 0zm-34 -101c9,0 9,16 9,16 8,0 8,9 8,9 0,8 -8,8 -8,8 0,0 -9,0 -9,-17l0 -16zm-1018 -42c0,-9 17,-9 17,-9l8 0c0,9 -8,9 -17,9l-8 0zm159 -42c9,-9 9,-17 9,-17 0,0 0,8 17,8l17 0c8,0 8,0 8,-8l-8 -9c-9,0 -17,9 -17,26l0 25c-9,0 -26,-17 -26,-25zm851 50c8,0 17,8 17,17l-17 -9 0 -8zm159 -76c26,9 34,9 43,9l16 0 34 17 17 0 -67 58 -43 -84 0 0zm-925 9c0,-9 0,-9 -9,-9l9 9zm597 -34c-9,9 0,17 -17,17 -9,0 -26,0 -59,-17l76 0zm-446 -8c-9,-17 -9,-25 -9,-25l9 -9c8,0 25,17 25,17 9,0 17,-8 17,-8l8 8c0,8 -25,25 -33,25 -9,0 -9,0 -17,-8zm-168 -25l-51 25c9,0 9,-9 9,-9l0 -16 42 0 0 0zm714 50c-42,-8 -50,-8 -50,-17l0 -17c0,0 0,-16 -8,-25 50,25 50,0 58,59l0 0zm-285 -34l-9 -8 9 -8 16 8 17 0c0,0 -8,8 -25,8l-8 0zm-278 -25c-59,-17 -76,-17 -76,-25 0,0 17,0 17,-9l-17 -16c68,16 76,16 76,16 0,9 -8,9 -8,17 0,0 8,9 8,17zm143 -17l8 -8c17,-9 26,-17 34,-17 8,0 17,8 34,17l-42 50 -68 -67 34 25 0 0zm-488 -151l34 84 -93 -17 59 -67zm-168 118c9,-34 17,-51 34,-51 17,0 33,17 50,25l-84 26 0 0zm1026 -9l-25 0c-9,0 -9,0 -25,-25l50 25 0 0zm-118 0c0,0 0,-8 -8,-8l8 8zm-328 -67l0 42 -25 17c-17,8 -34,8 -42,8 -17,0 -17,-8 -17,-17l0 -25 84 -25 0 0zm-277 0l0 -25 8 0c9,0 26,0 59,25 -17,17 -25,17 -25,25l8 -8 -25 0c-25,8 -34,8 -34,8 0,0 17,-8 17,-17l-8 -8 0 0zm-286 -17l17 9 17 0c0,0 -9,8 -17,8 -9,0 -9,0 -17,-8l0 -9zm807 93c17,-26 25,-34 25,-34l0 -8 17 0c-17,16 -17,25 -17,25l-25 17zm480 42c26,-34 43,-34 43,-42 0,0 -26,-9 -85,-68l9 -50c17,-8 8,-17 17,-17 0,0 8,9 33,17l-33 -59c67,8 84,25 126,59 -67,25 -51,0 -93,34l51 75c50,-25 17,9 50,-42 0,0 9,-25 17,-33 59,8 84,33 84,50 0,17 -8,25 -34,42l-16 -67c0,-9 -9,-9 -9,-17l0 17c0,17 9,17 9,17l-59 16 25 68c-42,33 -59,42 -67,42 -9,0 -9,-9 -25,-9l-17 0 -93 51c0,0 -8,0 -17,8 42,51 34,34 93,67 -67,26 -25,-8 -76,42 -8,0 -8,-8 -8,-8 -34,-101 0,-25 -67,-126 50,0 50,-34 67,-84 -34,25 -51,34 -67,34 -17,0 -34,-9 -69,-34 35,-25 43,-34 52,-34 8,0 25,9 59,25 0,-16 -26,-58 -26,-75 0,-59 0,-17 34,-51 84,152 17,126 92,152l0 0zm-497 -118c-16,25 -16,42 -25,42 0,0 -17,-8 -50,-34 0,-16 16,-25 33,-25 26,0 34,-8 34,-8l0 8 8 17 0 0zm-336 -25c0,0 -8,17 -17,17l0 -17c9,-17 9,-25 17,-25l0 25zm-193 -25l-9 8 -8 0 17 -8zm-320 -9c0,-8 0,-8 9,-8l-9 8zm639 -17l17 26c8,8 8,8 8,16l-8 0c0,0 -17,-16 -17,-25l0 -17zm-538 -33c42,8 50,8 50,8 0,8 0,17 -8,42l-42 -50 0 0zm1187 -17c-59,59 -26,8 -101,101l-25 59c-119,0 -86,-26 -119,-110 84,34 33,42 119,59 -17,-25 -27,-17 -27,-25l0 -34 153 -50 0 0zm-464 -34c-17,42 -17,51 -17,51l-25 0c8,-17 0,-9 17,-34l25 -17 0 0zm1439 126c0,-16 0,-25 8,-25l9 25 17 17c0,9 -9,17 -17,17 -9,0 -17,-8 -17,-34zm177 -33c8,17 16,17 16,25 0,8 0,8 -16,25l0 -50 0 0zm-640 -26c34,-16 43,-25 43,-25l0 -8c0,-9 0,-17 16,-42 17,-17 42,-25 59,-42l-50 118 -68 0 0 -1zm-100 0l0 9c0,0 0,8 -26,8l-25 0c-8,0 -25,-17 -33,-33l84 16 0 0zm-834 -50c0,-8 9,-8 9,-8l8 0c0,8 -8,8 -17,8zm1691 93l17 -17 0 25c0,8 0,17 -8,17 0,0 -9,-9 -9,-17l0 -8zm-580 -17c0,-9 8,-9 8,-9l-8 9zm-563 -59c0,0 17,-9 25,-9 8,0 8,0 8,17l0 9 -8 -9c-8,0 -17,0 -25,-8zm756 42c-8,-9 -16,-9 -25,-9l-8 0c0,0 0,-8 -9,-50l34 0 0 8c0,9 0,17 8,51zm-75 -109l0 33 -25 0 25 -33zm-370 25c-51,0 -59,0 -59,-9 0,0 8,-8 8,-25l0 -8 51 42zm-269 -42l17 8c0,0 0,9 8,9 0,0 0,8 -25,8 -9,0 -25,0 -51,-8l51 -17zm504 17l9 -17c0,0 0,17 8,17 8,0 8,8 8,8 0,8 -8,8 -8,8 -8,0 -17,0 -17,-16zm-748 -26c8,-33 8,-42 17,-42 0,0 0,9 8,9 9,0 17,-9 25,-9l-50 42 0 0zm1387 68c0,8 -8,16 -17,16l0 -16c9,-17 17,-17 17,-17l0 17zm-92 8c0,-34 -9,-42 -9,-50 0,-9 0,-17 17,-34l-8 84zm-303 -76c0,0 -8,17 -17,17l0 -17c9,-16 9,-25 17,-25 0,0 8,17 8,25l-8 0zm-496 -25c0,-8 8,-8 8,-17l-8 17zm210 -33c-8,-9 -8,-17 -8,-17l0 -9 25 17 25 0c0,0 -17,9 -33,9l-9 0zm-84 0c-8,-17 -8,-26 -8,-26l8 -8c9,0 25,17 25,17l17 -9 0 9c0,0 -17,25 -33,25l-9 -8zm219 -68c25,0 50,76 59,84 50,-25 33,-25 42,-25l25 0c-51,59 -9,42 -67,59 -17,-34 -26,-50 -42,-67 -17,-34 -34,-34 -34,-34 0,-8 8,-8 17,-17l0 0zm210 34c0,-17 8,-9 17,-25 8,16 17,25 17,33 0,9 -9,9 -34,17l0 -25zm361 580c85,-84 135,-244 143,-387l0 -42c0,-286 -201,-328 -428,-328l-84 0c-85,9 -303,59 -387,68l-1229 185c-101,16 -193,16 -260,16 -362,0 -362,-126 -480,-126l-33 0c-9,59 -17,135 -17,210 0,101 8,202 25,270 34,151 93,218 286,227 219,0 681,-68 849,-118 9,8 9,25 9,42 0,134 -127,497 -160,581 -25,59 -25,118 -51,185 -117,320 -260,858 -370,1118 -75,177 -176,454 -210,639 -193,34 -286,59 -454,59l-67 0c-395,-17 -261,-160 -429,-202 -50,51 -67,135 -67,219 0,76 8,143 25,210 34,160 84,269 193,328 51,25 127,34 219,34 420,0 1219,-185 1498,-244 151,-34 269,-42 361,-42 328,0 320,151 471,176 42,-58 59,-151 59,-235 0,-76 -8,-143 -25,-193 -34,-143 -84,-244 -202,-295 -25,-16 -84,-16 -143,-16 -219,0 -573,58 -707,75 75,-387 245,-925 379,-1295 118,-319 328,-791 328,-1119l-8 -143c109,-25 302,-42 437,-42l84 0c429,8 370,118 445,185l0 0z"/>
   <path class="fil0" d="M20303 4340c-17,-185 -92,-51 -218,-345 -59,-135 -85,-303 -85,-488 0,-420 127,-908 202,-1202l471 -1557c35,-117 178,-361 178,-538 0,-118 -68,-210 -279,-210 -33,0 -67,0 -109,8 -219,26 -261,143 -328,370l-219 757 -16 67c-101,497 -337,1288 -337,1969 0,370 67,715 269,950 93,109 236,219 446,219l25 0 0 0zm151 -4113c0,-25 -8,-25 -8,-25l-8 0c0,8 8,17 42,17l8 8 0 8c0,9 0,17 -8,17 -9,0 -26,-8 -26,-25zm-42 143c0,0 9,8 9,17 0,0 0,-9 -9,-9l0 -8zm-117 219c-9,0 -17,25 -26,25l0 -25c9,-26 17,-34 26,-34 0,0 8,8 8,25l-8 9zm59 -17c0,-9 0,-9 8,-9 8,0 25,9 34,26 0,8 8,16 8,25 0,8 -8,8 -8,8 -17,0 -42,-25 -42,-33l0 -17zm-118 92c0,9 -17,25 -25,25 -9,0 -9,-8 -9,-16l0 -9c0,-25 9,-42 17,-42 8,0 8,25 17,42zm244 9l8 -17 -8 17zm-202 67c-9,-9 -17,-17 -17,-25l8 0c9,0 34,8 34,8 9,0 17,-8 17,-8 8,0 8,0 8,8 0,0 -25,25 -42,25l-8 -8zm-51 109l42 0c9,0 9,0 9,9 0,8 -9,16 -17,16 -8,0 -17,-8 -25,-16l-9 -9zm295 -25l17 17c0,8 8,17 8,17l-8 0c0,0 -17,-9 -17,-17l0 -17zm-93 92c-59,-16 -75,-25 -75,-25 0,-8 8,-8 8,-25l0 -8c25,0 34,-9 42,-9 8,0 8,9 25,67l0 0zm-319 -8l-9 0c0,0 9,8 17,8l-8 -8zm176 93l17 -9 -17 9zm-210 193c0,-8 -8,-8 -8,-8 8,0 17,8 17,8l-9 0zm143 8l17 -8 -17 8zm0 177c-25,8 -42,17 -59,17 -33,0 -50,-25 -101,-68l160 51zm-210 92c0,0 -9,0 -25,-8l25 8zm50 17c0,-8 9,-8 9,-8 17,0 33,8 33,8l17 -8 0 8c0,0 -17,25 -33,25l-26 -25zm126 178c-8,17 -16,17 -25,17l-8 0c0,-9 8,-17 17,-26 16,-16 33,-33 42,-33l0 8c0,0 -9,17 -26,34zm9 92l-17 26 -8 0c0,-9 8,-17 8,-26 8,-25 8,-33 17,-33 0,0 0,17 8,33l-8 0zm-168 -8c8,0 25,17 25,25 0,9 0,34 -9,34 0,0 -8,-9 -16,-51l0 -8 0 0zm159 126c-16,25 -8,34 -16,34l-59 0c67,-26 25,-17 75,-34zm-260 168l8 0 -8 0zm-194 513l9 8 -9 -8zm101 303c9,0 9,8 9,8l8 0 -25 9 -9 0 17 -17zm-134 109c8,-8 25,-8 33,-8 9,0 17,0 17,8 0,8 -8,8 -17,17 -8,0 -16,8 -16,8 -17,0 -17,-8 -17,-17l0 -8z"/>
   <path class="fil0" d="M18745 2392c0,0 25,-5 25,-11 -6,38 9,22 -40,32l15 -21 0 0zm-206 59c-1,-6 8,-6 8,-6l9 6 -17 0zm285 -6c0,-10 0,-10 8,-10l9 5c0,0 0,5 -8,5 -9,0 -17,0 -17,6l9 5 -1 -11zm-208 22c24,-11 24,-16 32,-16 9,0 17,0 34,5l20 48c-51,-5 -42,0 -86,-37l0 0zm134 0c9,0 17,0 17,5l-25 6c-8,0 -9,-11 -9,-11l17 0zm-148 48c8,-5 8,-5 16,-5l1 10 9 11 -16 5 -9 -10c-9,-6 -9,-6 -9,-11 0,0 9,11 17,11 0,0 -9,-6 -9,-11zm-114 48l8 0c8,0 17,6 17,6l-25 0 0 -6zm108 -11c26,6 26,6 26,11l1 11 -25 5 -2 -27zm-132 33c8,0 17,0 16,-6 9,0 17,6 17,6l-33 0zm131 75c-1,-11 -10,-22 -10,-27 -1,-6 8,-6 41,-11l-31 38 0 0zm119 26c-16,0 -34,-5 -34,-10 0,-6 8,-6 16,-6l25 -5 -8 -5 1 26zm-84 -5c8,0 26,5 26,5 0,6 -9,6 -9,6 -8,0 -16,5 -16,5l-1 -16zm314 289l17 5c0,11 0,11 -8,11 0,0 -8,0 -9,-11l0 -5zm225 96c8,0 25,6 25,6l-17 0 -8 -6zm16 118l9 5 -8 6 -26 0 0 -6c0,0 0,-5 17,-5l8 0zm21 59c8,0 25,5 25,5l-16 6 -25 0 16 -11zm-73 48l1 16c1,6 0,0 -25,6l-1 -22c8,0 9,6 17,6 0,0 9,0 8,-6zm-25 -1510c8,0 17,5 17,11l1 10c0,0 -9,-5 -18,-16l0 -5zm-104 86c-1,-11 -10,-22 -10,-27 -1,-11 16,-11 41,-16 2,27 2,37 -31,43l0 0zm123 -49l17 6c17,0 17,0 17,-6l-9 -5 1 21c-8,0 -25,-5 -26,-10l0 -6zm52 16l44 38c-8,11 -7,16 -7,16l-9 0c0,0 -8,0 -16,5l-12 -59zm-147 65c0,0 9,10 17,10l9 0c0,6 -8,11 -8,11 -9,0 -9,-5 -18,-11l0 -10zm-24 32c43,5 26,5 44,16 -51,0 -34,0 -77,-16l33 0 0 0zm161 5c-26,-5 -34,-5 -34,-5l-1 -16 25 0c8,0 8,0 9,5l1 16zm-74 27c0,0 8,5 9,11l-9 -6 0 -5zm-100 11c-17,5 0,5 -25,5l-9 0c0,0 -8,0 -8,-5l42 0zm184 -11c0,5 9,11 17,11 9,0 9,0 9,5 0,5 -8,11 -8,11l-18 -27zm-263 91l-1 -16c-1,-16 7,-16 40,-22 -15,27 -23,22 -39,38l0 0zm-93 -11c-9,-5 -9,-5 -9,-10 8,0 25,5 25,5 9,0 8,-5 8,-5l9 5c0,0 -16,11 -25,11 0,0 -8,0 -8,-6zm193 0c-1,-10 -1,-10 8,-10l8 0c17,0 26,5 43,16l-59 -6 0 0zm-299 48c0,0 8,-5 16,-5l0 5c1,6 -7,11 -7,11l-9 -11zm252 6c-9,-11 -9,-16 -9,-16 -1,-6 8,0 24,-11 9,11 10,16 10,21l-8 0c-9,0 -9,0 -17,6zm-106 49l24 -16 9 10 -33 6zm101 5l16 -11 26 6c-16,10 -24,10 -24,10 -9,0 -9,-5 -18,-5zm-47 48c-9,-11 -9,-16 -9,-16 -1,-11 7,-11 23,-21l2 16c0,5 1,16 -16,21zm-202 0l42 0 1 11 -33 0 -1 -5 -9 -6zm94 16l-17 6 -1 -16c0,0 8,-6 25,-11l-7 21zm118 6c-8,5 -8,5 -8,10l17 0c0,0 -9,-5 -34,-5 -8,0 -8,0 -9,-5l34 0zm-141 21c-8,16 -8,16 -16,16l-17 0c0,0 -8,0 -9,-5 0,0 9,0 42,-11zm-75 16c18,16 27,21 27,21l-9 0c-8,0 -17,0 -33,6l-9 0c0,0 9,-6 8,-16 -1,-6 -1,-11 8,-11l8 0zm178 16c8,-5 8,-5 16,-5l8 0c1,5 -8,5 -16,5l-8 0zm-208 43c41,-16 66,-21 83,-21 8,0 9,5 9,5l9 11c-41,16 -66,21 -74,21 -17,0 -18,-11 -27,-16zm126 -5c0,0 9,5 9,10 0,-5 -9,-5 -9,-10zm-74 32l9 -6c16,0 25,11 25,11l1 5c-9,0 -17,0 -26,-5l-9 -5zm-77 -22c-7,16 -15,27 -15,27l9 5c0,0 8,-5 17,-5 0,0 8,5 9,11 0,0 0,10 -7,21l-51 -11c5,-48 14,-32 38,-48l0 0zm688 -407c-8,5 -8,5 -33,10 16,-10 7,-16 16,-16 0,0 8,0 17,6zm60 16l8 5 -16 6 8 0 0 -11zm-1097 1580c1,5 -16,16 -16,16 -7,10 -7,21 -6,32 2,32 47,69 82,91 61,32 163,53 289,53l42 0c319,-10 713,-149 711,-439l-3 -37c-28,-166 -188,-305 -364,-412 -61,-32 -138,-54 -152,-139l0 -6c-10,-144 292,-654 511,-659l16 0c9,0 26,5 43,11 0,0 62,48 121,48 25,0 50,-16 65,-43 7,-16 6,-32 5,-48 -16,-102 -167,-236 -228,-268 -35,-21 -78,-26 -120,-26l-42 0c-76,0 -159,16 -224,37 -50,11 -147,70 -188,91l-206 187c-23,38 -15,27 -54,65 -71,70 -23,37 -108,150l0 6 -97 182c1,16 -6,26 -14,37 -28,80 -26,112 -30,187 -6,22 -5,43 -4,59 11,43 38,70 100,107 123,81 285,123 383,193 53,43 82,107 95,171 3,43 -2,91 -25,129l-139 187c-32,16 -8,-5 -40,27 -31,32 -39,43 -155,64 -17,6 -25,6 -34,6l-8 0c-76,0 -96,-54 -190,-75l-16 16 0 0z"/>
   <path class="fil0" d="M22036 3415c0,-17 9,-26 17,-26 0,0 8,0 8,9 0,0 0,8 -8,8 -8,9 -8,26 -17,26l0 -17zm59 -9c0,-8 8,-8 8,-8 9,0 9,0 9,8l-17 0zm-176 -168l8 9 8 0 0 33c0,-8 0,-8 -8,-8l-8 -9c-9,-25 -9,-33 -9,-33l9 25 0 -17zm16 -59l68 34c0,0 0,17 -17,17 -9,0 -17,0 -34,-9 -17,-8 -17,-8 -17,-17l0 -25 0 0zm93 17c0,-8 8,-17 8,-17 9,0 17,9 17,17 0,8 -8,17 -8,17 -9,0 -9,-9 -17,-17zm-1068 -25c0,-9 8,-9 8,-9 0,9 0,17 -8,17l-8 0 8 -8zm109 -9c9,0 17,-8 17,-8l17 0c0,8 0,8 8,17 -16,8 -25,8 -25,8l-17 -17zm976 -92c0,0 0,-8 8,-8 0,0 8,8 8,16l0 9 -16 0 0 -17zm-1035 76c0,-9 -16,0 -16,-17l8 -17 -8 -8 42 0 -17 33c0,0 -9,0 -9,9zm211 -76l0 -8c0,-9 0,-17 16,-17 9,0 26,8 59,42l-75 -17zm-295 8c0,-8 17,-16 17,-16l9 0 -26 25 0 -9zm1009 -92l9 0c17,0 25,8 25,8l-17 0 -17 9c-8,0 -8,0 -8,-9l8 -8zm177 -17c0,-8 0,-8 8,-8l9 8 0 8 -17 -8zm-841 17c0,25 0,25 -50,25 25,-17 33,-34 50,-59l0 34 0 0zm-109 17l8 8 -8 9 0 -17zm-51 75l-75 9 16 -42 17 0c9,0 17,0 26,-9 -9,-50 -17,-59 -26,-59 -8,0 -17,9 -17,9l0 -9c0,0 0,-16 9,-42 -42,17 -25,17 -59,34l-34 -67 118 8c0,-67 -25,-59 -25,-75 0,-9 0,-17 17,-43 25,17 33,34 59,59 50,-25 25,-25 75,-33 -17,84 -67,67 -126,84 -8,17 -8,33 -8,50 0,17 17,34 50,59l-17 67 0 0zm791 -134l17 8 -26 0c0,9 9,9 9,9l0 -17zm-597 84c8,-34 17,-42 17,-51 0,0 -9,-8 -17,-25 8,-8 8,-17 17,-17 8,0 16,34 25,68l-42 25zm-345 -51l59 17c-34,51 -17,17 -59,42l0 -59 0 0zm1101 -67l-8 -8 8 8zm-126 0c34,-8 42,-17 51,-17l0 17c0,9 0,17 8,25 -25,0 -42,9 -42,9 -8,0 -8,-9 -17,-34l0 0zm-1042 51l8 -9 9 17c0,8 0,0 -9,17l-8 -25zm437 -42c0,-9 8,-17 17,-17l0 17c0,16 -9,25 -9,25 -8,0 -8,-9 -8,-25zm-219 50c0,-8 9,-17 9,-17 0,-8 -9,-17 -9,-17 0,0 9,0 34,-8 8,-8 42,-8 59,-17 -25,51 -25,51 -93,59l0 0zm143 -67c0,-17 9,-25 9,-25 8,0 8,8 8,8l0 8c0,17 -8,26 -8,26 -9,0 -9,-9 -9,-17zm841 -93c-8,17 -8,26 -17,26 0,0 -8,-9 -25,-9l42 -17zm-134 59c0,-67 16,-59 33,-76 0,0 17,0 17,17 0,9 -8,17 -17,34 -8,17 -17,8 -33,25l0 0zm-1043 -8c8,-9 17,-9 17,-9 8,0 17,9 25,17 -17,17 -17,25 -25,25 0,0 0,-16 -17,-33zm1135 -93l17 -17 8 0c0,9 -8,9 -8,17 -9,0 -17,9 -17,9l0 -9zm101 -42c-17,42 0,25 -34,42l0 -33c0,0 9,0 34,-9zm-1152 51c17,8 34,0 34,16 0,9 0,17 -9,26 0,17 -8,17 -17,17l-33 0c0,-9 0,-17 8,-34l0 -17c9,0 9,0 17,-8zm505 0l8 -9 0 9 -8 8 0 -8zm-228 33c-33,-8 -42,-17 -42,-25 0,-8 9,-25 26,-42l16 67 0 0zm-420 26c25,-34 17,-17 59,-42l0 16c0,9 0,9 -25,26 -17,8 -17,8 -25,8l-9 -8 0 0zm1228 -143l-9 -9c0,-8 0,-8 9,-8l16 8 9 0 -17 9 -8 0zm-1304 75c0,0 9,-8 9,-17 0,0 -9,-8 -9,-16 42,16 26,0 51,33l-51 0zm1354 -126c0,0 9,17 17,17 8,0 8,8 8,17 0,8 -8,17 -16,17 0,0 -9,-9 -9,-26l0 -25zm-933 59l17 17c0,8 0,8 -9,8 0,0 -8,0 -8,-8l0 -17zm59 -8c8,0 8,8 8,8 0,0 0,8 -8,8 -9,0 -17,-8 -17,-16l17 0zm-387 8c0,8 8,17 8,25 0,17 -8,25 -42,34l34 -59 0 0zm1101 -160c0,93 34,76 84,110l9 67c-9,0 -9,0 -9,8l-25 17c-25,17 -8,8 -42,17l0 -25c0,-26 9,-17 51,-34l-42 -42c0,-8 -9,-25 -17,-34 -118,34 0,59 -135,76 25,-50 17,-50 76,-76l8 0c0,0 9,0 9,-8l8 0c-17,-17 -25,-17 -42,-17l-59 0c17,-67 9,-25 126,-59l0 0zm-1042 160c8,-17 8,-25 8,-34l9 0c0,0 8,0 25,-8 0,8 -9,17 -9,25 0,9 0,9 -33,17zm1202 -101l0 17 -101 -17c17,-42 25,-34 59,-67l25 50 17 17zm-984 -34c42,17 17,-8 34,34l-25 0 0 -8c0,0 0,-9 -9,-26zm866 -50l17 17 0 17c0,0 -8,-9 -17,-26l0 -8zm219 -34l17 17 0 17c-9,0 -17,-8 -17,-17l0 -17zm-67 -8c17,8 25,8 33,8l9 0 8 34 -59 17 9 -59 0 0zm-286 34l8 -9 42 0 -8 9 8 8c-8,0 -8,8 -8,8l-17 0 -17 -8 -8 -8zm76 25c-9,-17 -9,-25 -9,-34l17 -17c8,9 8,17 8,17 0,9 0,9 -16,34zm-656 33c-42,-8 -34,-8 -51,-33l17 -17c34,25 25,8 34,50l0 0zm773 -75c0,-34 9,-42 9,-42 8,0 8,17 16,25l-25 17zm-899 -320c-42,-42 -42,0 -68,-84 68,25 34,59 152,76l33 -67c143,25 93,67 143,117l17 17 0 -8 8 17c-16,16 -8,16 -42,16 -50,-50 0,-25 -67,-84 -8,-8 -8,-8 -8,-17 0,-8 8,-8 8,-8 0,0 -8,0 -33,-8 -9,25 -17,33 -17,42 0,8 8,8 25,33l8 17 9 25c-68,26 -34,9 -76,68 -25,42 -34,42 -101,50l67 34 9 8 -25 34 0 17c-51,-17 -59,-17 -59,-26 0,-8 8,-8 8,-16 0,0 -8,-9 -25,-17 0,8 8,17 8,17 17,42 26,58 26,75 0,9 -9,17 -17,25l-93 85c42,50 76,33 118,50 -8,67 -17,17 -34,59l0 8c0,25 17,25 17,25 0,9 -8,17 -33,34 -93,0 -127,0 -135,-92 8,0 50,16 50,25l17 0c9,0 9,0 17,-9l9 0c-17,-42 8,-8 -34,-50 -17,-17 -25,-17 -42,-17 -9,0 -25,0 -42,-8l-34 -34 93 -8c16,-101 -17,-84 109,-101 -17,-67 -42,-51 -42,-76 0,-8 8,-25 17,-59 -34,9 -51,9 -59,9 8,-42 25,-34 59,-59l8 42c0,8 9,17 9,17l0 8 16 -17c26,-25 26,-33 26,-33l0 -68 -9 9c0,0 -8,0 -8,-9 0,0 0,-8 -9,-8 0,-8 -8,-8 -8,-17 0,-8 8,-17 34,-59l0 0zm92 110c8,-26 17,-34 17,-68l0 -8c0,-8 0,-8 -9,-8l-16 25c-26,-25 -26,-34 -34,-34 0,0 -8,9 -25,9l0 25c0,33 33,50 67,59l0 0zm774 143l8 -17c8,0 8,0 25,-9 34,-16 42,-25 51,-25 8,0 8,0 8,9l0 8 -92 34zm-740 -9l-9 17c-8,25 -8,17 -25,34 8,-59 0,-42 34,-68l0 17 0 0zm866 -50l8 -9 0 -8c9,0 17,0 25,8 0,9 -8,9 -8,9 0,8 8,8 8,8l-16 0c-17,0 -17,9 -17,9l8 -9c0,0 0,-8 -8,-8zm92 -42c0,0 0,16 9,16 8,0 16,9 16,9 0,8 -8,8 -16,8 0,0 -9,0 -9,-17l0 -16zm-1244 159l-34 -75c42,0 76,17 101,59l-67 16zm1127 -168l-9 34 -8 -9 -9 0 26 -25zm-143 42c0,0 8,0 8,-8l-8 8zm-665 17c-25,0 -16,-8 -25,-50 25,16 34,25 51,50l-26 0 0 0zm152 -92l8 0c9,0 9,8 9,8 0,8 -9,17 -9,17 -8,0 -8,-9 -8,-17l0 -8zm-93 25l-8 0 -25 -17c0,-17 16,-17 25,-17 17,0 33,9 42,17l-34 17zm-277 -9c-9,-16 -9,9 -25,-42l0 -16 16 0 9 25 0 33zm0 -126c8,0 8,9 17,26l0 8c0,0 0,8 -9,8 0,0 -8,-8 -8,-25l0 -17zm353 9c0,-51 8,-42 59,-59 -17,50 -17,42 -59,59zm109 -68l17 -8c0,0 8,0 8,8 0,9 -16,26 -33,26l-9 -9 17 -17zm67 -75l0 -9c9,0 17,9 17,9l0 17 -17 -17zm-395 -17c9,8 17,8 17,8 8,0 8,-8 17,-8 0,8 -9,17 -9,50 -8,-8 -16,-8 -16,-8l-9 -42 0 0zm110 -8c25,50 8,16 67,50l17 8c-26,17 0,17 -51,26 -17,0 -25,-9 -42,-9l9 -75zm201 -34c0,-8 0,-8 9,-8l25 0c-8,50 0,25 -34,42l0 -34zm-109 -118l0 -8c25,8 101,33 126,67l-50 17 0 -17c-25,-8 -51,-34 -51,-34 -8,-8 -8,-8 -17,-8 -8,25 -16,42 -16,59 0,59 50,76 109,101 -17,17 -17,17 -25,17l-25 0c-26,0 -34,0 -68,8l0 -50c-8,-26 -8,-34 -8,-34l0 8c-9,0 -9,0 -17,-8l-50 0 8 -76c25,0 34,9 42,9 0,0 0,-9 25,-17l17 -34 0 0zm-134 143c-17,-8 -34,-8 -34,-17 0,-8 0,-16 8,-33 9,-26 17,-26 26,-26l8 0 -8 76 0 0zm412 -101c0,-17 8,-17 16,-17 17,0 34,0 42,9 -25,33 0,8 -33,33l-25 -25zm-118 -33c8,0 8,8 17,8 8,0 8,0 8,8 0,9 -8,17 -17,17 0,0 -8,-8 -8,-25l0 -8zm235 16c-17,0 -25,0 -25,-16 0,-9 8,-17 8,-34l26 0c8,0 8,8 16,50l-25 0 0 0zm-160 -16l26 0 -9 8 -17 -8zm76 -76l-8 59c-51,-9 -34,0 -51,-42l59 -17 0 0zm-218 67l0 -17c0,-8 -9,-16 -9,-16 0,-9 9,-9 42,-17l25 -9c17,0 17,9 17,17l-75 42 0 0zm361 -126c9,0 17,0 17,25l0 17c0,17 -8,9 -34,17 -8,-17 -17,-25 -17,-34 0,0 0,-8 9,-25l25 0zm-303 25c0,0 9,9 17,9l0 8c0,0 -8,0 -17,-8l0 -9zm-75 26c-17,8 -25,16 -34,16 0,0 0,-8 -8,-42l25 0c8,0 0,0 17,26zm277 -9c0,-17 0,-17 9,-42 0,-17 8,-17 16,-25 9,17 9,34 9,50 0,17 -9,17 -17,17l-17 0 0 0zm-109 -8c-34,0 -51,-9 -51,-17 0,-8 17,-25 26,-42 25,25 25,25 25,59l0 0zm269 -42l0 -9 -8 9 8 0zm-210 8c-25,-17 -17,0 -25,-25l25 0 0 25zm235 -42c0,-17 9,-8 34,-17l0 9c0,8 8,16 8,16 0,0 -8,0 -42,9l0 -17zm-412 8c0,-16 9,-16 17,-33l25 17c-8,33 -8,25 -42,42l0 -26zm143 -42c-8,26 -17,34 -17,34 -8,0 -8,-17 -17,-25l34 -9zm505 -33c-42,-17 -26,0 -34,-43 8,0 17,8 17,8 8,0 8,-8 8,-8 0,0 0,8 9,43zm-337 8c-8,-8 -17,-17 -17,-25 0,-9 17,-9 17,-9l26 0c16,0 16,9 16,43l-16 0c-9,0 -9,0 -26,-9zm-59 -34l-8 9 8 8 26 0c0,9 -9,26 -17,26 -9,0 -9,-9 -9,-17l0 -26zm-168 -17l-8 8c0,9 8,9 8,9l9 0 0 17 -9 -34zm168 1111c0,50 -50,243 -50,437 0,185 42,370 210,454 51,25 93,42 135,42 59,0 109,-34 159,-84 0,-126 -42,-67 -50,-252l0 -17c0,-160 118,-496 151,-631 26,-92 68,-218 68,-319 0,-110 -42,-194 -194,-219 -25,-8 -42,-8 -59,-8 -42,0 -58,16 -101,50 -67,42 -33,0 -126,84 -33,34 -67,59 -101,101l-403 437c-17,34 -59,84 -84,84 -9,0 -9,-8 -17,-8 -17,-8 -34,-25 -34,-42 0,-160 396,-648 421,-673 84,-92 193,-202 353,-252 59,-17 109,-25 143,-25 193,0 202,185 218,227l17 0c110,0 168,-84 168,-194 0,-151 -117,-354 -370,-421 -67,-17 -142,-25 -210,-25 -151,0 -294,42 -429,92 -252,94 -521,304 -664,506l-143 252c-59,109 -151,412 -151,580l0 17c17,244 151,429 311,496 42,17 84,25 118,25 109,0 185,-67 227,-109 176,-135 193,-193 319,-370 68,-84 101,-160 168,-235l0 0zm1220 311c-9,0 -9,0 -9,8 0,9 9,17 25,17 9,0 9,0 9,8 0,9 -9,17 -17,17 -8,0 -8,0 -8,-17l0 -33zm1052 17l16 0c0,0 9,0 9,-9 0,0 -9,-8 -9,-17l42 -8 -58 34 0 0zm-1078 -17c-33,8 -42,17 -59,17 -16,0 -25,-9 -42,-9 -8,0 -33,9 -67,17 0,-17 25,-67 34,-84l134 59zm51 -135c-25,-25 -34,-42 -34,-50 0,-9 9,-9 25,-9l9 0c8,17 17,26 17,26 0,8 -9,16 -17,33l0 0zm-185 0c0,0 -9,17 -17,17l17 -17zm1102 0c9,-42 9,-50 17,-50 0,0 9,17 34,17 -25,42 0,16 -51,33l0 0zm-690 -101c-34,17 -51,25 -59,25l0 -33 59 8zm126 -42c0,0 8,9 8,17 0,0 0,-8 -8,-8l0 -9zm-76 -17c0,-8 -8,-16 -8,-16l8 0 17 25c8,8 8,17 8,17l-25 -26zm598 -25l76 9c-42,25 -59,33 -67,33 -9,0 -9,-8 -9,-17l0 -25zm-850 -17l0 -8 8 -8 -8 16zm-17 -8c-42,17 -59,25 -67,25l0 -17c0,-8 0,-8 -8,-16l-42 -68 67 0 17 17c0,9 25,51 33,59zm1086 -50l-9 -17c9,0 34,8 34,8l9 0c0,0 -9,9 -26,9l-8 0zm-1052 -76c25,42 42,50 42,59 0,8 -17,0 -25,17 -9,-9 -9,-9 -17,-9 -9,0 -17,9 -25,9l-9 -9c0,-8 9,-25 34,-67zm294 42c0,0 0,-9 -8,-9l8 9zm758 -51c0,0 -9,17 -17,17l17 -17zm-252 -16l16 -9 -16 9zm-666 -34c0,-8 9,-17 9,-17 8,0 8,0 8,17 0,8 -8,25 -17,25l0 -25zm-151 -50c8,0 17,25 17,25l8 0c17,0 17,8 17,17 0,8 -8,25 -17,25 -17,0 -25,-17 -25,-51l0 -16 0 0zm1018 -34c17,-51 9,-17 26,-51 -9,118 8,76 -51,143 9,-33 17,-67 25,-92l0 0zm-193 67c0,-8 17,-17 17,-17 17,-8 25,-8 34,-8 0,8 -17,34 -43,34l-8 -9zm-388 -25c-8,8 -17,17 -25,17l25 -25c9,-9 17,-17 25,-17l-25 25zm-218 -42c0,-17 0,-25 8,-25 8,0 17,33 17,33 8,0 17,9 17,17 0,9 -9,25 -26,25 -8,0 -16,-16 -16,-50l0 0zm269 8c0,-8 8,-8 8,-8l-8 8zm-362 -50l25 67 -92 -33 67 -34 0 0zm210 8l0 -8c0,-9 -8,-9 -8,-17l8 25zm-403 -25c0,-25 8,-34 8,-34 9,0 17,17 25,42l0 34c-16,0 -33,-25 -33,-42zm1170 -42c8,0 8,25 8,25l8 9c0,8 -8,16 -16,16l0 -50 0 0zm-261 -17c67,42 8,59 67,59l42 0c-8,0 -25,17 -25,17l-50 25 -34 -101zm-178 25c0,42 -8,51 -17,51 -8,0 -25,-9 -42,-9l59 -42 0 0zm-622 9c0,-25 0,-25 8,-25 9,0 9,8 17,25l0 8c0,9 0,17 -8,17 -9,0 -17,-17 -17,-25zm1153 -9c0,-8 17,-8 17,-16l-17 16zm-168 -8c17,-76 59,-101 118,-135l-118 135zm-261 -34c9,0 9,9 9,17 0,0 -9,0 -17,-17l8 0zm-253 9c-8,-17 -17,-17 -17,-25l9 0c8,0 33,8 33,8 9,-8 9,-8 17,-8 0,8 -17,25 -34,25l-8 0zm-261 -34c0,-8 0,-17 9,-17l16 17c9,0 17,9 17,17 0,8 -17,25 -25,25 -8,0 -17,-8 -17,-42zm-75 -143c33,-33 16,-17 42,-33l8 25c0,59 -92,84 -134,118 42,16 42,25 42,25 8,0 8,-9 33,-9 9,0 34,-16 34,-25l-42 67 -93 -50c59,-51 34,-25 76,-76 17,-17 17,-25 34,-42l0 0zm741 34c-9,67 -9,84 -9,84l0 -8 -25 16c8,-67 8,-75 8,-75 9,0 9,0 26,-17zm134 25c0,8 8,8 8,8l-8 -8zm-294 25l0 -17c8,-8 33,-42 33,-42 0,9 0,17 -8,34l-25 25zm-750 -33c-16,-17 -16,-34 -16,-42l8 0c8,0 42,16 42,16 17,-8 25,-8 25,-8 9,0 17,0 17,8 0,9 -25,42 -50,42 -9,0 -17,-8 -26,-16l0 0zm851 -143c50,17 59,17 59,17l0 16c0,17 0,34 8,68l-67 -101zm-565 109c0,-8 9,-8 9,-17l-9 17zm800 -92c9,16 17,25 17,25 0,8 -8,8 -25,33l8 -58 0 0zm-1044 8c0,-25 0,-34 9,-34 8,0 17,34 17,34 17,8 17,17 17,25 0,17 0,25 -17,25 -9,0 -17,-8 -26,-50l0 0zm1137 0c0,8 -17,25 -26,25 -8,0 -8,-8 -8,-17 8,-42 8,-50 17,-50 8,0 8,25 17,42l0 0zm-985 -76c-9,9 -9,9 -9,17 0,0 9,-8 9,-17l17 -8c0,0 -9,0 -17,8zm816 -50c-58,-9 -75,-9 -75,-17 0,0 8,0 8,-25l0 -17 67 59 0 0zm93 -177c8,0 17,26 17,26l0 33c-9,0 -9,-8 -17,-42l0 -17zm-101 0l-8 -8c0,8 8,17 8,17l0 -9zm-657 690c25,-194 210,-429 210,-622 0,-17 -8,-34 -8,-51 -25,-118 -219,-203 -387,-203 -92,0 -176,25 -227,77 -67,67 -76,252 -92,362 -76,361 -177,714 -303,1051 -34,92 -59,193 -59,277 0,101 34,193 143,252 101,59 185,84 261,84 126,0 218,-75 294,-218l471 -967c25,-34 17,-25 42,-42 8,25 17,50 17,84 0,126 -76,319 -76,513 0,59 8,117 25,176 68,227 186,311 329,311 404,0 976,-706 976,-941 0,-17 -9,-42 -17,-51 -17,-17 -34,-25 -59,-25 -168,0 -421,521 -639,521l-17 0c0,-17 -8,-42 -8,-67 0,-269 243,-681 243,-1009 0,-151 -50,-286 -201,-379 -51,-34 -93,-51 -143,-51 -59,0 -118,34 -177,93 -126,127 -505,741 -531,774 -50,59 0,17 -67,51l0 0z"/>
   <path class="fil0" d="M24997 3238l8 9 -8 -9zm67 -92c9,0 9,25 17,25l8 0c9,0 17,8 17,8 0,17 -17,25 -25,25 -8,0 -17,-8 -17,-33l0 -25zm1236 16l0 -8 9 8 -9 0zm-1017 -92c0,50 8,67 8,67l-50 0 42 -67 0 0zm202 34c0,0 8,8 8,16l-17 -8 9 -8zm-286 -34l-42 42c0,0 8,-8 16,-25l26 -17zm-76 -42c-50,84 -8,50 -118,92l118 -92zm345 -8l0 -9 33 17c17,-8 17,-8 26,-8 8,0 8,0 8,8 0,8 -17,25 -34,25 -8,0 -16,-8 -25,-17l-8 -16zm-538 -43l8 17c0,0 -8,0 -25,-17l17 0zm336 -126l0 -16 17 25c8,8 8,17 8,17 -8,0 -17,-17 -25,-26zm-219 -50c9,-25 9,-34 9,-34l-9 42 0 -8zm101 -84c9,0 17,25 17,25 8,0 8,8 8,8 0,9 -8,17 -8,17 -8,0 -17,-8 -17,-25l0 -25zm135 -17l8 25c17,9 17,17 17,25l0 17c-8,0 -17,-17 -25,-50l0 -17 0 0zm824 -17c-42,-42 -59,-33 -59,-42 0,-8 17,-17 25,-59 42,51 51,68 51,76 0,8 -9,17 -17,25zm126 -17c-9,-16 -17,-25 -17,-33l8 0c17,0 42,17 42,17 17,-9 26,-9 34,-9 0,9 -34,34 -50,34 -9,0 -9,-9 -17,-9l0 0zm-1228 -25c-8,-8 -8,-17 -8,-17 0,-8 8,-8 8,-8 17,0 34,8 34,8 17,0 25,-8 25,-8 9,0 9,8 9,8 0,9 -26,26 -42,26 -9,0 -17,0 -26,-9zm1388 -67l0 17c-9,0 -9,0 -17,-9l17 -8zm-1135 -84c0,-9 8,-9 8,-9l-8 9zm1135 -168c8,-26 8,-34 8,-34 0,0 0,25 8,34l9 0c8,0 17,8 17,8 0,17 -17,25 -26,25 -8,0 -16,-8 -16,-33zm-261 -34l0 -25c0,8 0,17 17,17l8 0 17 16c0,9 -8,17 -17,17 -8,0 -25,-8 -25,-25zm101 8c25,-42 42,-84 84,-126 17,17 17,34 17,42 0,42 -51,59 -101,84zm-866 -8c-9,-8 -9,-17 -9,-17 9,0 34,9 34,9l17 0c0,0 -17,16 -25,16 -9,0 -9,0 -17,-8zm841 -42l0 -8 8 -9 -8 17zm-824 0c8,-17 16,-17 16,-17l-16 17zm849 -101c0,-8 8,-8 8,-8 9,0 25,8 25,8l26 0c0,8 -17,25 -26,25 -8,0 -8,0 -16,-8l-17 -17zm-891 723l0 -50c0,-160 143,-395 210,-496 101,-152 185,-278 403,-278 26,0 59,9 84,9 -16,134 -50,143 -142,269 -85,134 -337,546 -530,546l-25 0 0 0zm992 -765l17 -17 0 25c0,9 -9,17 -9,17 -8,0 -8,0 -8,-8l0 -17zm185 0c0,0 0,8 8,34 -67,-34 -59,-26 -76,-118l26 34c0,8 8,8 8,16l34 34 0 0zm-1051 -76l8 26 9 0c8,0 16,8 16,8 0,8 -16,17 -25,17 -8,0 -17,0 -17,-25l9 -26zm-210 9c16,0 16,0 16,8l-8 0c-8,0 -17,0 -25,-8l17 0zm336 -17l8 17c0,0 -8,0 -17,-9l9 -8zm672 -25c0,0 -16,25 -25,25l0 -17c9,-42 17,-59 17,-59 8,0 8,34 8,51zm-605 0c0,-9 17,-9 17,-9l17 0c0,9 -9,9 -17,9l-17 0zm807 -34c0,0 9,17 9,25l-17 -16 8 -9zm-126 -34c0,9 42,17 42,43l0 33c0,25 0,34 -8,34 0,0 -9,-9 -17,-9 -8,0 -8,0 -17,9l0 -110 0 0zm-160 -117c0,-9 0,-9 9,-9 8,0 33,9 67,34 -17,17 -8,34 -17,34 -8,0 -25,-9 -59,-26l0 -33zm269 -185c26,0 34,8 34,17 0,0 -17,8 -34,8 -8,0 -16,0 -16,-8 0,-9 8,-9 8,-17l8 0zm143 -119l26 8c0,0 -9,0 -26,-8zm-92 -42c-34,59 -17,34 -59,67 17,-8 17,-17 17,-25 0,-17 -17,-17 -17,-17 0,-8 8,-8 59,-25l0 0zm143 -126l0 -42c8,0 33,33 33,42 17,17 17,25 17,25 0,-8 -8,-25 -17,-25l-33 0zm59 -34l0 -8 0 8zm-110 -59c-25,17 -25,26 -33,26 0,0 -17,-9 -42,-26l75 0 0 0zm84 -42l0 -16 17 25c9,17 17,17 17,25 -8,0 -25,-25 -34,-34zm-159 -75c8,0 25,33 25,42 8,17 17,25 17,25 0,8 0,8 -9,8 -8,0 -42,-25 -42,-33l9 -42zm168 -51l25 -8c0,8 -25,25 -42,25l-8 0 25 -17zm-93 -67c-16,0 -25,8 -25,8 0,9 9,17 9,17 0,0 -9,-8 -34,-17 42,-33 59,-50 84,-50 17,0 34,8 59,17l-34 25c0,0 0,-8 -17,-8 -8,0 -16,0 -42,8l0 0zm-33 -101c0,-25 0,-34 -9,-34l0 9c0,8 0,17 17,17l9 0c8,0 8,8 8,8 0,8 -8,25 -17,25 0,0 -8,-8 -8,-25zm134 -76c-17,51 0,42 -42,68l42 -68zm160 -25c17,17 17,25 17,25 0,0 -17,-33 -34,-42l0 -8 17 25zm-59 -143c9,0 34,25 34,34l0 8c0,9 -9,17 -17,17 -8,0 -17,-8 -17,-25l0 -34zm-67 -84l8 9 -8 -9zm-715 1246c-50,-26 -67,-42 -126,-68 -50,-16 -109,-25 -176,-25 -42,0 -85,0 -127,9 -100,16 -176,42 -252,100 -67,42 -151,84 -202,143 -235,227 -479,791 -479,1161 0,134 34,243 109,302 85,59 169,84 261,84 101,0 210,-33 294,-84 160,-101 236,-193 362,-336 59,-67 109,-118 160,-185 33,-50 101,-168 151,-202l0 177c0,765 320,1076 504,1076 43,0 85,-17 101,-50 9,-17 9,-26 9,-42 0,-93 -84,-177 -118,-295 -34,-117 -42,-244 -42,-378 0,-320 67,-656 126,-908 109,-463 303,-1027 497,-1422 76,-143 185,-311 185,-463 0,-67 -17,-126 -75,-185 -76,-84 -153,-109 -220,-109 -151,0 -278,151 -362,286 -185,294 -462,1405 -479,1439l-101 -25 0 0z"/>
  </g>
 </g>
</svg>
