<?xml version="1.0" encoding="UTF-8"?>
<!DOCTYPE svg PUBLIC "-//W3C//DTD SVG 1.1//EN" "http://www.w3.org/Graphics/SVG/1.1/DTD/svg11.dtd">
<!-- Creator: CorelDRAW X8 -->
<svg xmlns="http://www.w3.org/2000/svg" xml:space="preserve" width="4.9815in" height="5.28724in" version="1.1" style="shape-rendering:geometricPrecision; text-rendering:geometricPrecision; image-rendering:optimizeQuality; fill-rule:evenodd; clip-rule:evenodd"
viewBox="0 0 369 392"
 xmlns:xlink="http://www.w3.org/1999/xlink">
 <defs>
  <style type="text/css">
   <![CDATA[
    .fil0 {fill:black;fill-rule:nonzero}
   ]]>
  </style>
 </defs>
 <g id="Layer_x0020_1">
  <metadata id="CorelCorpID_0Corel-Layer"/>
  <g id="_1452137765264">
   <g>
    <path class="fil0" d="M99 126c0,-7 50,-23 55,-12 5,11 -14,91 -2,90 11,0 61,-83 84,-110 2,-2 37,-9 38,-5 1,6 -51,122 -63,181 0,1 -1,10 -1,11 0,6 0,12 -2,14 -4,4 -28,4 -30,1 -14,-22 42,-129 37,-132 -17,-11 -76,114 -79,117 -3,3 -14,4 -16,3 -18,-6 6,-104 -3,-107 -9,-3 -24,46 -39,88 -10,30 -12,60 -27,65 -4,1 -19,4 -16,-2 7,-18 47,-119 62,-171 5,-19 3,-25 2,-31z"/>
    <path class="fil0" d="M269 267c3,12 4,10 3,15 -1,4 -43,15 -51,7 -1,-1 5,-9 7,-12 12,-15 63,-157 62,-172 0,-9 -3,-14 0,-15 12,-9 42,-12 41,-7 -1,5 -12,27 -23,56 -19,51 -42,120 -39,128z"/>
   </g>
   <path class="fil0" d="M280 65c0,0 50,-7 47,-11 -158,-145 -385,26 -314,222 0,0 13,-316 267,-211z"/>
   <path class="fil0" d="M102 334c0,0 -49,12 -45,16 171,128 380,-63 290,-251 -3,30 10,165 -85,229 -37,25 -91,32 -160,6z"/>
  </g>
 </g>
</svg>
