<?xml version="1.0" encoding="UTF-8"?>
<!DOCTYPE svg PUBLIC "-//W3C//DTD SVG 1.1//EN" "http://www.w3.org/Graphics/SVG/1.1/DTD/svg11.dtd">
<!-- Creator: CorelDRAW X8 -->
<svg xmlns="http://www.w3.org/2000/svg" xml:space="preserve" width="18.6696in" height="3.19803in" version="1.1" style="shape-rendering:geometricPrecision; text-rendering:geometricPrecision; image-rendering:optimizeQuality; fill-rule:evenodd; clip-rule:evenodd"
viewBox="0 0 25929 4441"
 xmlns:xlink="http://www.w3.org/1999/xlink">
 <defs>
  <style type="text/css">
   <![CDATA[
    .fil0 {fill:black;fill-rule:nonzero}
   ]]>
  </style>
 </defs>
 <g id="Layer_x0020_1">
  <metadata id="CorelCorpID_0Corel-Layer"/>
  <g id="_1452143828672">
   <path class="fil0" d="M3041 4033c0,-16 8,-24 16,-24 8,0 8,8 8,8l0 8c0,16 -8,24 -16,24 0,0 -8,0 -8,-16zm72 -112l-8 0c0,0 -8,0 -8,-8l16 -16 0 24zm-96 -24l0 16c0,8 0,8 -8,8 -8,0 -24,0 -56,-16 8,-8 8,-8 8,-16 0,-8 -8,-8 -8,-8l64 0c0,0 -8,0 -8,8l8 8zm-112 -24c8,0 16,8 16,16l-16 0 -16 8 0 -8 16 -16zm256 -40c8,0 8,8 8,8l-8 8 0 -16zm-128 16c-8,0 -24,-8 -24,-16 0,-8 0,-8 8,-8l8 0c16,0 16,8 16,8 0,8 -8,16 -8,16zm-40 -56l-16 24 -8 0c-8,0 -16,0 -40,8l0 -24c0,-8 0,-8 16,-16 24,-16 32,-16 40,-16 8,0 8,0 8,8l0 16zm104 -16c0,-8 8,-24 16,-24l0 16c0,8 -8,16 -8,16l-8 -8zm40 -16c0,-8 8,-8 16,-8l0 8c0,8 0,24 -8,24 0,0 0,-8 -8,-24zm-2801 -72c8,0 16,8 16,16l-16 0c0,0 -8,0 -8,8l8 8 0 -32zm2713 24c-8,-8 -8,-8 -16,-8 -8,0 -8,8 -8,8l0 8c8,0 8,-8 8,-24l0 -16 8 -8 8 40zm-2689 -64c8,0 16,8 16,8l-16 0c0,0 -16,8 -24,8 0,0 0,-8 8,-16l16 0zm2601 -40c16,-24 24,-32 48,-32 8,0 16,0 32,8l0 32 -32 0c0,0 -8,8 -16,8 -8,0 -24,-8 -32,-16zm144 0l0 -40c0,-8 0,-8 16,-24 0,8 24,0 24,32 -8,24 -16,16 -40,32zm-48 -64c8,0 16,8 16,8l-8 0c0,0 -8,8 -16,8l0 -16 8 0zm-2721 0c8,0 8,-8 16,-8l0 32c-8,0 -8,8 -16,8 0,0 0,-8 -8,-32l8 0zm72 -16c0,-8 8,-16 8,-16 0,0 8,8 8,16 0,0 0,8 -8,8l-8 16 0 -24zm-304 -24c0,-16 8,-24 16,-24 8,0 8,0 8,8l0 8c0,16 -8,24 -16,24 0,0 -8,-8 -8,-16zm2841 -40c64,0 64,8 88,48 -24,-8 -40,-8 -56,-8 -24,0 -32,0 -32,-40zm112 -16l24 24c0,0 -16,0 -24,16 0,-8 -16,0 -16,-16l16 -24zm-2705 40c8,-40 24,-64 40,-64 16,0 24,16 24,56l-64 8zm-80 -56c16,24 24,24 24,24 0,8 0,16 -8,24l-16 -48zm256 16c0,8 -8,16 -8,16l-8 8 0 -16 16 -8zm2737 -24c-32,-16 -40,0 -40,-48l40 48zm-392 -48c0,-8 8,-16 8,-16 8,0 24,8 24,16 0,8 -8,8 -16,8 -8,0 -16,8 -16,16l0 -24zm-2401 -16c0,-8 -8,-8 -8,-8l56 0c0,8 0,8 8,16 -24,16 -32,16 -40,16 -8,0 0,-8 -24,-16l8 -8zm-128 32c16,-56 8,-16 40,-64 16,16 24,32 24,40 0,16 -24,16 -64,24zm2729 -8c-24,0 -40,8 -56,8 -24,0 -40,-8 -72,-32 16,-8 16,-16 16,-16l0 -8c0,0 8,8 56,16l16 0c24,0 32,-8 32,-8 0,0 0,8 8,40zm-2769 -24c-16,0 -32,-16 -32,-16 0,-8 8,-8 16,-8l40 0c0,0 -8,-8 -16,-8 -8,0 -8,0 -8,8l0 24zm2657 -72c0,-16 8,-16 16,-16 0,0 8,0 8,8 0,0 0,8 -8,8 -8,0 -8,16 -16,16l0 -16zm48 0c8,-8 16,-40 40,-40 8,0 16,0 32,16 8,8 16,8 16,8 0,0 0,8 8,24 -24,0 -40,8 -48,8 -8,0 -24,-8 -48,-16zm-2697 0c0,-8 0,-24 8,-24l8 8 8 0c8,0 8,0 8,8 0,0 -8,0 -16,8l-8 8c0,0 0,-8 -8,-8zm2873 -48c0,0 8,0 8,16l-8 24 0 48 -16 0 -8 8 0 -16c0,-40 -8,-56 -8,-72 0,0 0,-8 8,-8l24 0zm-320 72c16,-56 8,-40 80,-56 -24,48 0,32 -80,56zm-2625 -88c16,8 16,8 24,8l8 8c8,24 8,16 8,48 -40,-24 -16,-32 -40,-64zm1601 8c0,-16 8,-16 16,-16 8,0 8,0 8,8l0 8c0,8 0,16 -8,16 -8,0 -8,0 -16,-16zm-1481 8c8,-8 16,-24 16,-24 0,0 8,8 16,40l-32 -16zm2769 -24c0,-16 8,-32 16,-32l0 16c0,8 0,24 -8,24l-8 -8zm112 -24c-8,16 -8,16 -8,24l-40 0 8 -8 0 -8c0,0 8,0 40,-8zm-184 32c16,-32 24,-40 32,-40 0,0 8,8 16,32l-48 8zm-2777 -56l16 -8c-8,24 -8,16 -16,32l0 -24zm128 -32c16,-8 24,-8 32,-8 16,0 16,8 16,16 0,8 0,24 -8,32 -48,-16 -24,-24 -40,-40zm2609 0c0,-8 8,-16 8,-16 8,0 8,8 8,16 0,16 0,24 -8,24l-8 -24zm-1320 24l8 -8c0,-8 -8,-8 -8,-8 0,-8 8,-8 32,-8 16,0 24,0 24,8l0 8 -56 8zm1232 -24c8,-56 0,-32 40,-56 -8,40 -8,40 -40,56zm-2609 -48c8,0 8,8 8,8l0 8c-16,16 -24,16 -32,16 0,0 0,-8 -8,-16l32 -16zm1529 0l48 0 -8 8 -40 -8zm-1289 8c0,8 -8,8 -16,8 0,0 -8,0 -8,-8l24 0zm2721 -32c0,0 8,8 8,16l-8 0c-8,0 -8,8 -8,8l0 8 8 -32zm-160 16c0,-16 8,-24 16,-24l0 16c0,16 0,16 -8,16 0,0 -8,0 -8,-8zm-136 -16c8,0 8,-8 8,-8 8,0 16,16 16,16l-8 0 -16 8c0,0 -8,0 -8,-8l8 -8zm-968 24l32 -24 -16 32c0,0 0,-8 -8,-8l-8 0zm-360 -24c0,-16 8,-32 16,-32l0 24c0,16 0,16 -8,16l-8 -8zm144 -32c8,16 8,24 8,32 0,16 -8,16 -24,24l16 -56zm-1313 -32c0,0 16,-24 40,-24 8,0 24,16 32,72 -24,-8 -32,0 -48,-16 -16,-8 -24,-16 -24,-16l8 0c0,-8 0,-8 -8,-16zm2865 -16l16 -8c0,8 -8,16 -16,16l0 -8zm-1672 -8l40 8 0 24 -32 0 0 -16c0,0 0,-8 -8,-16zm1544 -16c0,32 0,48 -8,48 -8,0 -16,-8 -32,-24 16,-24 8,-16 40,-24zm-1480 16c24,-16 24,-16 32,-16l-8 8 16 0c8,0 8,0 8,-8l56 -16 0 56c-8,0 -24,-8 -24,-8l-40 0c-16,0 -8,8 -16,8l-24 -24zm200 -56l-56 40 16 -8 40 -32zm-1505 -8c64,24 32,0 56,48 -8,8 -24,8 -32,8 -16,0 -24,-16 -24,-56zm-120 24l24 72c-24,-32 -32,-48 -32,-56 0,-8 0,-8 8,-8l0 -8zm1497 -40c0,-16 8,-24 8,-24 8,0 16,16 16,24 0,8 -8,16 -16,16 0,0 -8,-8 -8,-16zm1504 0c-24,16 -40,16 -48,16 -16,0 -16,-8 -32,-16l8 -8 0 -8 56 0c16,0 16,0 16,8l0 8zm-1672 -16c16,24 24,32 24,40 0,16 -8,16 -40,40 0,-8 -8,-8 -8,-8l-8 0 0 -40 16 -48c0,0 0,16 16,16zm-1393 0c0,-16 8,-16 8,-16 8,0 16,8 16,16l8 24 0 -8c0,-8 0,-8 -16,-8 -8,0 -8,8 -8,8 0,0 0,-8 -8,-16zm2801 64c40,-40 24,-48 64,-96 64,8 72,0 88,64 -72,-16 -8,-32 -104,-32 8,40 8,64 8,80 0,32 0,48 -16,48 -16,0 -48,-32 -72,-48l32 -16zm-1152 -80c0,-8 8,-16 16,-16 0,0 8,8 8,16l-16 32c0,0 -8,-8 -8,-32zm-192 0l16 -8c32,-8 32,-8 64,-8 -16,24 -32,40 -48,40 -8,0 -16,0 -32,-8l0 -16zm-1233 48c16,-40 24,-48 32,-48l8 0c8,0 24,0 24,8 0,0 -8,8 -24,16l-8 16 0 8 -32 0zm1153 -80c0,-16 8,-16 16,-16 8,0 8,0 8,16 0,16 -8,16 -8,16 -8,0 -16,-8 -16,-16zm-993 -8c24,0 8,0 32,8 -16,8 -24,16 -32,16l-16 -16 16 -8zm2553 24c0,-32 32,-56 56,-72l8 40 -64 32zm-112 -48c0,0 0,-8 8,-8 8,0 16,8 40,24l-16 8c-16,0 -16,0 -16,8 0,0 0,-8 -16,-16l0 -16zm-88 -24c0,0 8,8 8,16 0,8 0,24 -8,24 0,0 0,-8 -8,-24l8 -16zm-2489 16l8 -8c8,0 16,8 16,8l-16 0 -8 8 0 -8zm-80 0c0,-16 8,-16 8,-16 8,0 8,0 8,8 0,0 0,8 -8,8l0 16 -8 -16zm1753 -56c16,16 16,16 16,24l0 24c-8,-16 -16,-8 -16,-16l0 -32zm-144 64l-16 8 -8 -8c0,-8 8,-16 16,-16 8,0 16,8 16,16l-8 0zm-392 -56c0,32 8,40 8,40 -8,0 -8,0 -24,8l16 -48zm-104 40c8,-8 16,-8 16,-8l8 0c0,8 -8,8 -16,8l-8 0zm1568 -40c8,0 8,-8 16,-8 8,0 24,8 24,16 0,0 -8,8 -16,8l-8 0c-8,0 -16,-8 -16,-8l0 -8zm-2529 -64l16 88 -56 -48 40 -40zm-128 32c0,0 16,8 16,16 0,0 0,8 -8,8 0,0 -24,0 -24,-8 0,-8 8,-8 16,-16zm-64 0c0,-8 8,-16 8,-16 8,0 8,8 8,16 0,8 -8,16 -8,16 0,0 -8,-8 -8,-16zm2761 -16c40,0 64,-8 64,-8 8,0 8,0 8,8 0,0 -8,0 -8,8 0,8 8,8 8,16l-32 0c-24,-16 -32,-16 -32,-16l-8 -8zm-2425 -32c0,0 8,8 8,16l-8 8 0 -24zm2489 -24c48,16 40,0 56,40 -8,0 -8,8 -8,8 0,0 -8,-8 -24,-16 -16,-16 -16,-24 -16,-24l-8 -8zm120 24c8,-8 -8,-32 64,-48 -32,40 -40,40 -48,40 -8,0 -8,0 -16,8zm-264 -24c8,-8 8,-8 16,-8 8,0 16,0 16,8 0,0 -8,8 -16,8l-8 0c0,0 -8,0 -8,-8zm-1304 -24c40,0 24,0 48,16 -16,8 -24,16 -32,16 -8,0 0,-24 -16,-32zm-1193 32c-16,-16 -16,-16 -24,-40l88 -16c-16,32 -40,40 -64,56zm2721 -88l8 8 8 -8c0,8 0,16 -8,32l0 24 -8 0c-8,0 -8,0 -24,8 -8,-24 -8,-32 -8,-40 0,-8 8,-16 32,-24zm-1632 0c8,-8 8,-8 16,-8 8,0 16,16 16,48l-16 -16 0 -8c0,-8 -8,-8 -16,-16zm648 -56c0,0 -8,0 -8,8 0,8 8,16 8,24l-24 -8 0 -8c0,0 0,-8 -8,-16l32 0zm-1529 16c0,-16 8,-24 16,-24l0 16c0,8 -8,24 -8,24l-8 -16zm-152 -56c32,32 16,24 32,88 -32,-16 -48,-24 -48,-40 0,-8 8,-24 16,-48zm2705 24l48 8c0,8 0,8 -8,8 0,0 -24,40 -56,48l16 -64zm-104 -8c0,0 8,8 8,24l0 24 8 -8c0,-8 0,-16 -16,-16 -8,0 -8,8 -8,8l8 -32zm-64 -24c-8,56 8,32 -40,48l0 -40c0,0 8,0 40,-8zm-1665 16c33,24 16,8 41,32l-25 -8c0,-8 0,-8 -16,-24zm1881 0c0,-8 8,-16 8,-16l8 8c0,8 0,8 -8,8l0 16 -8 -16zm-1768 -32c0,-16 8,-24 8,-24l8 8c0,8 0,8 -8,16l-8 16 0 -16zm-1073 8c8,-8 16,-8 16,-8 8,0 8,8 8,8l0 16 -24 -16zm160 0l-56 -16 -48 0c16,-48 16,-32 72,-48l32 64zm816 -48c9,-8 17,-8 17,-8l-8 8 -9 0zm1769 -32c0,-16 8,-24 8,-24 8,0 16,16 16,24 0,8 -8,24 -8,24 -8,0 -8,-8 -16,-24zm176 0c-8,-16 -8,-16 -8,-24l8 24zm-304 -24c16,0 24,8 24,8l8 -8c0,0 0,8 8,32l-32 0 0 -8 -8 -24zm-2633 24c8,-24 8,-32 16,-32 0,0 8,8 24,8 -24,24 0,16 -40,24zm2809 -32c24,8 32,8 40,8 8,0 8,0 32,-8 -8,32 -32,48 -56,72l-16 -72zm-2601 72c-16,-32 -24,-56 -24,-80l0 -40c40,0 48,8 72,24 0,24 -8,32 -8,32 -8,0 -16,-8 -32,-8 8,24 16,32 16,40 0,0 -8,8 -24,32zm873 -72c0,0 -8,0 -40,-16l0 -8c0,-8 0,-8 8,-8 8,0 16,0 32,16l0 16zm-793 -32l8 -8 -8 16 0 -8zm-232 -56c24,-8 40,-8 48,-8 16,0 8,8 24,48l-72 24 0 -64zm2849 24c8,-8 16,-8 16,-8 16,0 24,8 24,16l-24 0c0,0 -16,8 -24,8 0,0 0,-8 8,-16zm-152 16l-8 0c-8,0 -8,0 -8,-16l0 -40 16 56zm56 -64c56,24 48,8 56,56 -64,0 -32,-24 -56,-56zm152 -48c16,16 16,8 16,16l0 32 -16 -48zm-1056 48c16,-32 24,-32 32,-32l48 0c-8,32 -16,32 -40,32l-40 0zm-1657 0c0,-8 -8,-24 -8,-32 0,-40 32,-72 64,-80l-56 112zm-160 -24c-16,16 -24,16 -24,16 -8,0 -8,-8 -24,-24l48 8zm2657 -40c40,16 16,0 32,32 -24,0 -32,0 -32,-8 0,0 8,0 8,-8 0,-8 0,-8 -8,-16zm-88 24c0,-16 8,-24 16,-24 0,0 8,8 8,16 0,0 0,8 -8,8l-8 0 -8 16 0 -16zm-1432 0c8,-8 16,-8 16,-8 8,0 16,8 16,8 0,8 0,8 -16,16l-8 0c-8,0 -8,-8 -8,-16zm1664 -16c0,-16 8,-16 8,-16 8,0 16,0 16,8l-8 8c0,8 0,24 -8,24 0,0 -8,-8 -8,-24zm-2889 0c8,-8 24,-16 40,-16 0,8 0,8 -8,16 -8,8 -16,16 -24,16l-8 -16zm2849 16c0,-8 -8,-8 -8,-8 -8,0 -16,8 -16,8l0 -32c8,-24 8,-32 16,-32l8 8 8 -8 -8 64zm-152 -32c0,0 -8,0 -8,-8l8 8zm-1576 8c16,-16 8,-8 32,-16l0 16 -16 16c-8,-16 0,-8 -16,-16zm-969 -32l24 8c0,0 0,-8 16,-8l8 -8 48 -16c-24,24 -32,32 -40,32 0,0 0,8 -24,72 -8,32 -8,24 -24,32l-8 -112zm40 8c-8,0 -8,0 -8,8l16 8 0 -8 -8 -8zm841 -24c8,0 8,-8 8,-8l0 -8c8,0 8,0 24,8l16 8 0 8 -48 -8zm1696 -72c0,0 8,0 8,8l-8 0c-8,0 -16,0 -16,8 0,8 8,8 8,8l8 -24zm-2337 -32c16,16 24,24 24,32 0,8 -8,16 -16,32 -8,-16 -16,-24 -16,-32 0,-8 0,-16 8,-32zm2513 24c16,-16 24,-32 32,-32 8,0 16,8 24,32 -16,8 -16,8 -24,8 -8,0 -16,0 -32,-8zm-88 -8c64,16 48,0 64,56 -72,-16 -40,0 -64,-56zm-2385 -24l8 8 -8 -8zm-144 40c8,-32 0,-32 24,-64l40 8 -24 32 -40 24zm-200 -64c8,-8 8,-16 16,-16 8,0 16,8 16,8 0,8 -8,8 -16,8 -8,0 -16,8 -16,8l0 -8zm2921 -24c0,-8 8,-16 8,-16l8 8c0,8 0,8 -8,8l0 16 -8 -16zm-2521 -8l8 8 0 8 -8 -8 0 -8zm-296 112c-24,-8 -32,-8 -32,-16 0,-16 8,-24 8,-56 0,-56 0,-40 56,-48 -16,40 -16,64 -16,72l0 16c0,8 0,16 -16,32zm2073 -112c0,-16 8,-16 8,-16 8,0 8,0 8,8 0,0 0,8 -8,8l0 16 -8 -16zm-192 0c0,-16 8,-24 16,-24l0 32 -16 -8zm656 -16c16,-8 24,-8 32,-8 16,0 24,16 24,56l-56 -48zm-2401 -104c32,24 48,24 72,72l-24 16c-8,0 -8,-8 -8,-8l0 -16 16 16c0,0 -8,-8 -24,-32 -16,-32 -16,8 -32,-48zm2513 56l0 32c-48,-16 -16,8 -40,-32l40 0zm-2537 0l16 8 -8 16 0 24c0,8 0,0 -24,16l16 -64zm1833 8l-16 -40c32,8 24,0 32,24l-16 16zm968 -48l0 16 -32 8c8,-24 16,-24 16,-32l16 8zm-1976 -24l32 24 -8 8c-8,0 -16,-8 -48,-16l24 -16zm-857 0c0,0 8,8 8,16l0 32c-8,0 -8,-8 -16,-32l8 -16zm2737 0c0,-16 8,-24 16,-24 0,0 8,0 8,8 0,8 -8,8 -16,16l0 16 -8 -16zm-200 -24c8,0 24,0 24,24 0,40 -8,24 -24,32 -8,-16 -16,-24 -16,-32 0,0 8,-8 16,-24zm-584 0c8,0 8,0 8,8 0,0 0,8 -8,8l0 -16zm696 24c56,-32 24,-32 64,-40l-8 56c0,16 -16,40 -24,56l-32 -72zm-40 -40c0,-16 8,-24 16,-24 8,0 16,0 16,8 0,0 -8,8 -16,8l0 8 -8 16c0,0 -8,-8 -8,-16zm-1824 40c8,-40 0,-40 40,-48l0 16c0,16 0,24 -40,32zm1072 -56c0,0 24,-24 32,-24l8 8 -16 16c0,0 -16,8 -24,8l0 -8zm-936 -16c0,-8 8,-16 16,-16l8 8 -8 8c0,8 0,24 -8,24 0,0 -8,-8 -8,-24zm1808 -16c0,-8 8,-8 8,-8l0 24 -8 -16zm-32 8c-8,8 -8,16 -16,16 0,0 0,-8 -16,-8l0 -8c0,-8 0,-8 8,-8 8,0 16,0 24,8zm-152 -8c0,-8 8,-8 16,-8l0 16c-8,0 -16,8 -16,8l0 -16zm-552 -8c24,-16 32,-24 40,-24l0 16 -40 8zm-2001 48c-24,-8 -40,-16 -48,-16l32 -64 16 80zm2801 -72c16,0 24,8 24,8l-16 0 -16 8 0 -16 8 0zm-2721 8c8,0 16,0 16,8l-24 0 0 -8 8 0zm-208 -8c-8,-8 -8,-16 -8,-16l16 16 0 16c0,0 0,-8 -8,-16zm840 -8l8 0c8,0 25,8 25,8 0,8 0,8 -8,8 -9,0 -25,0 -25,-8l0 -8zm-592 -24c16,24 24,40 24,48 0,8 -8,8 -8,8l-16 0c-8,-32 -16,-40 -16,-48 0,0 8,0 16,-8zm2561 0c8,-8 8,-8 16,-8 16,0 24,16 24,24 0,0 -8,0 -16,-8l-8 -8 -16 0zm-2505 -16c32,16 24,-8 32,40 -32,-8 -40,-8 -40,-8 0,-8 8,-16 8,-32zm617 8l8 0 0 8 -16 0 8 -8zm1752 -24l8 0c8,0 16,8 16,16 0,0 -8,0 -16,-8l-8 -8zm-528 8c0,-8 16,-24 24,-24l0 16c0,8 -8,24 -16,24 0,0 -8,-8 -8,-16zm-1937 8l-32 0 8 -16c0,0 -8,-8 -16,-8l40 24zm144 -40c0,-8 8,-24 8,-24l0 32 -8 -8zm2449 16l24 -88c56,16 56,16 64,72l-40 0 -8 8 -40 8zm-2569 -56l0 -8c0,0 0,8 8,8l16 8 0 8c32,-48 8,-24 56,-48l0 72 -24 0c-16,0 -48,0 -64,-32l8 -8zm2497 -8c0,0 8,8 8,16l-8 0 0 16 -8 -16 8 -16zm-2353 0l8 -8c8,0 8,0 16,8l8 0 0 8c0,8 8,16 8,24 -8,0 -16,-8 -48,-32l8 0zm-240 -81c32,8 48,24 48,57 0,8 0,24 -8,40 -16,-16 -24,-24 -24,-32l0 -16c0,-9 0,-25 -16,-49zm2233 121l-72 0 24 -81c24,17 8,33 32,65 8,16 16,24 16,24 0,-8 -8,-16 -8,-16l8 8zm-1448 -56l-32 -8 0 -17c0,0 0,-8 -8,-16l40 41zm-385 -41l0 8c0,8 0,8 -8,8l-8 17 0 -25 16 -8zm2553 33l-16 0c-8,0 -16,0 -16,-8 0,-9 16,-17 24,-17l8 0 0 25zm-136 -105c8,16 16,32 16,48 0,8 -8,16 -16,24 -8,16 -24,16 -32,16 -24,0 -32,-16 -48,-24 16,-24 16,-24 24,-24 0,0 0,8 8,8 8,0 24,-8 48,-48zm-2729 8c16,-8 24,-8 40,-8 32,0 56,16 56,40 0,8 0,16 -8,24 -24,-40 -32,-48 -40,-48l-16 0c-8,0 -16,0 -32,-8zm2529 0c32,16 48,16 56,16l32 0 0 16c0,8 0,8 -16,8l-24 0c-40,0 -48,-16 -48,-32l0 -8zm-1696 16c0,0 0,-8 8,-8 16,0 24,0 24,8 0,0 -8,8 -24,8l-8 -8zm-697 64c0,-8 -16,-16 -16,-32 0,0 8,-8 8,-24 16,-24 16,-32 24,-32 8,0 8,8 8,8l8 16c0,24 -16,48 -32,64zm561 -96c8,-8 16,-8 24,-8 8,0 16,8 16,8 0,8 -8,8 -16,16l-16 0c-8,0 -8,0 -8,-8l0 -8zm2040 -96l8 8 24 40c8,8 8,8 8,16l24 32c-32,-16 -64,-32 -128,-48l64 -48zm-800 80l8 -8 0 16 -8 0 0 -8zm720 -16c0,-16 8,-24 16,-24 8,0 8,8 8,24l0 8c0,8 0,16 -8,16 0,0 -8,-8 -16,-24zm-72 -48c16,16 8,0 24,32l8 16 0 24c-32,-8 -48,-8 -48,-24 0,-8 8,-24 16,-48zm-608 32c0,-8 8,-16 16,-16 8,0 8,8 8,8l0 8c0,8 -8,24 -16,24 0,0 -8,-8 -8,-24zm-1761 -8c16,16 24,16 24,24l0 24c-8,0 -8,-8 -16,-8l-16 -8 0 -8c8,0 8,-8 8,-24zm-104 40c16,-24 32,-40 48,-56l0 56 -16 -8c-8,0 -16,8 -32,8zm2705 -40c0,-16 8,-16 8,-16 8,0 16,8 16,16l-8 0c-16,0 -16,8 -16,8l0 -8zm-368 0c0,-8 8,-16 16,-16l8 8 0 8 -8 0c-8,0 -16,8 -16,8l0 -8zm-2425 0c0,-16 8,-24 16,-24 8,0 16,8 16,16l-8 8c-16,8 -24,8 -24,8l0 -8zm2097 0c16,-16 24,-16 24,-16 8,0 16,8 16,16l-40 0zm-2201 -40c16,16 24,24 24,40 0,8 0,16 -8,24l-8 8c-8,0 -8,-8 -16,-40l0 -32 8 0zm2913 0c0,-16 -8,-16 -8,-24 0,-8 8,-8 16,-24 16,16 16,24 16,32l-8 0c-8,0 -8,0 -16,16zm-592 -40c32,8 56,24 56,48 0,8 0,24 -16,40 -8,-8 -16,-16 -24,-32 -16,-32 -16,-48 -16,-56zm240 0c0,-8 8,-16 8,-16 8,0 16,8 16,16 -24,8 -32,16 -32,16 0,0 8,-8 8,-16zm-2217 -48c16,16 8,0 32,24l16 16 0 24c-48,-8 -40,0 -48,-64zm-216 40c48,8 48,8 48,48 -40,-8 -40,-8 -40,-16 0,-8 0,-16 -8,-32zm104 32c-8,-16 -16,-24 -16,-32 0,-8 8,-8 32,-16l-16 48zm505 -40c8,-24 8,-24 24,-40l72 32 -24 8c-32,0 -40,8 -48,8 -8,0 -8,-8 -24,-8zm-337 -32c0,-8 8,-24 16,-24l0 24c0,16 0,16 -8,16l-8 -16zm-344 0l24 0 0 24c0,0 0,-8 -8,-8 0,0 -8,8 -16,8l0 -24zm2081 -24c0,-8 8,-16 8,-16l8 8c0,8 0,8 -8,8l-8 0c-8,0 -16,0 -16,8l8 8c8,0 8,-8 8,-16zm-1336 -32l32 8 0 40c-8,-8 -16,-8 -24,-8l-8 -40zm-673 32l120 -48c-16,56 -8,56 -64,64 0,0 -8,0 -8,8l-16 0c-24,0 -32,8 -32,8l0 -32zm2761 -24c8,0 16,0 16,-8l-8 -8 -8 16c0,16 -8,24 -8,24 -8,0 -8,-8 -16,-24l24 0zm-280 16l40 -16c24,32 16,24 48,40l56 -40c0,0 0,-8 8,-8 16,24 16,40 16,56 0,16 -8,32 -16,56l-48 -40 -8 8 8 8 -48 8 -56 0c0,-8 8,-8 8,-8l40 -40 -48 -24zm-408 0l-8 8c0,0 0,-8 8,-16l0 8zm-1921 -48c24,8 40,0 88,40l0 16c0,0 0,8 -8,8 -8,0 -24,-8 -40,-8 -24,-8 -32,-16 -32,-24l0 -8c0,-8 0,-16 -8,-24zm2505 -16l64 8 -8 64c-8,-8 -8,-16 -8,-16l-8 -8 -40 -48zm-1840 32c8,-16 8,-24 8,-32l0 -8 24 24c-8,8 -32,16 -32,16zm1688 -8c16,-32 40,-72 72,-80 24,16 16,16 24,48 -40,32 -40,24 -96,32zm-376 -56c32,24 56,32 72,32 16,0 32,-8 56,-16l112 -24c-8,8 -8,16 -8,16l-16 8c-32,24 -48,32 -56,32 -16,0 -24,-16 -40,-24 0,8 8,8 8,16 0,8 -8,24 -24,48 -56,-32 0,-32 -88,-40 -24,-8 -40,0 -40,-16 0,0 8,-16 24,-32zm624 0c0,-8 8,-8 8,-8 8,0 8,8 8,16l0 8c-16,0 -16,8 -16,16l0 -32zm-336 16l8 -8c0,16 0,24 -16,48l8 -40zm-2113 64c32,-64 48,-32 80,-96l0 24c0,48 -24,72 -80,72zm409 -88c0,-8 8,-16 8,-16 8,0 8,8 8,16 0,8 0,16 -8,16l-8 -16zm-473 40c-48,-24 -32,0 -40,-56l40 0c8,0 8,0 8,8 0,8 0,16 -8,48zm2697 -88c0,40 0,48 -8,48 -8,0 -16,0 -40,-8 8,-16 8,-24 8,-32 0,-8 0,-8 8,-8l32 0zm-744 40c8,-8 8,-8 8,-16 0,-8 0,-8 16,-8 32,-8 40,-16 48,-16 0,8 -8,8 -8,16l0 8c-24,24 -40,32 -48,32 -16,0 -16,-8 -16,-16zm-2193 -24c32,-8 48,-16 56,-16 16,0 16,16 40,40 -16,8 -8,8 -40,8 -48,0 -48,0 -48,-8l0 -8c0,-8 0,-8 -8,-16zm2305 -8l8 -8c0,-8 -8,-16 -8,-16 0,0 8,8 24,8l-24 16zm-2177 40c8,-40 8,-48 16,-48l56 0c-24,32 0,8 -32,32 -16,8 -32,16 -40,16zm2577 -24c16,-24 16,-32 16,-32l8 8c0,0 8,0 16,-8 32,-8 40,-16 48,-16 8,0 16,8 24,16l8 24 -40 8 -80 0zm-2377 -64c16,16 24,32 24,48 0,24 -24,48 -40,72 -16,-24 -16,8 -16,-56l0 -48c0,-8 8,0 32,-16zm489 16l8 0 -8 8 0 -8zm-393 -8l16 64c-40,-24 -32,-32 -56,-48l40 -16zm2257 0l32 0c0,8 -8,16 -16,16 -8,0 -8,-8 -16,-8l0 -8zm-304 -8l8 -16c8,0 8,8 8,16l0 8c-8,0 -16,0 -16,-8zm-1857 -8c24,16 32,16 32,16l8 0c8,0 8,0 16,24 -8,8 -16,8 -24,8 -8,0 -24,0 -40,-8 -64,-24 -48,-16 -56,-80l64 40zm-352 8c0,-16 8,-24 8,-24l8 24c0,8 -8,16 -8,16l-8 -16zm2809 -40c8,8 8,16 8,16 0,8 -8,8 -16,16l8 -32zm-2328 -8c-8,32 -16,40 -24,40 -8,0 -16,-8 -32,-16l56 -24zm-641 32l-8 -8 32 0 -16 8 -8 0zm552 -16c0,8 -8,16 -16,16 0,0 -8,-8 -8,-16 8,-16 16,-24 16,-24 0,0 8,16 8,24zm2201 24c16,-64 8,-56 72,-72 -8,16 -8,24 -8,24 0,0 -8,0 -24,16 -16,16 -16,24 -16,24 0,0 -8,0 -24,8zm-1944 -24c-48,-8 -48,-8 -48,-16l0 -8c0,-8 0,-16 -8,-24 56,16 40,-8 56,48zm1528 -48c-24,32 0,24 -40,40 -8,0 -24,8 -32,8 -8,0 -8,-8 -8,-8l0 -24c24,-16 32,-24 40,-24 8,0 24,8 40,8zm-2169 -40c16,16 8,0 16,24l24 80c-32,-8 -56,-24 -56,-56 0,-8 8,-24 16,-48zm2665 -16c8,8 16,16 16,24 0,8 -8,8 -24,16 -40,0 0,-16 -72,-24l-16 56 -40 -40 -16 72 -32 -40c-16,16 -32,24 -40,24 -8,0 -16,-8 -48,-24l0 -32c0,0 8,-8 32,-8 16,0 48,8 104,8 16,-24 56,-56 88,-56 24,0 40,8 48,24zm-2393 64c8,-8 0,-32 40,-32 24,0 48,8 88,16 -32,24 -56,32 -80,32 -16,0 -32,-8 -48,-16zm353 -40l8 8 -8 -8zm-465 -40c0,8 0,24 -8,48 0,24 -8,24 -16,24l-24 0c-8,0 -8,0 -8,-16l0 -24c8,-24 16,-32 16,-32l40 0zm257 -160c104,-8 48,-16 216,-64 -8,16 -16,24 -24,24 -8,0 -8,-8 -16,-8 -8,0 -16,16 -32,72l-72 -8c8,40 24,8 48,56 -8,0 -8,8 -8,8l-56 32c80,32 56,0 72,48l-16 8 0 -8 -40 0c-24,0 -8,8 -24,16 40,48 40,8 48,56l-24 0c-56,0 -32,-24 -105,-40 8,-8 8,-16 8,-24l8 8 8 -8c9,0 17,-8 17,-8 8,0 8,8 16,8l16 -16c8,-8 8,-8 8,-24 -40,16 -48,24 -48,24 -9,0 -9,-8 -25,-40l16 0 49 -16 -40 -96zm1704 128c24,16 40,16 40,48l0 24 -40 -72zm-1536 32l0 -8 24 0c0,8 -8,8 -16,8l-8 0zm1736 -72c16,16 24,24 24,32 0,8 0,16 -24,32l40 40c-48,24 -64,8 -64,64 120,32 112,-24 152,96l-152 -16 -64 -80c0,-8 8,-16 8,-16 0,0 8,-8 8,-24 0,-8 0,-16 -8,-24l8 0 40 -16c-32,-32 -32,-16 -40,-64l72 -24zm-1688 48c0,0 8,0 8,-8l-8 8zm1808 40c-32,-8 -56,-8 -56,-40l0 -16c0,-24 8,-24 16,-24 8,0 24,0 48,8l0 40c0,8 0,16 -8,32zm-2369 16c-8,-16 -8,8 -8,-32l0 -32c0,-32 16,-40 24,-40l8 0 -8 72 0 8 -16 24zm-136 -64c0,-24 56,-24 88,-24 -16,24 0,16 -32,32 -16,8 -32,16 -40,16 -16,0 -8,-16 -16,-24zm248 -32l-16 -8 0 -8c0,0 0,-8 -8,-16 24,-16 32,-24 48,-24 16,0 16,24 24,48 0,0 0,16 -16,16 -8,0 -16,0 -32,-8zm56 72c16,-64 16,-80 40,-80 16,0 32,0 56,8 -8,-32 -16,-48 -16,-56 0,-8 8,-8 32,-8 8,16 8,24 8,40 0,24 -16,16 -16,40 0,8 0,16 8,40 0,0 -8,-8 -24,-8 -8,0 -24,8 -48,24 -16,16 -16,24 -16,32l0 16c0,8 -8,16 -48,40 -24,16 -32,16 -40,16l-8 0c0,0 -8,8 -32,16 -32,16 -32,24 -32,32 0,8 0,16 -32,32 -8,-16 -8,-24 -8,-32 0,-24 40,-32 72,-64 48,-40 48,-64 48,-72l0 -8c0,-8 0,-8 56,-8zm2025 -176l16 32 0 8 -16 -8 0 -32zm-2209 56c-24,-8 -16,0 -32,-16 24,8 16,0 32,16zm2737 -32l-16 -8 0 -16c0,0 8,0 8,-8l0 -8 8 40zm-2489 -24c-8,24 -8,40 -16,40 -8,0 -16,-8 -56,-16l16 -16 -8 -8c0,0 8,0 40,-8l24 0 0 8zm2401 8c-72,-8 -40,8 -56,-40 24,8 40,8 40,8l8 0c0,8 8,16 8,32zm-352 -16c40,-48 56,-40 56,-56 0,-8 0,-24 -16,-48l24 32c-8,32 -8,0 -24,48 8,16 16,32 32,48l16 -40c40,48 32,56 72,72 16,-16 16,-32 16,-40 0,-16 -16,-24 -16,-32 0,0 8,-16 32,-32 8,16 8,32 8,56 0,32 0,56 -8,72l-32 32c72,0 56,0 64,-80l32 0 0 8 16 8 40 8c-8,56 -16,72 -32,104 -24,-8 -40,-16 -56,-16 -24,0 -56,16 -112,40 0,-8 32,-88 32,-88 0,-8 8,-16 8,-16 0,-8 -8,-8 -24,-16l-8 0c0,0 0,8 -16,8l-24 0c-16,0 -8,-8 -80,-72zm248 96l8 0c8,0 16,8 16,8l-8 -48 -16 40zm-2409 -120c0,24 0,32 -8,32l-8 0c0,0 -8,0 -16,8 0,-32 -8,-48 -8,-64 0,-8 8,-8 16,-16 8,8 32,0 32,24l-8 16zm-112 8l0 -8 24 8 16 0c0,8 -8,16 -16,16l-24 -16zm176 -80c-8,-8 -24,-16 -40,-32 -24,-16 -24,-8 -32,-40 72,8 8,8 72,56 64,40 40,-8 56,80 40,-32 64,-32 88,-64l65 32c-16,8 -24,8 -32,8l-16 0c-9,0 -9,8 -57,80 -40,-24 -32,-16 -56,-56l-72 16c0,-48 -8,-56 -8,-56l8 8c0,0 8,-8 24,-32zm-144 24l-8 8 8 -8zm2201 -48c8,8 16,8 32,8l-24 24c-8,-8 -16,-8 -16,-8 0,0 8,-8 8,-24zm-1736 40l0 -16 16 8 16 0c0,0 -8,8 -24,8l-8 0zm1968 -32c64,-32 40,-8 72,-48 16,8 24,8 40,16 16,0 32,8 40,8 8,0 16,-8 24,-8 0,8 -8,16 -16,40 -16,0 -48,-16 -64,-16 -24,0 -32,-8 -32,-8l-8 8c0,8 0,16 -8,32l64 24c-16,16 -24,24 -32,24 -16,0 -32,-16 -80,-32 -40,-16 -32,0 -72,-24l16 -48 48 24c0,0 8,0 8,8zm-2096 -8c-24,-16 -32,-8 -32,-8l0 -8c0,0 0,-8 -9,-24 41,16 25,-8 41,40zm-137 0c-8,-16 -8,-24 -8,-32 0,-8 8,-8 24,-32 48,0 40,0 48,64l-64 0zm217 -24c0,-24 24,-24 64,-32 -8,32 -8,48 -24,48 -8,0 -24,-8 -40,-16zm1928 -48c16,16 24,8 24,16 0,0 0,8 -16,24 -8,-8 -16,-16 -16,-24 0,0 8,-8 8,-16zm112 0c8,16 16,24 16,24 0,8 -16,0 -40,16l24 -40zm-2289 -8l0 16c8,0 8,8 8,8l0 8c-8,0 -8,0 -16,-16l8 -16zm2433 24c0,-8 8,-8 8,-8l-8 8zm-352 -32c0,-8 8,-8 8,-8l16 8 8 0c8,0 8,0 8,8 0,0 -8,8 -16,8 0,0 -8,0 -16,-8l-8 -8zm-1969 0c0,-24 16,-16 49,-24l0 32 -8 0c-8,0 -16,0 -41,8l0 -16zm2233 0l-8 -16c-8,-16 -8,-24 -8,-32 0,0 8,8 16,8 8,0 8,8 8,8l0 -8c8,0 8,8 8,48l-16 -8zm136 -32l24 0c0,0 -16,8 -24,8l0 -8zm-2545 -24c0,8 0,16 -24,40 -8,-8 -8,-16 -8,-24 0,-8 16,-8 16,-16l16 0zm257 -24l8 16c0,8 -8,0 -16,16l8 -32zm2008 -24l32 0c16,-8 24,-8 48,-8l0 56c-32,-8 -48,-16 -64,-16l-16 0c0,0 -8,0 -32,-16l32 -16zm-1696 2441c-40,-40 -48,-216 -48,-464 0,-480 48,-1209 48,-1593 0,-64 0,-128 -8,-168 -16,-144 -72,-176 -168,-224 -112,-64 -241,-144 -369,-144 -32,0 -64,8 -96,16 -80,16 -128,152 -168,224l-40 80c-88,152 -240,560 -264,600l-488 1385c-32,88 -32,160 -72,232 -56,120 -120,368 -176,512 -24,72 -40,152 -40,224 0,96 32,192 120,248 80,56 136,112 248,144 32,16 72,32 112,32 8,0 24,-8 32,-8 40,-16 40,-24 40,-24l0 -24c48,-112 72,-264 104,-392 104,-416 232,-808 352,-1216l400 -1161 40 56c24,-8 40,-8 56,-8 25,0 49,0 65,16 -8,16 -8,16 -16,16l-65 0 -56 8c8,48 24,96 24,144l-8 32 -16 473 0 64c0,256 -24,544 -24,816 0,136 8,264 24,384 16,96 0,88 64,152 49,40 177,128 257,152 24,8 40,8 56,8 80,0 144,-72 208,-136 192,-216 504,-704 648,-968 136,-240 360,-584 472,-801l48 -96 48 -72 32 -56 0 -8 -16 -8 -8 0 -8 -8 0 -64c32,8 32,16 48,16 8,0 24,-8 56,-40 -16,80 -32,136 -64,208 -16,40 -16,72 -24,120l-72 169c-24,56 0,16 -32,112 -16,64 -48,136 -64,200 -16,48 -24,56 -40,104l-32 104c-72,208 -104,440 -176,648 -48,136 -64,296 -96,424 -24,96 -40,232 -40,352 0,48 0,88 8,128 48,224 48,232 192,344 88,72 192,104 312,104 48,0 96,-8 144,-16 32,-56 40,-104 40,-160 0,-56 -8,-112 -8,-200 0,-56 0,-120 8,-200 56,-560 208,-1120 336,-1664 80,-352 200,-697 288,-1041 32,-112 64,-216 64,-304 0,-72 -24,-136 -88,-200 -64,-48 -120,-88 -208,-128 -112,-56 -136,-56 -272,-64l-272 384c-40,104 -136,216 -200,328 -16,32 -40,56 -56,88 -40,72 -136,264 -200,328l-112 160c-72,105 -48,113 -144,249l-88 168c-48,96 -88,112 -152,256 -32,64 -72,80 -104,152l-208 344c-96,136 -40,56 -88,152z"/>
   <path class="fil0" d="M5186 3249c0,-16 8,-24 16,-24 0,0 8,0 8,8 0,0 0,8 -8,8 -8,8 -8,24 -16,24l0 -16zm56 -8c0,-8 8,-8 8,-8 8,0 8,0 8,8l-16 0zm-168 -160l8 8 8 0 0 32c0,-8 0,-8 -8,-8l-8 -8c-8,-24 -8,-32 -8,-32l8 24 0 -16zm16 -56l64 32c0,0 0,16 -16,16 -8,0 -16,0 -32,-8 -16,-8 -16,-8 -16,-16l0 -24zm88 16c0,-8 8,-16 8,-16 8,0 16,8 16,16 0,8 -8,16 -8,16 -8,0 -8,-8 -16,-16zm-1017 -24c0,-8 8,-8 8,-8 0,8 0,16 -8,16l-8 0 8 -8zm104 -8c8,0 16,-8 16,-8l16 0c0,8 0,8 8,16 -16,8 -24,8 -24,8l-16 -16zm929 -88c0,0 0,-8 8,-8 0,0 8,8 8,16l0 8 -16 0 0 -16zm-985 72c0,-8 -16,0 -16,-16l8 -16 -8 -8 40 0 -16 32c0,0 -8,0 -8,8zm200 -72l0 -8c0,-8 0,-16 16,-16 8,0 24,8 56,40l-72 -16zm-280 8c0,-8 16,-16 16,-16l8 0 -24 24 0 -8zm961 -88l8 0c16,0 24,8 24,8l-16 0 -16 8c-8,0 -8,0 -8,-8l8 -8zm168 -16c0,-8 0,-8 8,-8l8 8 0 8 -16 -8zm-801 16c0,24 0,24 -48,24 24,-16 32,-32 48,-56l0 32zm-104 16l8 8 -8 8 0 -16zm-48 72l-72 8 16 -40 16 0c8,0 16,0 24,-8 -8,-48 -16,-56 -24,-56 -8,0 -16,8 -16,8l0 -8c0,0 0,-16 8,-40 -40,16 -24,16 -56,32l-32 -64 112 8c0,-64 -24,-56 -24,-72 0,-8 0,-16 16,-40 24,16 32,32 56,56 48,-24 24,-24 72,-32 -16,80 -64,64 -120,80 -8,16 -8,32 -8,48 0,16 16,32 48,56l-16 64zm753 -128l16 8 -24 0c0,8 8,8 8,8l0 -16zm-569 80c8,-32 16,-40 16,-48 0,0 -8,-8 -16,-24 8,-8 8,-16 16,-16 8,0 16,32 24,64l-40 24zm-328 -48l56 16c-32,48 -16,16 -56,40l0 -56zm1049 -64l-8 -8 8 8zm-120 0c32,-8 40,-16 48,-16l0 16c0,8 0,16 8,24 -24,0 -40,8 -40,8 -8,0 -8,-8 -16,-32zm-993 48l8 -8 8 16c0,8 0,0 -8,16l-8 -24zm416 -40c0,-8 8,-16 16,-16l0 16c0,16 -8,24 -8,24 -8,0 -8,-8 -8,-24zm-208 48c0,-8 8,-16 8,-16 0,-8 -8,-16 -8,-16 0,0 8,0 32,-8 8,-8 40,-8 56,-16 -24,48 -24,48 -88,56zm136 -64c0,-16 8,-24 8,-24 8,0 8,8 8,8l0 8c0,16 -8,24 -8,24 -8,0 -8,-8 -8,-16zm801 -88c-8,16 -8,24 -16,24 0,0 -8,-8 -24,-8l40 -16zm-128 56c0,-64 16,-56 32,-72 0,0 16,0 16,16 0,8 -8,16 -16,32 -8,16 -16,8 -32,24zm-993 -8c8,-8 16,-8 16,-8 8,0 16,8 24,16 -16,16 -16,24 -24,24 0,0 0,-16 -16,-32zm1081 -88l16 -16 8 0c0,8 -8,8 -8,16 -8,0 -16,8 -16,8l0 -8zm96 -40c-16,40 0,24 -32,40l0 -32c0,0 8,0 32,-8zm-1097 48c16,8 32,0 32,16 0,8 0,16 -8,24 0,16 -8,16 -16,16l-32 0c0,-8 0,-16 8,-32l0 -16c8,0 8,0 16,-8zm481 0l8 -8 0 8 -8 8 0 -8zm-217 32c-32,-8 -40,-16 -40,-24 0,-8 8,-24 24,-40l16 64zm-400 24c24,-32 16,-16 56,-40l0 16c0,8 0,8 -24,24 -16,8 -16,8 -24,8l-8 -8zm1169 -136l-8 -8c0,-8 0,-8 8,-8l16 8 8 0 -16 8 -8 0zm-1241 72c0,0 8,-8 8,-16 0,0 -8,-8 -8,-16 40,16 24,0 48,32l-48 0zm1289 -120c0,0 8,16 16,16 8,0 8,8 8,16 0,8 -8,16 -16,16 0,0 -8,-8 -8,-24l0 -24zm-889 56l16 16c0,8 0,8 -8,8 0,0 -8,0 -8,-8l0 -16zm56 -8c8,0 8,8 8,8 0,0 0,8 -8,8 -8,0 -16,-8 -16,-16l16 0zm-368 8c0,8 8,16 8,24 0,16 -8,24 -40,32l32 -56zm1049 -152c0,88 32,72 80,104l8 64c-8,0 -8,0 -8,8l-24 16c-24,16 -8,8 -40,16l0 -24c0,-24 8,-16 48,-32l-40 -40c0,-8 -8,-24 -16,-32 -112,32 0,56 -128,72 24,-48 16,-48 72,-72l8 0c0,0 8,0 8,-8l8 0c-16,-16 -24,-16 -40,-16l-56 0c16,-64 8,-24 120,-56zm-993 152c8,-16 8,-24 8,-32l8 0c0,0 8,0 24,-8 0,8 -8,16 -8,24 0,8 0,8 -32,16zm1145 -96l0 16 -96 -16c16,-40 24,-32 56,-64l24 48 16 16zm-937 -32c40,16 16,-8 32,32l-24 0 0 -8c0,0 0,-8 -8,-24zm825 -48l16 16 0 16c0,0 -8,-8 -16,-24l0 -8zm208 -32l16 16 0 16c-8,0 -16,-8 -16,-16l0 -16zm-64 -8c16,8 24,8 32,8l8 0 8 32 -56 16 8 -56zm-272 32l8 -8 40 0 -8 8 8 8c-8,0 -8,8 -8,8l-16 0 -16 -8 -8 -8zm72 24c-8,-16 -8,-24 -8,-32l16 -16c8,8 8,16 8,16 0,8 0,8 -16,32zm-625 32c-40,-8 -32,-8 -48,-32l16 -16c32,24 24,8 32,48zm737 -72c0,-32 8,-40 8,-40 8,0 8,16 16,24l-24 16zm-857 -304c-40,-40 -40,0 -64,-80 64,24 32,56 144,72l32 -64c137,24 89,64 137,112l16 16 0 -8 8 16c-16,16 -8,16 -40,16 -48,-48 0,-24 -65,-80 -8,-8 -8,-8 -8,-16 0,-8 8,-8 8,-8 0,0 -8,0 -32,-8 -8,24 -16,32 -16,40 0,8 8,8 24,32l8 16 8 24c-64,24 -32,8 -72,64 -24,40 -32,40 -96,48l64 32 8 8 -24 32 0 16c-48,-16 -56,-16 -56,-24 0,-8 8,-8 8,-16 0,0 -8,-8 -24,-16 0,8 8,16 8,16 16,40 24,56 24,72 0,8 -8,16 -16,24l-88 80c40,48 72,32 112,48 -8,64 -16,16 -32,56l0 8c0,24 16,24 16,24 0,8 -8,16 -32,32 -88,0 -120,0 -128,-88 8,0 48,16 48,24l16 0c8,0 8,0 16,-8l8 0c-16,-40 8,-8 -32,-48 -16,-16 -24,-16 -40,-16 -8,0 -24,0 -40,-8l-32 -32 88 -8c16,-96 -16,-80 104,-96 -16,-64 -40,-48 -40,-72 0,-8 8,-24 16,-56 -32,8 -48,8 -56,8 8,-40 24,-32 56,-56l8 40c0,8 8,16 8,16l0 8 16 -16c24,-24 24,-32 24,-32l0 -64 -8 8c0,0 -8,0 -8,-8 0,0 0,-8 -8,-8 0,-8 -8,-8 -8,-16 0,-8 8,-16 32,-56zm88 104c8,-24 16,-32 16,-64l0 -8c0,-8 0,-8 -8,-8l-16 24c-24,-24 -24,-32 -32,-32 0,0 -8,8 -24,8l0 24c0,32 32,48 64,56zm737 136l8 -16c8,0 8,0 24,-8 32,-16 40,-24 48,-24 8,0 8,0 8,8l0 8 -88 32zm-705 -8l-8 16c-8,24 -8,16 -24,32 8,-56 0,-40 32,-64l0 16zm825 -48l8 -8 0 -8c8,0 16,0 24,8 0,8 -8,8 -8,8 0,8 8,8 8,8l-16 0c-16,0 -16,8 -16,8l8 -8c0,0 0,-8 -8,-8zm88 -40c0,0 0,16 8,16 8,0 16,8 16,8 0,8 -8,8 -16,8 0,0 -8,0 -8,-16l0 -16zm-1185 152l-32 -72c40,0 72,16 96,56l-64 16zm1073 -160l-8 32 -8 -8 -8 0 24 -24zm-136 40c0,0 8,0 8,-8l-8 8zm-633 16c-24,0 -16,-8 -24,-48 24,16 32,24 49,48l-25 0zm145 -88l8 0c8,0 8,8 8,8 0,8 -8,16 -8,16 -8,0 -8,-8 -8,-16l0 -8zm-88 24l-8 0 -24 -16c0,-16 16,-16 24,-16 16,0 32,8 40,16l-32 16zm-265 -8c-8,-16 -8,8 -24,-40l0 -16 16 0 8 24 0 32zm0 -120c8,0 8,8 16,24l0 8c0,0 0,8 -8,8 0,0 -8,-8 -8,-24l0 -16zm337 8c0,-48 8,-40 56,-56 -16,48 -16,40 -56,56zm104 -64l16 -8c0,0 8,0 8,8 0,8 -16,24 -32,24l-8 -8 16 -16zm64 -72l0 -8c8,0 16,8 16,8l0 16 -16 -16zm-377 -16c8,8 16,8 16,8 8,0 8,-8 16,-8 0,8 -8,16 -8,48 -8,-8 -16,-8 -16,-8l-8 -40zm105 -8c24,48 8,16 64,48l16 8c-24,16 0,16 -48,24 -16,0 -24,-8 -41,-8l9 -72zm192 -32c0,-8 0,-8 8,-8l24 0c-8,48 0,24 -32,40l0 -32zm-104 -112l0 -8c24,8 96,32 120,64l-48 16 0 -16c-24,-8 -48,-32 -48,-32 -8,-8 -8,-8 -16,-8 -8,24 -16,40 -16,56 0,56 48,72 104,96 -16,16 -16,16 -24,16l-24 0c-24,0 -32,0 -64,8l0 -48c-8,-24 -8,-32 -8,-32l0 8c-8,0 -8,0 -16,-8l-48 0 8 -72c24,0 32,8 40,8 0,0 0,-8 24,-16l16 -32zm-129 136c-16,-8 -32,-8 -32,-16 0,-8 0,-16 8,-32 8,-24 16,-24 24,-24l8 0 -8 72zm393 -96c0,-16 8,-16 16,-16 16,0 32,0 40,8 -24,32 0,8 -32,32l-24 -24zm-112 -32c8,0 8,8 16,8 8,0 8,0 8,8 0,8 -8,16 -16,16 0,0 -8,-8 -8,-24l0 -8zm224 16c-16,0 -24,0 -24,-16 0,-8 8,-16 8,-32l24 0c8,0 8,8 16,48l-24 0zm-152 -16l24 0 -8 8 -16 -8zm72 -72l-8 56c-48,-8 -32,0 -48,-40l56 -16zm-208 64l0 -16c0,-8 -8,-16 -8,-16 0,-8 8,-8 40,-16l24 -8c16,0 16,8 16,16l-72 40zm344 -120c8,0 16,0 16,24l0 16c0,16 -8,8 -32,16 -8,-16 -16,-24 -16,-32 0,0 0,-8 8,-24l24 0zm-288 24c0,0 8,8 16,8l0 8c0,0 -8,0 -16,-8l0 -8zm-72 24c-16,8 -24,16 -32,16 0,0 0,-8 -8,-40l24 0c8,0 0,0 16,24zm264 -8c0,-16 0,-16 8,-40 0,-16 8,-16 16,-24 8,16 8,32 8,48 0,16 -8,16 -16,16l-16 0zm-104 -8c-32,0 -48,-8 -48,-16 0,-8 16,-24 24,-40 24,24 24,24 24,56zm256 -40l0 -8 -8 8 8 0zm-200 8c-24,-16 -16,0 -24,-24l24 0 0 24zm224 -40c0,-16 8,-8 32,-16l0 8c0,8 8,16 8,16 0,0 -8,0 -40,8l0 -16zm-392 8c0,-16 8,-16 16,-32l24 16c-8,32 -8,24 -40,40l0 -24zm136 -40c-8,24 -16,32 -16,32 -8,0 -8,-16 -16,-24l32 -8zm480 -32c-40,-16 -24,0 -32,-41 8,0 16,8 16,8 8,0 8,-8 8,-8 0,0 0,8 8,41zm-320 8c-8,-8 -16,-16 -16,-24 0,-9 16,-9 16,-9l24 0c16,0 16,9 16,41l-16 0c-8,0 -8,0 -24,-8zm-56 -33l-8 9 8 8 24 0c0,8 -8,24 -16,24 -8,0 -8,-8 -8,-16l0 -25zm-160 -16l-8 8c0,8 8,8 8,8l8 0 0 17 -8 -33zm160 1057c0,48 -48,232 -48,416 0,176 40,352 200,432 48,24 88,40 128,40 56,0 104,-32 152,-80 0,-120 -40,-64 -48,-240l0 -16c0,-152 112,-472 144,-600 24,-88 64,-208 64,-304 0,-104 -40,-184 -184,-208 -24,-8 -40,-8 -56,-8 -40,0 -56,16 -96,48 -64,40 -32,0 -120,80 -32,32 -64,56 -96,96l-384 416c-16,32 -56,80 -80,80 -8,0 -8,-8 -16,-8 -17,-8 -33,-24 -33,-40 0,-152 377,-616 401,-640 80,-88 184,-192 336,-240 56,-16 104,-24 136,-24 184,0 192,176 208,216l16 0c104,0 160,-80 160,-184 0,-144 -112,-337 -352,-401 -64,-16 -136,-24 -200,-24 -144,0 -280,40 -408,88 -240,89 -497,289 -633,481l-136 240c-56,104 -144,392 -144,552l0 16c16,232 144,408 296,472 40,16 80,24 112,24 104,0 176,-64 216,-104 169,-128 185,-184 305,-352 64,-80 96,-152 160,-224z"/>
   <path class="fil0" d="M6562 3065c-8,-8 -8,-16 -8,-24l8 0c8,0 24,8 24,8l24 -8 0 8c0,0 -16,16 -32,16l-16 0zm184 -64c0,-16 8,-24 16,-24 0,0 8,8 16,32l8 16c0,8 -8,16 -8,16 -16,0 -32,-24 -32,-40zm-248 16l-8 8 8 -8zm48 -16l0 -32c0,-32 16,-24 64,-32l-64 64zm128 -80l-8 16 8 -16zm-240 -32c0,-8 -8,-16 -8,-16l-8 8c0,8 8,16 24,16l8 0c16,0 16,8 16,8 0,16 -8,24 -24,24 -8,0 -16,-8 -16,-24l8 -16zm360 -56l8 24c8,8 16,16 16,24 0,8 -8,16 -8,16 -8,0 -16,-16 -16,-48l0 -16zm-184 16c-8,-16 -8,-16 -8,-24 0,-8 0,-8 8,-8 8,0 32,16 32,16l32 0c0,8 -16,24 -40,24 -8,0 -16,0 -24,-8zm-248 -24c8,-24 16,-40 16,-40 8,0 16,16 16,40 0,16 -8,24 -16,24 -8,0 -16,0 -16,-16l0 -8zm-272 -64c56,0 56,0 88,8 -32,24 -64,40 -104,40 -24,0 -56,-8 -88,-16l104 -32zm176 -40l32 88c-40,-16 -56,8 -80,-40l0 -24c0,-24 16,-24 32,-24l16 0zm192 112c-40,-104 -56,-120 -72,-120 -8,0 -16,8 -16,8 -8,0 -16,-8 -32,-48 8,-8 16,-8 24,-8 8,0 16,8 32,8 48,16 88,40 88,104l8 24c0,24 -16,8 -32,32zm168 -192c16,-56 -8,-32 40,-64 8,8 8,24 8,24 0,24 -8,24 -24,24l-32 0c0,0 16,8 64,40l-80 24c40,-24 48,-32 48,-32l0 -8c-8,0 -8,8 -8,8l-16 -8 0 -8zm-576 -96c88,40 40,16 112,80l-56 88c-32,-16 -32,-24 -48,-48l80 -8 -88 -112zm736 112c-24,8 -40,16 -56,16l-8 -8 0 -16c40,-16 64,-24 64,-24l8 0c0,8 -8,16 -8,24l0 8zm-248 -112c-8,128 16,72 -64,104l-24 -24c80,-32 16,-24 88,-80zm-528 64c16,0 24,8 24,8 0,8 0,8 -8,8 -8,0 -16,0 -32,-16l16 0zm552 -80c0,0 -8,8 -8,16 0,16 8,24 24,24 8,0 8,0 8,8 0,8 -8,16 -16,16 0,0 -8,0 -8,-16l0 -48zm-208 -48c40,16 56,24 56,24 0,0 -8,-8 -8,-24l0 -16 72 16c-88,144 -72,48 -144,160 -32,-40 -32,-40 -32,-48l-40 -16c-32,40 -32,48 -32,56l-48 24c16,-56 24,-104 24,-176l128 96c24,-24 32,-40 32,-48 0,-24 -32,-32 -32,-40 0,0 8,0 24,-8zm-224 72c0,-8 8,-8 16,-8l-16 8zm512 0l0 -72c0,0 8,8 24,8 8,0 16,-8 24,-8l-48 72zm-72 -80c0,8 -8,8 -24,8 -8,0 -24,0 -40,-8l96 -40 8 32c0,0 -8,0 -40,8zm-32 -80c24,8 32,16 32,24 0,0 -8,8 -24,8 -8,0 -24,-8 -24,-16 0,0 8,-8 8,-16l8 0zm-520 16c40,0 48,8 56,8 8,0 16,-8 40,-56 0,32 8,32 8,40 0,0 -8,0 -24,40 -32,-8 -48,-8 -56,-8l-8 0c-8,0 -16,-8 -48,-24l32 0zm688 -64c0,0 8,24 16,24l8 0c16,0 16,8 16,16 0,8 -8,16 -16,16 -16,0 -24,-8 -24,-32l0 -24zm-280 80c16,-72 8,-40 48,-72 0,56 0,72 -8,72 0,0 0,-8 -16,-8 0,0 -8,0 -24,8zm464 -88l-8 0c0,0 -16,8 -40,16 16,-64 -8,-32 48,-80l0 64zm-600 -104l-24 0c-8,0 -8,0 -8,8 0,8 8,24 8,64 48,-24 72,-32 104,-48 40,-16 40,-16 48,-24l64 72c-136,32 -96,80 -176,136l-32 -40c-48,-72 -56,-72 -56,-88l0 -72 72 -8zm-8 168c48,0 64,8 64,8l0 -16c0,-8 0,-16 8,-32 8,-16 16,-24 16,-32 0,-24 -32,-32 -40,-40 -40,56 -32,56 -48,112zm-224 -184c40,-16 88,-40 120,-56l0 72 -48 0 -72 -16zm160 -40c16,-16 16,-24 16,-24l-16 24zm896 -88c0,8 0,24 16,24 8,0 16,8 16,8 0,8 -8,16 -16,16 -8,0 -16,0 -16,-24l0 -24zm-1056 56c-8,-8 -8,-16 -8,-24 8,0 32,16 32,16 16,-8 24,-8 32,-8 0,8 -16,24 -32,24 -8,0 -16,0 -24,-8zm408 -128c0,-8 16,-24 24,-24 8,0 8,8 8,24 0,16 -8,24 -16,24 -8,0 -16,-8 -16,-24zm-208 48c8,0 16,-8 16,-8l104 -80c32,-32 40,-56 40,-64l-8 -16c0,-8 16,-8 88,-24l24 48c-32,24 -40,24 -64,24l-48 0c8,32 8,48 8,64 0,40 -16,8 -40,136 -32,-32 -80,-56 -120,-80zm952 -136l-48 0 -8 -24 56 24zm-880 -56c32,40 40,64 40,72l-8 8c-8,0 -16,-8 -24,-8 0,0 -8,0 -16,8l8 -80zm8 -40l-8 -8 48 0c0,0 -16,8 -32,8l-8 0zm-120 -8c32,-48 0,-24 40,-64 48,-48 80,-64 104,-64 40,0 48,56 48,56l-192 72zm1112 -64c0,-8 -8,-8 -8,-8 -8,0 -8,8 -16,8 0,0 -8,-16 -32,-56 24,8 32,8 40,8l8 0c8,0 8,0 8,8l0 40zm-744 464c64,-192 400,-656 568,-656 16,0 32,0 40,16 16,8 24,24 24,48 0,160 -344,544 -632,592zm48 -600l-16 24 -8 -16c16,-24 24,-32 24,-32l0 24zm-312 16c0,-56 40,-72 96,-72 24,0 48,0 64,8l-104 56c-24,8 -48,32 -56,32l0 -24zm440 -72l0 -32c0,-8 0,-8 8,-8 8,0 32,32 32,32l16 16 -16 -8 -40 0zm-224 -281c48,40 64,56 72,144 -80,-40 -104,-64 -112,-64 0,8 40,48 40,144 0,-8 -8,-16 -16,-16l-104 -72c-8,0 -8,8 -8,16 0,8 8,32 8,48l-8 24 -16 -16 0 16 -24 -48 0 -24c0,-16 24,-16 24,-72l-8 -32c40,40 0,24 72,32l80 -80zm-296 176l24 8 24 0c0,8 -16,16 -24,16 -8,0 -16,0 -24,-8l0 -16zm464 -104l0 40c0,16 0,0 -48,24l48 -64zm-24 -176c-16,64 0,56 -80,64l80 -64zm-144 32l8 16 -8 -16zm48 -64c-8,-8 -8,-16 -8,-24l8 0c16,0 32,8 32,8 16,0 16,-8 24,-8 8,0 16,8 16,8 0,16 -24,32 -40,32 -8,0 -16,-8 -32,-16zm-144 -72c32,8 40,8 48,8 16,0 0,0 24,64 -32,-16 -24,-8 -48,-32 -24,-24 -8,-16 -24,-40zm256 40l8 8 -8 -8zm-152 -32c24,-32 32,-48 40,-48 16,0 24,16 48,40 -16,8 -24,16 -40,16 -8,0 -24,-8 -48,-8zm64 -88l-16 -8 16 8zm-136 -72c0,-8 8,-24 16,-24 8,0 8,8 8,32 8,16 8,24 8,32l0 8c-8,0 -32,-32 -32,-48zm168 -96c-40,64 0,24 -72,56 24,-40 16,-48 24,-48l16 0c8,0 16,0 32,-8zm152 0c-8,16 -16,24 -24,24 0,-8 8,-16 16,-32l32 -16 -24 24zm-136 -16c0,-8 16,-8 24,-8l16 0c16,0 16,-8 24,-8l0 8c0,8 -16,24 -32,24 -8,0 -16,-8 -24,-8l-8 -8zm-112 -32c0,8 8,16 8,16l-8 -16zm48 -32c0,-16 8,-24 8,-24 8,0 16,16 16,24l0 24c-8,0 -24,-16 -24,-24zm0 -88c0,8 -16,24 -24,24l0 -16 24 -32 0 24zm96 48c-16,-32 -32,-48 -32,-64 0,-8 24,-16 56,-40 8,8 16,0 16,24l-8 32c0,40 0,40 -8,40 -8,0 -16,0 -24,8zm152 -176c0,-8 8,-16 8,-16 8,0 16,8 24,32l8 8c0,16 -8,24 -16,24 -8,0 -16,-16 -24,-40l0 -8zm-288 16l16 8 16 0 -8 8c0,0 -8,-8 -24,-16zm192 -152l8 24c8,0 16,8 16,8 0,8 -8,16 -16,16 0,0 -8,-8 -16,-32l8 -16zm-8 1112c8,-88 272,-656 312,-752 40,-96 64,-168 64,-232 0,-272 -288,-320 -368,-320l-16 0c-56,8 -112,32 -152,72 -56,48 -64,96 -96,160l-144 368c-104,240 -192,464 -280,753 -72,216 -376,1432 -376,1952 0,88 8,152 24,192 40,72 144,112 240,112 48,0 96,-8 128,-32 104,-56 120,-248 144,-392 16,-112 32,-344 104,-432 80,288 248,400 448,400 296,0 648,-240 865,-528l240 -320c24,-32 32,-56 32,-80 0,-32 -24,-48 -56,-48 -32,0 -72,24 -120,64l-401 368c0,0 -96,96 -248,120 -16,8 -32,8 -56,8 -112,0 -160,-88 -168,-224l472 -368c88,-88 313,-328 329,-512l8 -32c0,-232 -177,-417 -361,-473 -56,-16 -104,-24 -152,-24 -200,0 -304,144 -416,200zm-360 585l8 -16 -8 8 0 8zm1513 1072l-8 -8 8 8zm96 -216c8,0 8,-8 16,-8 16,0 32,16 32,24l0 8c0,0 -8,0 -24,-8 0,0 -16,8 -24,8l-8 0c0,-8 0,-16 8,-24zm-104 -64c48,32 32,8 48,64l-48 -64zm136 8l8 -8 -8 8zm-256 -136l-8 8 0 -8 8 0zm208 -80l16 -16c8,0 8,8 8,32 0,16 0,24 -8,24 0,0 -16,-16 -16,-40zm-88 -24l8 24c16,8 24,16 24,16 0,8 -8,16 -8,16 -8,0 -16,-8 -24,-32l0 -24zm336 -40c8,0 16,16 16,24 0,0 -8,0 -24,-16l8 -8zm-280 -8c-24,16 -32,16 -40,16 -8,0 -8,0 -8,-8l0 -8 -8 -8 -40 -32 96 40zm112 -24l0 -24c0,0 8,16 16,24 8,0 16,8 16,8 0,8 -8,16 -16,16 -8,0 -16,0 -16,-24zm-56 -40c0,0 8,16 8,24l-16 -16 8 -8zm-112 -88c16,-16 24,-16 24,-16l-32 32 8 -16zm496 -56c8,0 16,16 16,24l8 16 0 8c-8,0 -32,-16 -32,-24l8 -24zm-248 -16l0 16 -16 -8 16 -8zm104 0c16,-40 16,-40 24,-40l8 -8c64,-96 0,-40 104,-224l128 -224c40,-48 8,-24 72,-40 16,48 24,88 24,128 0,184 -120,256 -264,352l-96 56zm-192 -192c16,56 24,64 32,64l8 0c8,0 16,8 16,72 -32,8 -24,8 -64,24 -8,0 -16,0 -24,8l-16 0c0,0 -8,8 -16,8l-16 0 8 -24c0,0 8,-8 32,-48 24,-40 24,-40 24,-48l0 -24c-32,-24 -48,-32 -56,-32 -16,0 -24,8 -64,16l120 -56c16,24 8,16 16,40zm64 24c0,0 0,8 -8,8l8 -8zm-328 -32c0,-16 8,-16 8,-16 8,0 24,24 24,32 8,8 8,16 8,24l-8 8c-8,0 -32,-24 -32,-32l0 -16zm336 -80c0,-16 8,-16 8,-16 8,0 24,16 24,40l8 24 0 8c-16,0 -40,-24 -40,-32l0 -24zm136 16c16,-8 16,-8 24,-8 0,0 -24,24 -40,24l-8 0 24 -16zm560 -32l0 24 -16 -16 16 -8zm-792 -48c-40,-72 -56,-32 -80,-104l56 0c16,0 16,0 16,16 0,16 0,40 8,88zm64 -16l-8 -16 0 -8 32 16 16 -8c0,8 -16,16 -24,16l-16 0zm272 -80l0 16c0,0 -8,0 -16,-16l16 0zm-352 -104c0,0 8,16 8,24l-24 -16 16 -8zm760 -40c16,-8 16,-16 16,-16 0,-8 -8,-16 -16,-16 -8,0 -16,8 -16,8 0,8 8,8 32,16l-16 8zm-176 -64c0,8 -8,16 -16,16l0 -32c0,-8 8,-16 8,-16 8,0 16,8 16,16l-8 16zm-120 -64c0,-24 8,-32 16,-32 0,0 8,16 8,32l8 8c0,8 -8,8 -16,8 -8,0 -16,-8 -16,-16zm-80 -56c16,24 32,48 48,96 -104,-16 -64,-8 -104,-48l56 -48zm-168 -16l16 8 24 0c0,8 -8,8 -16,8 -8,0 -16,0 -24,-8l0 -8zm176 -64l-8 -8 40 0c0,0 -16,8 -24,8l-8 0zm992 640c-120,24 -192,136 -296,232l-264 240c-160,136 -408,360 -632,360l-40 0c-24,-64 -32,-104 -32,-144 0,-40 8,-80 8,-144 264,-8 496,40 720,-360 80,-144 120,-296 120,-440 0,-328 -200,-601 -488,-609 -368,0 -688,561 -808,865 -24,56 -40,128 -64,192 -16,72 -40,152 -40,240l0 104c0,464 232,744 528,744 80,0 168,-24 256,-72 360,-192 616,-528 848,-824 80,-96 176,-232 184,-384zm272 888c0,-8 -8,-8 -8,-16l24 24 0 24c0,0 -8,-8 -16,-32zm-256 16c8,8 8,16 8,24 -8,0 -32,-16 -40,-24l0 -32c8,0 32,32 32,32zm-120 -104c-8,-8 -8,-8 -8,-16l8 0c8,0 32,8 32,8 16,-8 24,-8 32,-8 0,8 -24,24 -40,24 -8,0 -16,0 -24,-8zm1024 -104l-16 -16 0 -40 16 56zm-304 -88l0 8 0 -8zm-512 -24l-8 -8 24 0c16,0 24,0 24,8 0,8 -8,8 -16,8 -8,0 -16,0 -24,-8zm-112 8l0 -16c0,-8 0,-8 8,-8 8,0 24,16 24,16l-32 8zm1016 -160c0,-16 0,-16 8,-16 8,0 24,24 24,32 8,16 8,24 8,32 -16,0 -40,-24 -40,-32l0 -16zm-152 24c-8,-8 -8,-16 -8,-16l48 0c0,8 -16,16 -32,16l-8 0zm72 -32l0 -8 8 8 -8 0zm80 -24c8,-48 24,-40 56,-48 -24,48 8,24 -56,48zm-152 -80l16 8 8 0c16,0 16,-8 16,-8 0,-8 -8,-16 -8,-16l0 64c-8,0 -32,-24 -32,-40l0 -8zm-120 56c-40,-16 -24,-8 -56,-24 16,-32 16,-40 16,-40 8,0 8,8 24,24 16,8 24,8 24,8 0,0 -8,0 -8,16l0 16zm-744 -32c8,0 24,16 24,24l0 16c-8,0 -24,-8 -24,-16l0 -24zm1128 -104l8 -8 -8 8zm-136 -40c16,16 40,16 40,24l-32 24 -16 -64c8,8 8,16 8,16zm-136 16c16,8 32,8 40,8 16,0 16,-8 16,-8l0 8c0,8 0,24 8,56l-64 -64zm-816 16l0 8 0 -8zm856 -160c8,0 16,8 16,8 16,0 8,8 16,8 8,0 16,0 24,-8 32,-16 40,-24 40,-40 0,-8 -24,-24 -48,-40l64 24 -40 104c-80,-16 -48,0 -96,-48l24 -8zm-616 48l8 -8c0,0 -16,16 -24,16l16 -8zm-216 8c0,-8 24,-8 24,-8l16 0c0,8 -8,16 -24,16 0,0 -8,-8 -16,-8zm72 -104c24,16 32,24 32,24l8 8c-80,-24 -64,0 -96,-64 24,16 32,16 56,32zm-152 40c0,-16 8,-24 16,-24 8,0 16,8 16,24 8,16 8,24 8,32 0,8 0,8 -8,8 -8,0 -24,-24 -32,-40zm1152 -72c8,40 8,48 8,48 0,0 0,-8 -8,-8 0,0 -16,8 -32,24 -24,-120 24,-64 -80,-104 0,-16 8,-24 8,-24 8,0 24,24 32,24l32 0c16,0 24,-8 32,-8 8,0 8,8 8,48zm-168 -88c-8,16 -16,24 -24,24 0,0 -8,0 -8,-8 0,0 8,-16 16,-24l32 -24 0 8c0,0 -8,8 -16,24zm-872 -16c16,24 24,24 24,24 0,0 -8,8 -24,40l-8 -8 -8 0c0,-8 0,-24 16,-56zm976 -32c0,-8 8,-8 40,-8 40,-8 48,-8 48,-8 0,0 -16,8 -16,16l8 8c-32,24 -56,24 -64,24 -24,0 -8,-16 -24,-24l8 -8zm-192 -16c0,8 0,32 8,32l8 0c8,0 8,0 8,8 0,8 -8,24 -16,24 -8,0 -16,-8 -16,-32l8 -32zm312 16l-8 -8 16 8 -8 0zm-24 -64c-24,0 -16,0 -56,-24 0,-16 40,-16 56,-16 48,16 24,16 48,40l-48 0zm-256 -48l8 32c8,0 8,8 8,8 0,8 -8,24 -16,24 0,0 -8,-8 -8,-24l8 -40zm-656 48c-8,0 -8,8 -8,8l8 -8zm32 -144c0,-24 0,-32 8,-32l8 32c8,0 8,0 8,8l-8 8c-8,0 -8,0 -16,-16zm-144 -24l40 0c0,0 8,0 8,16 0,8 -8,32 -16,64l-32 -80zm248 -136c0,-16 8,-24 8,-24 8,0 16,16 16,24l0 16c-8,0 -24,-8 -24,-16zm-152 1248l0 -24c0,-240 192,-648 264,-872 48,-136 80,-248 80,-336 0,-169 -104,-241 -360,-241 -40,0 -88,8 -144,8 -40,137 -96,257 -144,393 -80,248 -232,744 -232,1072 0,104 16,184 48,240 88,128 256,248 424,248 104,0 200,-48 288,-152 152,-184 240,-456 328,-672 16,40 16,80 16,128 0,96 -16,200 -16,304 0,72 8,152 32,224 56,160 208,312 384,312 33,0 73,-8 113,-24l-56 -296c0,-48 -8,-88 -8,-136 0,-440 184,-1000 184,-1272 0,-48 -8,-88 -24,-120 -24,-56 -144,-177 -281,-177 -72,0 -152,33 -224,145l-296 528c-56,120 -248,552 -328,656l-48 64z"/>
   <path class="fil0" d="M10924 4001c8,32 8,40 8,40 0,0 0,-8 -8,-8 0,0 -8,8 -16,8l16 -40zm88 8c48,0 40,8 48,48 -48,-24 -24,-8 -48,-48zm128 -64c0,-8 8,-16 8,-16 8,0 8,8 8,8l0 8c0,8 -8,16 -8,16 -8,0 -8,0 -8,-16zm-112 -16c8,0 16,0 16,8 0,0 0,8 -8,8l-8 0c-8,0 -8,-8 -8,-16l8 0zm88 -96c8,0 16,8 16,16 0,8 -8,16 -8,16l-8 -32zm-56 8c8,0 16,8 16,8l-8 16 -8 -16 0 -8zm-16 -120c0,-16 8,-16 16,-16 8,0 16,8 16,16l-16 0c-8,0 -16,16 -16,16l0 -16zm-88 0c0,0 0,-8 8,-24l8 8c8,0 8,-8 16,-8 0,0 -8,8 -16,32l-16 -8zm56 -96c0,0 8,0 8,8l-16 0 8 -8zm112 -96c0,0 24,0 24,32 0,8 0,32 -24,56 0,-8 0,-8 -8,-8l0 8 -8 -32c0,-48 8,-40 16,-56zm96 72c8,-8 8,-8 16,-8l0 8c0,0 0,8 -8,8l-8 0 0 -8zm-216 -32l8 0 16 8 -16 0 -16 8 0 -8 8 -8zm96 -88c16,-8 24,-8 40,-8 24,0 40,16 40,32l0 8 -8 0c-16,0 -8,0 -24,-8l-48 -24zm88 -112l24 0 8 16c-8,0 -16,8 -24,8 -8,0 -8,-8 -8,-8l0 -16zm56 -24c0,-8 16,-24 16,-24 8,0 8,0 8,8 0,0 0,8 -8,16l0 8c0,8 0,8 8,8 0,0 8,0 8,-8 0,0 -8,-8 -16,-8 -16,0 -16,8 -16,16l0 -16zm-72 -24c24,-16 32,-16 40,-16l0 24c0,8 0,8 -8,8 0,0 -8,0 -32,-16zm-40 -80l16 40 -40 0 24 -40zm32 -80c0,-8 8,-16 8,-16 8,0 16,8 16,16 0,8 0,8 -8,8 -8,0 -16,16 -16,16l0 -24zm-16 -48c0,0 0,-8 8,-8l72 -40c16,-8 32,-8 40,-8 24,0 24,16 24,48 -32,0 -40,-8 -80,-8 -24,16 -32,32 -48,32 0,0 -8,0 -24,-8l8 -8zm-16 -32c8,-16 8,-16 8,-24l0 -8 24 -8 0 40c0,0 -8,-8 -16,-8 0,0 -8,8 -16,8zm1352 -40c24,-24 24,-32 32,-32 0,0 8,8 16,32 -8,0 0,8 -24,8 -16,0 -16,0 -24,-8zm-1160 -32c0,32 0,40 -8,40 -8,0 -16,0 -32,-8 16,-40 -8,-16 40,-32zm-16 -56c56,16 32,8 56,40 -64,-8 -32,-8 -56,-40zm-128 -32c48,8 56,32 104,56 -8,8 -8,24 -32,24 -16,0 -40,-8 -88,-32l16 -48zm280 -8c0,0 8,8 8,16l-8 24c-8,0 -8,-8 -8,-24l8 -16zm24 -8c40,8 56,16 56,24 0,8 -8,16 -16,32 -40,-32 -24,0 -40,-56zm-208 32l16 -16 16 0c0,0 -24,16 -32,16zm112 -104l0 24c0,8 0,8 -24,24l24 -48zm-144 32l32 0c0,8 0,16 -8,40 -8,-8 -8,-8 -16,-8l-8 -32zm-40 -24c0,-8 8,-16 16,-16l-8 16c0,8 -8,16 -8,16l0 -16zm232 16c8,-16 8,-24 8,-24l0 -8c0,0 8,0 24,-8l0 40c0,0 0,-8 -8,-8 -8,0 -16,8 -24,8zm1040 -16c24,-40 8,-24 56,-40 40,32 40,24 40,88 -40,-16 -16,16 -40,-56 -32,8 -32,16 -32,16l-24 -8zm-1224 8c16,-40 40,-64 64,-64 0,32 -24,48 -64,64zm1288 -72l0 -8c0,-16 8,-32 48,-32 -16,32 -16,24 -40,48l-8 -8zm-1328 -48c8,16 16,24 16,32l-8 0 -8 8 -8 -8 0 -8c0,-8 0,-16 8,-24zm120 0c56,24 8,16 80,24 16,-32 8,-24 24,-40 16,16 24,24 24,32 0,8 -8,16 -16,48 -24,0 -48,-8 -72,-16 -32,-16 -32,-16 -32,-24l0 -8c0,-8 0,-8 -8,-16zm1456 -24c16,-8 32,-16 48,-16l16 0 0 8c0,16 8,16 8,16 0,8 -8,8 -32,8l-16 0c-24,0 -16,-8 -24,-16zm-32 32c-48,-8 -24,-8 -48,-40l48 40zm-1264 -48c0,-8 8,-16 8,-16l8 8c0,8 0,8 -8,8 0,0 0,24 -8,24l0 -24zm-336 -16l40 8c-24,0 -32,8 -40,8l8 -8 -8 -8zm-88 0c0,-16 8,-16 16,-16l8 8c0,0 0,8 -8,8l-8 0c0,8 -8,16 -8,16l0 -16zm1520 -24c48,16 48,0 64,40l-16 16c0,0 -8,-8 -24,-16 -16,-8 -24,-40 -24,-40zm-1320 56l0 -16c0,-8 0,-8 -8,-24 24,-8 40,-16 64,-16 24,0 48,16 48,56l-48 -24c-8,40 -16,40 -40,64l-16 -40zm-56 -56c8,-32 16,-40 24,-40l24 24c-16,8 -16,16 -16,16l-32 0zm1560 -40l8 0c8,0 16,8 16,8l-24 0 0 -8zm-1216 -40c16,0 16,8 16,16l-8 0 -16 8 0 -16 8 -8zm-240 40l8 -48c8,0 16,-8 16,-8l8 0c16,0 16,8 24,8l32 -32c8,24 8,32 8,40 0,8 8,8 40,24l-24 16 -24 24c-24,-16 -16,0 -32,-56 -24,8 -24,16 -24,16l0 8 -32 8zm-16 0c-32,-8 -32,0 -40,-24 0,-8 -8,-16 -8,-24 0,-8 8,-8 8,-8l16 0 24 56zm1544 -64c8,-32 8,-32 24,-32l24 0c-8,32 -8,40 -16,40 0,0 -16,-8 -32,-8zm-1672 -40c16,24 24,32 24,32l0 8c-8,0 -16,-8 -16,-8l-8 -32zm296 0c0,-8 -16,-16 -16,-16 0,0 8,8 24,8l24 0 0 16 -32 16c0,0 0,-8 -8,-16l8 -8zm-136 8c0,-16 8,-24 16,-24l8 8c0,8 0,8 -8,8l-8 0 -8 16 0 -8zm-112 -8c0,-16 8,-16 8,-16 16,0 32,16 32,24l-16 0c-16,0 -24,16 -24,16l0 -24zm1512 16c24,-32 16,-32 64,-40 -8,32 -16,48 -40,48 -8,0 -16,0 -24,-8zm-152 -32c16,-8 24,-8 32,-8 8,0 8,0 8,8l0 8 -40 -8zm-944 0c-8,8 -16,8 -16,8l-16 -8 32 0zm-344 -32c56,-32 72,-24 112,-64 16,8 8,0 40,24 24,24 16,8 32,40l-48 0c0,0 -40,16 -80,16 -16,0 -40,0 -56,-16zm-168 -16c0,-8 8,-8 8,-8l8 0c0,0 0,8 -8,8l-8 8 0 -8zm1712 -48c8,8 8,8 16,8l8 -8 0 8c0,0 0,8 -8,24l0 24 -32 0c-8,-16 -8,-24 -8,-32 0,-8 0,-8 24,-24zm-128 24l0 24 -32 0c16,-24 8,-24 16,-24l16 0zm-1192 32c-8,0 -8,-8 -8,-8 0,-8 0,-8 8,-8 16,0 16,0 16,8l-16 8zm160 -88c16,16 8,8 16,32 -16,0 -16,0 -16,8 0,-8 0,-8 -8,-16 -8,-8 -8,-16 -8,-16l8 8c8,0 8,-8 8,-16zm-368 -48l40 0c16,0 24,0 48,32 -8,32 -8,40 -8,40 -8,0 -16,0 -32,16 -32,-24 -48,-24 -48,-64l0 -24zm1480 24c32,-8 40,-16 48,-16 8,0 16,8 24,32l0 8c0,8 0,8 -16,8l-16 0 -32 -8 0 -8c0,0 0,-8 -8,-16zm-1216 8c0,-16 8,-16 8,-16 8,0 16,8 16,16l-8 0c-8,0 -8,8 -8,8l-8 -8zm136 -16l8 -8 8 8c0,0 0,-32 32,-48l-8 32c0,0 -8,0 -24,24l-16 -8zm-248 -56l32 56c0,0 0,-8 8,-8 8,0 24,0 40,16l0 56 -120 -64 8 -16c16,-40 8,-24 32,-40zm-296 72c-8,0 -8,-16 -16,-24l16 24zm1496 -40c0,8 0,8 -8,8l-8 0c0,-8 -16,-8 -16,-16 0,0 0,-8 16,-16l16 24zm152 -56c-8,48 0,24 -32,40 8,-8 8,-16 8,-16 0,-8 -8,-16 -8,-16 0,0 8,0 32,-8zm-32 80l-88 -32c40,-32 16,0 48,-48l8 16c8,16 8,24 8,24l8 24 0 -8 16 24zm-1184 -72c16,0 24,8 24,8l-16 0c0,0 -16,8 -24,8 0,-8 0,-8 8,-16l8 0zm-240 8c0,-8 8,-8 8,-8 8,0 16,8 16,8l-8 8 -8 0c-8,0 -8,-8 -8,-8zm-48 24c0,0 0,16 -16,16 -8,0 -16,-8 -40,-24 8,-8 8,-8 8,-16l-8 -8 24 0c32,8 32,8 32,16l0 16zm1320 -80c8,0 8,8 8,8 0,0 -8,8 -16,8 0,0 0,-8 8,-16zm200 16l-8 0c-8,0 -16,0 -16,-24 0,-8 16,-16 16,-24l8 48zm-120 -24c8,-8 8,-16 16,-16 0,0 16,0 32,16 0,8 -8,8 -8,8 0,8 -8,8 -8,8 -16,-8 -24,-8 -24,-8l-8 -8zm-1360 -8c0,0 8,8 8,16 0,0 -8,8 -16,8 0,0 -8,-8 -24,-8 8,-24 8,-32 16,-32 8,0 16,8 16,16zm320 -8c16,8 16,8 24,8l0 -8 8 8c-16,8 -24,8 -32,8 -16,0 -16,-8 -32,-32l32 16zm-160 -24l0 48 64 0c24,0 16,0 24,8 -56,32 -40,8 -120,40 0,-8 -8,-16 -8,-24 0,-8 8,-24 8,-24 0,-8 0,-8 -16,-8l-40 0 24 56c-40,0 -40,-8 -56,-32 -16,-24 -24,-32 -24,-48 0,-8 0,-16 8,-32l32 32c0,0 8,0 8,8 0,0 8,0 8,8 24,-24 64,-72 104,-72 16,0 40,16 56,48l-72 -8zm1256 -24l8 -8c0,-8 0,-8 32,-16 16,-8 32,-8 48,-8l32 64 -120 -32zm-72 0c0,-8 8,-16 16,-16l0 16c0,8 -8,8 -8,8 -8,0 -8,0 -8,-8zm-1368 -16l0 8 -8 0 8 -8zm-80 0c0,-8 8,-16 16,-16l0 16 -8 16c-8,0 -8,-8 -8,-16zm1760 -32c0,8 0,8 -8,24 0,-8 0,-8 -8,-8l-8 0c0,-8 0,-16 16,-24l8 8zm-1280 0c-16,24 -8,24 -16,24l-24 0 8 -16 0 -8c0,-8 0,-8 8,-8l16 0 8 8zm-360 -80c24,16 40,32 40,56 0,16 0,32 -16,48 -16,-16 -16,-8 -16,-16l-8 -88zm1296 48c8,-8 16,-8 24,-8l8 8 -32 0zm152 32c-8,-16 -16,-32 -16,-48 0,-24 24,-32 48,-32 24,0 56,8 64,24 16,16 24,24 24,32 0,16 -8,24 -8,40 -88,-24 -24,-8 -72,-64 -24,56 0,32 -40,48zm-1200 -8c0,-24 16,-24 24,-80l64 0 -56 96c-8,8 -16,16 -24,16 -8,0 -8,-8 -8,-8l0 -24zm-264 -120c40,-32 0,-24 104,-40 -8,40 -16,48 -48,80 -88,-48 -64,-16 -72,-40l16 0zm288 -8c24,-16 32,-16 40,-16 16,0 8,16 16,16l32 -32 -16 56c-16,-16 -24,-24 -32,-24 -8,0 -8,8 -16,8 0,0 -8,-8 -24,-8zm1248 16c-32,-16 -40,-32 -40,-48 0,-16 0,-32 8,-48 32,24 40,32 40,56 0,8 -8,24 -8,40zm-1064 -48c0,0 8,8 8,16 0,8 -8,16 -8,16 -8,0 -8,-8 -8,-16l8 -16zm-280 8c8,16 8,32 8,40l0 16c0,16 8,32 32,64l0 16 -32 -24c0,16 8,24 8,32 0,8 -8,8 -24,24 -24,-16 -24,-8 -24,-16l0 -48 -72 32c8,-48 16,-56 56,-56l24 0c0,-48 -8,-56 -8,-64 0,0 8,0 32,-16zm1184 -40l0 24 -24 0 24 -24zm64 48c0,-32 -8,-48 -8,-80 32,8 48,24 48,40 0,16 -16,40 -40,64l0 -24zm-1384 -40c8,-40 16,-32 24,-72 32,16 48,8 56,56 -24,16 -24,16 -40,16l-40 0zm144 -64c0,8 -8,16 -32,32 -8,-16 -8,-8 -8,-16l0 -16c0,-16 8,-8 16,-24l24 24zm1288 -16l-8 -8 -8 0 16 -16c8,24 16,8 40,48l-40 -24zm-1240 56c-8,0 -16,-8 -16,-40l0 -24c0,0 0,8 8,8l8 -8c16,16 16,32 16,40 0,16 -16,16 -16,24zm1400 -80l-8 8c-8,0 -24,-8 -24,-16l0 -16 32 24zm-1640 16c0,-8 -8,-16 -8,-24 0,-16 16,-8 16,-16l8 8 8 40 0 -8 -8 -8c-8,0 -8,0 -16,8zm1288 -24c-8,0 -8,0 -24,8l8 -24c0,-8 0,0 16,-16l0 32zm-912 -24c0,8 -8,16 -8,16l-16 -32c0,-8 8,-8 8,-8l8 0c8,16 8,8 8,24zm-256 -48c24,16 32,24 32,48l0 16 -24 0c-24,0 -56,-8 -80,-16l8 -8 64 -40zm1296 112c-24,-8 -40,-24 -40,-48 0,-16 16,-32 48,-56 8,8 8,24 8,32 0,24 -8,56 -16,72zm-1504 -96l8 16c8,0 8,0 8,8l-8 8c0,0 -8,-8 -8,-16l0 -16zm1640 -40c0,0 8,8 8,16l0 8 -16 -8 8 -16zm-1568 -16c32,8 32,8 32,16l0 40c-24,-16 -32,-16 -32,-24l0 -32zm1464 -16c48,8 72,24 72,48 0,8 -8,24 -24,40 -24,-24 -32,-40 -48,-88zm-184 24c8,0 8,8 8,8l0 8 -8 -8 0 -8zm-1072 64c-16,-24 -40,-32 -40,-64 0,-8 8,-32 16,-56 48,0 48,8 72,56l-48 64zm1128 -88c8,-24 8,-48 16,-48 8,0 16,0 24,8l-40 40zm-176 -8c0,-8 8,-16 8,-16 8,0 16,8 16,16l0 24c-8,0 -16,-8 -24,-24zm232 8c8,-16 8,-16 16,-16l16 0c-16,16 0,8 -32,16zm-448 -8l-8 -8 8 -8 16 8 8 0c0,0 -8,8 -16,8l-8 0zm-664 -8c8,0 8,8 8,16l-8 -8 0 -8zm1248 -32l-8 16c0,0 -8,0 -16,8l24 -24zm-248 -8c8,0 8,16 8,16 8,0 8,8 8,8 0,8 -8,8 -8,8 0,0 -8,0 -8,-16l0 -16zm-1232 48l0 -24c0,-40 16,-56 32,-56 16,0 40,24 40,48 0,16 -16,32 -64,32l-8 0zm288 -48c0,0 -8,8 -16,8 0,0 -8,0 -16,-8l32 0zm1064 -16c0,0 8,-48 24,-48 8,0 24,16 32,40 -16,8 0,8 -24,8 -8,0 -16,8 -16,8 0,0 -8,-8 -16,-8zm-1256 -48c24,8 32,8 32,24 0,0 0,16 -8,32 -8,-8 -16,-8 -16,-8l-8 -24 0 -24zm1096 -25c8,0 16,0 16,25 0,24 -8,24 -16,24l-8 0c-8,-16 -16,-24 -16,-32 0,0 8,0 16,-17l8 0zm-1144 41c-8,0 -8,8 -8,8l-24 0c-24,0 -24,-8 -32,-16 8,-16 16,-25 24,-25 16,0 32,9 40,33zm1208 -33c0,-16 0,-16 8,-16 0,0 8,8 8,16l0 17c-8,0 -16,-8 -16,-17zm-1152 -48l8 24c8,8 8,16 8,16 -32,-24 -16,-8 -32,-48l16 8zm992 24c0,0 0,8 -8,8 0,0 -8,0 -24,-16l32 8zm-1144 33l0 -25c0,-8 0,-8 8,-8l32 0 -40 33zm280 -65l8 -16c0,0 8,8 8,16l0 8 -16 -8zm784 0c-48,-8 -24,0 -40,-24l24 0c8,0 8,0 16,24zm-888 -104c8,8 8,8 8,16 0,8 0,8 -8,24l-24 0c0,-8 8,-16 24,-40zm168 1513c-32,16 -48,48 -48,96 0,88 80,232 304,328 88,32 184,48 280,48 144,0 296,-40 392,-104 160,-96 288,-248 384,-440 96,-192 168,-464 168,-736 0,-224 -56,-448 -184,-601 -72,-88 -256,-184 -424,-184 -40,0 -72,8 -112,16 -240,64 -144,48 -240,104 -96,56 -80,48 -176,145 -24,16 -16,8 -24,32 -40,48 -176,192 -208,248 -24,48 -8,32 -40,64 -16,24 -24,32 -24,32 -8,0 0,-32 -56,-40l-8 0c24,-40 32,-40 48,-40 16,0 32,-8 40,-96 16,-96 24,-176 24,-249 0,-160 -64,-248 -336,-264l-48 0c-24,0 -24,0 -32,8 -24,8 -112,48 -128,56l-32 48c-32,56 -152,873 -168,961 -8,48 -8,72 -16,120 0,40 -16,104 -24,152 -40,248 -96,512 -120,768 -16,136 -112,568 -128,776l0 40c0,216 144,280 256,280 48,0 96,-8 120,-24 192,-96 184,-656 296,-984 80,-232 120,-416 232,-672 72,-168 144,-336 232,-496 104,-168 144,-272 288,-424 56,-64 120,-152 224,-152l8 0c96,0 120,96 120,216 0,112 -24,240 -32,312l-88 280c-16,72 -32,32 -56,128 -16,80 -24,64 -56,112 -32,40 -40,64 -72,112 -72,96 -32,40 -88,96 -32,24 -8,8 -48,40 -48,32 -96,64 -152,64 -8,0 -24,-8 -40,-8 -152,-24 -136,-136 -208,-168z"/>
   <path class="fil0" d="M15173 3945c0,0 8,0 8,8l-8 -8zm-24 -120l8 56c-16,-24 -24,-32 -24,-40l16 -16zm-96 40c16,-48 32,-64 32,-96 16,24 24,32 24,40 0,24 -24,24 -56,56zm152 24c104,-72 40,-8 104,-112 0,0 16,0 16,16 0,16 -8,32 -32,64 -16,24 -24,40 -40,40 -16,0 -24,0 -48,-8zm496 -32c8,-24 8,-32 8,-32 8,0 16,8 32,8l-40 24zm248 -16c0,-24 8,-24 8,-24 8,0 8,8 8,24 8,8 8,16 8,16l-24 -16zm-696 -120c8,16 16,24 16,32 0,8 -8,16 -24,32 0,-8 -16,-8 -16,-16 0,-8 8,-24 24,-48zm-264 24c0,-8 8,-8 8,-8 8,0 16,0 16,16 0,8 0,16 -8,16 -8,0 -16,-8 -16,-24zm808 48c8,-16 8,-24 8,-24l0 24c8,0 8,0 8,8l-8 8 -8 -16zm-640 -48c0,-24 8,-24 8,-24 8,0 24,8 24,24l0 32c-16,0 -32,-24 -32,-32zm848 -40c16,32 16,40 16,48 0,8 -8,8 -24,32 0,-8 -8,-8 -8,-8l0 -72c0,0 0,8 8,8l8 -8zm-456 128c-16,-24 -32,-32 -32,-48 0,-16 0,-24 8,-48 16,-40 24,-48 32,-48l8 8c8,0 16,-8 24,-8 -8,40 -16,56 -24,88l-16 56zm-264 -136c0,-8 0,-16 8,-16 8,0 24,8 48,40 -16,8 -32,16 -40,16 -16,0 -16,-8 -16,-16l0 -24zm544 8c-40,24 -24,32 -40,40 -16,8 -32,8 -40,8 -24,0 -24,-8 -24,-16l0 -8c32,-24 48,-24 64,-24l40 0zm-488 120c16,-40 24,-56 40,-112 64,-32 16,0 64,-40 -16,48 0,16 -24,48 -32,40 -40,64 -40,72l0 16c0,0 0,8 -40,16zm256 -168c88,32 56,8 80,72l-24 -16c-8,0 -8,0 -32,-24 -16,-16 -16,-16 -24,-32zm600 32c8,0 8,16 8,16 8,8 16,8 16,16l-8 8c-8,0 -16,-8 -16,-24l0 -16zm-472 -8c0,-8 8,-8 8,-8l-8 8zm712 24l-16 16 0 -16c8,-16 8,-24 16,-24 0,0 8,8 8,16 0,8 -8,8 -8,8zm-136 40c-8,-16 -8,-32 -8,-40 0,-8 8,-16 16,-48l64 16c-32,56 -16,40 -72,72zm-440 -80c80,-32 112,-48 128,-48 16,0 24,16 40,40l-56 8c-48,8 -64,24 -72,24 -8,0 -16,-8 -40,-24zm-88 -56l-64 24c8,-24 8,-24 16,-24l48 0zm-432 -8l0 -8 24 0c0,8 -8,8 -16,8l-8 0zm808 24c0,-16 0,-16 8,-16 0,0 16,16 16,24l0 24c-8,0 -24,-24 -24,-32zm977 16l16 -16c8,0 8,8 8,16 0,8 -8,16 -16,16 -8,0 -8,0 -8,-8l0 -8zm-208 -48l8 8c8,0 8,-8 16,-8 0,0 -8,16 -16,48l-8 -48zm-232 56c0,-8 -16,-16 -16,-32 0,-8 16,-16 72,-32l-56 64zm-185 -88c0,0 8,16 16,16 8,0 8,8 8,8 0,8 -8,16 -8,16 -8,0 -16,0 -16,-24l0 -16zm-128 16c0,-8 -8,-16 -8,-16 0,-8 16,-16 24,-40l-16 56zm-216 -320c16,32 96,72 152,72l16 0 -16 64c80,56 64,-8 80,88 -48,-24 -32,-24 -80,-40l-56 0c-8,8 -8,8 -16,8 -8,0 -8,-8 -8,-8l0 56c0,16 16,40 24,56l72 40c-48,0 -48,8 -104,24l0 -8 -16 -64 -32 32c-8,0 -8,-8 -8,-8 -8,0 -16,8 -24,8 -32,16 -32,32 -56,56 -96,-32 -80,-40 -144,-72l80 -40c-8,-88 -24,-24 -32,-112l128 -80c16,64 0,24 32,64l56 64 16 -72c-24,-16 -32,-24 -40,-24 -16,0 -16,8 -16,8 0,0 -8,-8 -8,-16 -8,-8 -16,-8 -16,-8l16 -88zm-80 288c24,16 40,24 48,24l8 -8c0,-8 -32,-32 -56,-32 0,0 -8,0 -16,8l16 8zm96 -64l-8 8 -16 24 0 24c0,8 0,0 8,32 32,-32 48,-40 48,-48 0,0 -16,-8 -32,-40zm-376 32c8,0 8,16 8,16 8,0 8,8 8,8 0,8 -8,8 -8,8 0,0 -8,0 -8,-16l0 -16zm1289 40c-24,64 0,40 -64,56 8,-16 8,-24 8,-32l0 -8c0,-8 8,0 56,-16zm-112 0c8,0 8,24 8,24 8,8 16,8 16,16 0,8 -8,16 -8,16 -8,0 -16,-8 -16,-32l0 -24zm-545 24c0,-64 0,-40 64,-56 -16,48 -24,56 -24,56l-40 0zm-448 -56c-24,-16 -32,-8 -32,-16 0,0 0,-8 8,-32l24 48zm1145 32c48,16 64,16 64,24 0,0 -16,0 -16,24 -40,-32 -8,0 -48,-48zm-473 0c-24,8 -40,16 -40,16 -8,0 0,-16 -24,-24 8,-24 16,-32 32,-32 8,0 24,16 32,40zm-56 -88c0,-8 0,-8 -8,-8l8 8zm137 -56c0,-16 8,-24 8,-24 0,0 8,16 8,24l0 16c-8,0 -16,-8 -16,-16zm248 0c8,-16 8,-24 8,-24l8 24 8 0c8,0 8,8 8,8 0,8 -8,16 -16,16 -8,0 -16,0 -16,-24zm-64 8l0 -8 32 0c0,0 -16,8 -24,8l-8 0zm-489 -56c-24,24 0,24 -56,32l-40 0c0,-8 8,-8 8,-16l-8 -8 96 -8zm-416 -64l8 -16c8,0 8,16 8,16 8,0 8,8 8,16 0,8 -8,16 -16,16 0,0 -8,-8 -8,-24l0 -8zm392 24c-32,-8 -40,-8 -40,-24 0,-8 8,-24 8,-48l32 72zm-264 -144c-32,-48 -48,-40 -48,-64 0,-8 8,-24 8,-40 40,48 56,64 56,88 0,24 -16,48 -48,96l32 -80zm56 -48c64,80 32,8 128,160 -48,-24 -48,-24 -64,-24l-48 0c-8,-40 -8,-56 -8,-64l0 -32c0,-8 0,-16 -8,-40zm216 -32c-8,8 -8,8 -8,16 0,8 0,8 -56,16l64 -32zm-408 -16l0 16 -48 0 48 -16zm152 -16c0,0 0,8 16,8l16 0c8,0 16,0 16,-8 0,0 -8,-8 -16,-8 0,0 -8,8 -8,16l0 40c-8,0 -24,-24 -24,-32l0 -16zm144 104c-48,-16 -64,-8 -64,-24 0,-8 8,-16 8,-48 0,-24 8,-40 16,-48 32,40 48,40 48,72 0,8 0,24 -8,48zm-88 -160l8 -8 0 40c-8,0 -16,-8 -24,-8 -8,0 -8,8 -8,8l0 -8c0,-8 0,-24 -8,-40l32 16zm-96 16c-8,8 -16,16 -24,16 0,0 8,-8 24,-16l24 -16c0,0 -8,8 -24,16zm216 40c-32,-32 -40,-48 -40,-56 0,-16 16,-16 24,-16l8 -8 0 -8c0,0 8,0 32,16 16,8 24,16 24,24 0,24 -40,48 -48,48zm-96 -88c24,-40 8,-24 40,-48 24,-16 16,-16 24,-16l24 0c0,64 -16,56 -88,64zm128 -56c0,-8 -8,-16 -8,-24l8 0 32 32c-8,8 -16,8 -16,8 -8,0 -8,0 -24,-8l8 -8zm-16 -72c32,-8 40,-8 56,-8 8,0 8,8 24,16 -40,24 -16,24 -88,24l8 -32zm176 -56c8,0 8,16 8,16 8,0 8,8 8,8 0,8 0,8 -8,8 0,0 -8,0 -8,-16l0 -16zm-224 -128l8 -8 0 -24c72,32 64,24 88,72 -24,40 -64,48 -80,48l-16 0c0,8 8,24 16,56 -40,8 -64,8 -80,8 -16,0 -16,0 -16,-8l0 -8 -8 0c-8,0 -24,0 -56,8 16,-32 24,-40 32,-40 8,0 24,8 40,8 8,0 24,0 32,-8 0,-48 8,-56 8,-56 0,0 -8,0 -40,-16l72 -32zm288 -32c-32,-24 -16,-8 -32,-48 8,8 16,8 16,8l8 0c8,0 8,0 8,40zm-312 -56c0,8 0,8 -8,8l-8 -8 16 0zm152 -88c8,24 16,32 32,64 -32,-8 -48,-16 -48,-32 0,-8 0,-16 16,-32zm112 -24c0,16 -8,24 -8,24l0 -40 8 -8 0 24zm-240 -120c8,0 8,16 8,16l8 8c0,8 -8,8 -8,8l-8 -32zm152 24c8,24 16,32 16,40 0,16 -16,24 -24,48l-40 -8 -8 -56c-8,-8 -8,-16 -8,-16l0 -48c0,-16 8,-8 24,-16l40 56zm24 -32c8,0 16,-24 40,-24 8,0 16,0 32,16l16 16c0,0 -8,0 -16,40 -56,-8 -64,-8 -64,-16l0 -8c0,-8 0,-16 -8,-24zm-40 -80l0 -8c0,0 0,-16 -8,-32 56,24 32,-8 48,40l-40 0zm273 -8c8,0 8,0 8,8 0,0 0,8 -8,8l-8 -16 8 0zm-161 0c32,-64 32,-56 72,-72 0,16 -8,16 -8,24l-16 16c-8,8 -48,32 -48,32zm-176 -48c16,-8 16,-16 16,-16 0,-8 -8,-8 -8,-8 0,-8 8,-8 48,-16 -32,48 0,24 -56,40zm128 -72c0,-16 8,-24 16,-24 8,0 16,8 16,32l0 16c0,8 0,16 -8,16 -8,0 -24,-24 -24,-40zm-48 0c-8,8 -16,16 -24,16l16 -16c8,-8 8,-8 8,-16l0 16zm64 -88l32 -24c8,0 8,16 8,24l-40 0zm40 -56c-8,-8 -8,-16 -8,-16l0 -8 24 16c8,0 16,-8 16,-8 8,0 8,8 8,8 0,8 -8,24 -24,24l-16 -16zm-56 -32l24 24 0 8c-8,0 -16,-16 -24,-24l0 -8zm-40 -24c0,0 -8,8 -16,8 -8,0 -8,0 -16,-8l32 0zm217 -32c0,-16 0,-16 8,-16 0,0 8,8 8,16l0 16c-8,0 -16,-8 -16,-16zm-225 -72l16 16c16,0 24,8 24,8 0,8 -8,16 -16,16 -16,0 -24,-8 -24,-24l0 -16zm273 0c0,-16 8,-24 8,-24 8,0 24,16 24,32l0 8c0,8 -8,16 -8,16 -16,0 -24,-8 -24,-32zm-201 40c40,-80 16,-40 88,-80l-32 40 8 8 32 24c0,0 8,0 16,8l-32 56c-8,-8 -24,-32 -40,-40l-8 -8 -16 0 -16 -8zm-48 -144c8,0 16,8 16,8 16,0 24,0 24,8 0,8 -8,8 -24,8 0,0 -8,0 -16,-16l0 -8zm185 -24c0,-8 0,-8 8,-8l-8 8zm-81 16c-32,-24 -24,-16 -40,-40l40 0c8,0 8,0 8,8 0,0 -8,8 -8,32zm265 -104c8,0 8,16 8,16l8 8c0,8 -8,8 -8,8l-8 -32zm-168 -32c24,-16 16,-24 24,-24 0,0 8,8 40,16 -24,24 -16,24 -24,24l-24 0 -16 -16zm-73 0l40 8 0 8c0,8 0,8 8,24l-48 -40zm-80 -24c0,-24 8,-24 8,-24 8,0 16,16 16,24 8,24 16,32 16,32 0,0 -16,-32 -24,-32l-16 0zm145 -81c-8,8 -8,8 -17,8 0,0 -8,0 -8,-8 0,0 8,-8 8,-16l17 0c8,8 16,8 16,8 -8,0 -8,0 -16,8zm184 48c-16,-8 -8,0 -32,-16 0,-8 -24,-32 -24,-32 -64,16 -32,24 -96,32 16,-80 -8,-40 40,-88 48,16 32,8 72,48l40 56zm-184 -144l0 -16 32 32 -32 8c0,-8 -8,-8 -8,-16l8 -8zm120 16c40,-32 16,-16 48,-56 16,24 16,32 16,40 0,16 -8,16 -24,16l-40 0zm-16 -72c8,-24 8,-32 16,-32 0,0 8,16 8,32l0 24c-8,0 -24,-16 -24,-24zm-193 -56l56 32 -16 0 -40 -32zm265 -16c32,24 48,24 48,40 0,8 -8,24 -16,40 -32,-16 -40,-8 -40,-16 0,-8 8,-16 8,-64zm-56 16c-24,16 8,8 -48,24l-40 0c8,-24 8,-32 40,-40 16,0 32,-8 40,-8 8,0 16,8 16,8l-8 16zm-161 -40l16 16 0 24c-8,0 -8,-8 -16,-32l0 -8zm289 -24l-32 16c-8,0 -8,0 -8,-8l0 -16 16 0c8,0 16,0 24,8zm-160 16c-8,-16 -8,-24 -8,-24l8 -8c8,0 24,16 24,16l16 -8 8 8c0,0 -24,24 -40,24l-8 -8zm-16 -48l-8 0c-40,0 -64,-24 -64,-24l24 -16 8 8 40 32zm-32 -96c8,0 8,16 8,16 8,0 8,8 8,8 0,8 -8,8 -8,8 0,0 -8,0 -8,-16l0 -16zm-969 -40c0,-8 16,-8 16,-8l8 0c0,8 -8,8 -16,8l-8 0zm152 -40c8,-8 8,-16 8,-16 0,0 0,8 16,8l16 0c8,0 8,0 8,-8l-8 -8c-8,0 -16,8 -16,24l0 24c-8,0 -24,-16 -24,-24zm809 48c8,0 16,8 16,16l-16 -8 0 -8zm152 -72c24,8 32,8 40,8l16 0 32 16 16 0 -64 56 -40 -80zm-881 8c0,-8 0,-8 -8,-8l8 8zm568 -32c-8,8 0,16 -16,16 -8,0 -24,0 -56,-16l72 0zm-424 -8c-8,-16 -8,-24 -8,-24l8 -8c8,0 24,16 24,16 8,0 16,-8 16,-8l8 8c0,8 -24,24 -32,24 -8,0 -8,0 -16,-8zm-160 -24l-48 24c8,0 8,-8 8,-8l0 -16 40 0zm680 48c-40,-8 -48,-8 -48,-16l0 -16c0,0 0,-16 -8,-24 48,24 48,0 56,56zm-272 -32l-8 -8 8 -8 16 8 16 0c0,0 -8,8 -24,8l-8 0zm-264 -24c-56,-16 -72,-16 -72,-24 0,0 16,0 16,-8l-16 -16c64,16 72,16 72,16 0,8 -8,8 -8,16 0,0 8,8 8,16zm136 -16l8 -8c16,-8 24,-16 32,-16 8,0 16,8 32,16l-40 48 -64 -64 32 24zm-464 -144l32 80 -88 -16 56 -64zm-160 112c8,-32 16,-48 32,-48 16,0 32,16 48,24l-80 24zm976 -8l-24 0c-8,0 -8,0 -24,-24l48 24zm-112 0c0,0 0,-8 -8,-8l8 8zm-312 -64l0 40 -24 16c-16,8 -32,8 -40,8 -16,0 -16,-8 -16,-16l0 -24 80 -24zm-264 0l0 -24 8 0c8,0 24,0 56,24 -16,16 -24,16 -24,24l8 -8 -24 0c-24,8 -32,8 -32,8 0,0 16,-8 16,-16l-8 -8zm-272 -16l16 8 16 0c0,0 -8,8 -16,8 -8,0 -8,0 -16,-8l0 -8zm768 88c16,-24 24,-32 24,-32l0 -8 16 0c-16,16 -16,24 -16,24l-24 16zm457 40c24,-32 40,-32 40,-40 0,0 -24,-8 -80,-64l8 -48c16,-8 8,-16 16,-16 0,0 8,8 32,16l-32 -56c64,8 80,24 120,56 -64,24 -48,0 -88,32l48 72c48,-24 16,8 48,-40 0,0 8,-24 16,-32 56,8 80,32 80,48 0,16 -8,24 -32,40l-16 -64c0,-8 -8,-8 -8,-16l0 16c0,16 8,16 8,16l-56 16 24 64c-40,32 -56,40 -64,40 -8,0 -8,-8 -24,-8l-16 0 -88 48c0,0 -8,0 -16,8 40,48 32,32 88,64 -64,24 -24,-8 -72,40 -8,0 -8,-8 -8,-8 -32,-96 0,-24 -64,-120 48,0 48,-32 64,-80 -32,24 -48,32 -64,32 -16,0 -32,-8 -65,-32 33,-24 41,-32 49,-32 8,0 24,8 56,24 0,-16 -24,-56 -24,-72 0,-56 0,-16 32,-48 80,144 16,120 88,144zm-473 -112c-16,24 -16,40 -24,40 0,0 -16,-8 -48,-32 0,-16 16,-24 32,-24 24,0 32,-8 32,-8l0 8 8 16zm-320 -24c0,0 -8,16 -16,16l0 -16c8,-16 8,-24 16,-24l0 24zm-184 -24l-8 8 -8 0 16 -8zm-304 -8c0,-8 0,-8 8,-8l-8 8zm608 -16l16 24c8,8 8,8 8,16l-8 0c0,0 -16,-16 -16,-24l0 -16zm-512 -32c40,8 48,8 48,8 0,8 0,16 -8,40l-40 -48zm1129 -16c-56,56 -24,8 -96,96l-24 56c-113,0 -81,-24 -113,-104 80,32 32,40 113,56 -16,-24 -25,-16 -25,-24l0 -32 145 -48zm-441 -32c-16,40 -16,48 -16,48l-24 0c8,-16 0,-8 16,-32l24 -16zm1369 120c0,-16 0,-24 8,-24l8 24 16 16c0,8 -8,16 -16,16 -8,0 -16,-8 -16,-32zm168 -32c8,16 16,16 16,24 0,8 0,8 -16,24l0 -48zm-608 -24c32,-16 40,-24 40,-24l0 -8c0,-8 0,-16 16,-40 16,-16 40,-24 56,-40l-48 112 -64 0zm-96 0l0 8c0,0 0,8 -24,8l-24 0c-8,0 -24,-16 -32,-32l80 16zm-793 -48c0,-8 8,-8 8,-8l8 0c0,8 -8,8 -16,8zm1609 88l16 -16 0 24c0,8 0,16 -8,16 0,0 -8,-8 -8,-16l0 -8zm-552 -16c0,-8 8,-8 8,-8l-8 8zm-536 -56c0,0 16,-8 24,-8 8,0 8,0 8,16l0 8 -8 -8c-8,0 -16,0 -24,-8zm720 40c-8,-8 -16,-8 -24,-8l-8 0c0,0 0,-8 -8,-48l32 0 0 8c0,8 0,16 8,48zm-72 -104l0 32 -24 0 24 -32zm-352 24c-48,0 -56,0 -56,-8 0,0 8,-8 8,-24l0 -8 48 40zm-256 -40l16 8c0,0 0,8 8,8 0,0 0,8 -24,8 -8,0 -24,0 -48,-8l48 -16zm480 16l8 -16c0,0 0,16 8,16 8,0 8,8 8,8 0,8 -8,8 -8,8 -8,0 -16,0 -16,-16zm-712 -24c8,-32 8,-40 16,-40 0,0 0,8 8,8 8,0 16,-8 24,-8l-48 40zm1320 64c0,8 -8,16 -16,16l0 -16c8,-16 16,-16 16,-16l0 16zm-88 8c0,-32 -8,-40 -8,-48 0,-8 0,-16 16,-32l-8 80zm-288 -72c0,0 -8,16 -16,16l0 -16c8,-16 8,-24 16,-24 0,0 8,16 8,24l-8 0zm-472 -24c0,-8 8,-8 8,-16l-8 16zm200 -32c-8,-8 -8,-16 -8,-16l0 -8 24 16 24 0c0,0 -16,8 -32,8l-8 0zm-80 0c-8,-16 -8,-24 -8,-24l8 -8c8,0 24,16 24,16l16 -8 0 8c0,0 -16,24 -32,24l-8 -8zm208 -64c24,0 48,72 56,80 48,-24 32,-24 40,-24l24 0c-48,56 -8,40 -64,56 -16,-32 -24,-48 -40,-64 -16,-32 -32,-32 -32,-32 0,-8 8,-8 16,-16zm200 32c0,-16 8,-8 16,-24 8,16 16,24 16,32 0,8 -8,8 -32,16l0 -24zm344 552c80,-80 128,-232 136,-368l0 -40c0,-272 -192,-312 -408,-312l-80 0c-80,8 -288,56 -368,64l-1169 176c-96,16 -184,16 -248,16 -344,0 -344,-120 -456,-120l-32 0c-8,56 -16,128 -16,200 0,96 8,192 24,256 32,144 88,208 272,216 208,0 648,-64 808,-112 8,8 8,24 8,40 0,128 -120,473 -152,553 -24,56 -24,112 -48,176 -112,304 -248,816 -352,1064 -72,168 -168,432 -200,608 -184,32 -272,56 -432,56l-64 0c-376,-16 -248,-152 -408,-192 -48,48 -64,128 -64,208 0,72 8,136 24,200 32,152 80,256 184,312 48,24 120,32 208,32 400,0 1160,-176 1425,-232 144,-32 256,-40 344,-40 312,0 304,144 448,168 40,-56 56,-144 56,-224 0,-72 -8,-136 -24,-184 -32,-136 -80,-232 -192,-280 -24,-16 -80,-16 -136,-16 -208,0 -545,56 -673,72 72,-368 233,-880 361,-1232 112,-304 312,-753 312,-1065l-8 -136c104,-24 288,-40 416,-40l80 0c408,8 352,112 424,176z"/>
   <path class="fil0" d="M18142 3297l0 24c0,8 0,0 -24,8l0 -32c8,0 8,8 16,8 0,0 8,0 8,-8zm72 -72c8,0 24,8 24,8l-16 8 -24 0 16 -16zm-16 -88l8 8 -8 8 -24 0 0 -8c0,0 0,-8 16,-8l8 0zm-8 -176c8,0 24,8 24,8l-16 0 -8 -8zm-208 -144l16 8c0,16 0,16 -8,16 0,0 -8,0 -8,-16l0 -8zm-280 -432c8,0 24,8 24,8 0,8 -8,8 -8,8 -8,0 -16,8 -16,8l0 -24zm80 8c-16,0 -32,-8 -32,-16 0,-8 8,-8 16,-8l24 -8 -8 -8 0 40zm-112 -40c0,-16 -8,-32 -8,-40 0,-8 8,-8 40,-16l-32 56zm-120 -112c8,0 16,0 16,-8 8,0 16,8 16,8l-32 0zm128 -48c24,8 24,8 24,16l0 16 -24 8 0 -40zm-104 16l8 0c8,0 16,8 16,8l-24 0 0 -8zm112 -72c8,-8 8,-8 16,-8l0 16 8 16 -16 8 -8 -16c-8,-8 -8,-8 -8,-16 0,0 8,16 16,16 0,0 -8,-8 -8,-16zm144 -72c8,0 16,0 16,8l-24 8c-8,0 -8,-16 -8,-16l16 0zm-128 0c24,-16 24,-24 32,-24 8,0 16,0 32,8l16 72c-48,-8 -40,0 -80,-56zm200 -32c0,-16 0,-16 8,-16l8 8c0,0 0,8 -8,8 -8,0 -16,0 -16,8l8 8 0 -16zm-272 8c0,-8 8,-8 8,-8l8 8 -16 0zm200 -88c0,0 24,-8 24,-16 -8,56 8,32 -40,48l16 -32zm-80 -104c-8,24 -16,40 -16,40l8 8c0,0 8,-8 16,-8 0,0 8,8 8,16 0,0 0,16 -8,32l-48 -16c8,-72 16,-48 40,-72zm72 32l8 -8c16,0 24,16 24,16l0 8c-8,0 -16,0 -24,-8l-8 -8zm72 -48c0,0 8,8 8,16 0,-8 -8,-8 -8,-16zm-120 8c40,-24 64,-32 80,-32 8,0 8,8 8,8l8 16c-40,24 -64,32 -72,32 -16,0 -16,-16 -24,-24zm200 -64c8,-8 8,-8 16,-8l8 0c0,8 -8,8 -16,8l-8 0zm-168 -24c16,24 24,32 24,32l-8 0c-8,0 -16,0 -32,8l-8 0c0,0 8,-8 8,-24 0,-8 0,-16 8,-16l8 0zm72 -24c-8,24 -8,24 -16,24l-16 0c0,0 -8,0 -8,-8 0,0 8,0 40,-16zm136 -32c-8,8 -8,8 -8,16l16 0c0,0 -8,-8 -32,-8 -8,0 -8,0 -8,-8l32 0zm-112 -8l-16 8 0 -24c0,0 8,-8 24,-16l-8 32zm-88 -24l40 0 0 16 -32 0 0 -8 -8 -8zm192 0c-8,-16 -8,-24 -8,-24 0,-16 8,-16 24,-32l0 24c0,8 0,24 -16,32zm48 -72l16 -16 24 8c-16,16 -24,16 -24,16 -8,0 -8,-8 -16,-8zm-96 -8l24 -24 8 16 -32 8zm104 -73c-8,-16 -8,-24 -8,-24 0,-8 8,0 24,-16 8,16 8,24 8,32l-8 0c-8,0 -8,0 -16,8zm-240 -8c0,0 8,-8 16,-8l0 8c0,8 -8,16 -8,16l-8 -16zm288 -72c0,-16 0,-16 8,-16l8 0c16,0 24,8 40,24l-56 -8zm-184 0c-8,-8 -8,-8 -8,-16 8,0 24,8 24,8 8,0 8,-8 8,-8l8 8c0,0 -16,16 -24,16 0,0 -8,0 -8,-8zm88 16l0 -24c0,-24 8,-24 40,-32 -16,40 -24,32 -40,56zm256 -136c0,8 8,16 16,16 8,0 8,0 8,8 0,8 -8,16 -8,16l-16 -40zm-176 16c-16,8 0,8 -24,8l-8 0c0,0 -8,0 -8,-8l40 0zm96 -16c0,0 8,8 8,16l-8 -8 0 -8zm296 -48l8 8 -16 8 8 0 0 -16zm-224 8c-24,-8 -32,-8 -32,-8l0 -24 24 0c8,0 8,0 8,8l0 24zm-152 -8c40,8 24,8 40,24 -48,0 -32,0 -72,-24l32 0zm320 -24c-8,8 -8,8 -32,16 16,-16 8,-24 16,-24 0,0 8,0 16,8zm-296 -24c0,0 8,16 16,16l8 0c0,8 -8,16 -8,16 -8,0 -8,-8 -16,-16l0 -16zm144 -96l40 56c-8,16 -8,24 -8,24l-8 0c0,0 -8,0 -16,8l-8 -88zm-48 -24l16 8c16,0 16,0 16,-8l-8 -8 0 32c-8,0 -24,-8 -24,-16l0 -8zm-120 72c0,-16 -8,-32 -8,-40 0,-16 16,-16 40,-24 0,40 0,56 -32,64zm104 -128c8,0 16,8 16,16l0 16c0,0 -8,-8 -16,-24l0 -8zm-872 2585c0,8 -16,24 -16,24 -8,16 -8,32 -8,48 0,48 40,104 72,136 56,48 152,80 272,80l40 0c304,-16 688,-224 704,-656l0 -56c-16,-248 -160,-456 -320,-616 -56,-48 -128,-80 -136,-208l0 -8c0,-216 320,-977 528,-985l16 0c8,0 24,8 40,16 0,0 56,72 112,72 24,0 48,-24 64,-64 8,-24 8,-48 8,-72 -8,-152 -144,-352 -200,-400 -32,-32 -72,-40 -112,-40l-40 0c-72,0 -152,24 -216,56 -48,16 -144,104 -184,136l-208 280c-24,56 -16,40 -56,96 -72,105 -24,56 -112,225l0 8 -104 272c0,24 -8,40 -16,56 -32,120 -32,168 -40,280 -8,32 -8,64 -8,88 8,64 32,104 88,160 112,120 264,184 352,288 48,64 72,160 80,256 0,64 -8,136 -32,192l-144 280c-32,24 -8,-8 -40,40 -32,48 -40,64 -152,96 -16,8 -24,8 -32,8l-8 0c-72,0 -88,-80 -176,-112l-16 24zm1400 -800c8,-8 24,-8 32,-8 8,0 16,0 16,8 0,8 -8,8 -16,16 -8,0 -16,8 -16,8 -16,0 -16,-8 -16,-16l0 -8zm128 -104c8,0 8,8 8,8l8 0 -24 8 -8 0 16 -16zm-96 -288l8 8 -8 -8zm184 -488l8 0 -8 0zm248 -160c-16,24 -8,32 -16,32l-56 0c64,-24 24,-16 72,-32zm-152 -120c8,0 24,16 24,24 0,8 0,32 -8,32 0,0 -8,-8 -16,-48l0 -8zm160 8l-16 24 -8 0c0,-8 8,-16 8,-24 8,-24 8,-32 16,-32 0,0 0,16 8,32l-8 0zm-8 -88c-8,16 -16,16 -24,16l-8 0c0,-8 8,-16 16,-24 16,-16 32,-32 40,-32l0 8c0,0 -8,16 -24,32zm-120 -169c0,-8 8,-8 8,-8 16,0 32,8 32,8l16 -8 0 8c0,0 -16,24 -32,24l-24 -24zm-48 -16c0,0 -8,0 -24,-8l24 8zm200 -88c-24,8 -40,16 -56,16 -32,0 -48,-24 -96,-64l152 48zm0 -168l16 -8 -16 8zm-136 -8c0,-8 -8,-8 -8,-8 8,0 16,8 16,8l-8 0zm200 -184l16 -8 -16 8zm-168 -88l-8 0c0,0 8,8 16,8l-8 -8zm304 8c-56,-16 -72,-24 -72,-24 0,-8 8,-8 8,-24l0 -8c24,0 32,-8 40,-8 8,0 8,8 24,64zm88 -88l16 16c0,8 8,16 8,16l-8 0c0,0 -16,-8 -16,-16l0 -16zm-280 24l40 0c8,0 8,0 8,8 0,8 -8,16 -16,16 -8,0 -16,-8 -24,-16l-8 -8zm48 -104c-8,-8 -16,-16 -16,-24l8 0c8,0 32,8 32,8 8,0 16,-8 16,-8 8,0 8,0 8,8 0,0 -24,24 -40,24l-8 -8zm192 -64l8 -16 -8 16zm-232 -8c0,8 -16,24 -24,24 -8,0 -8,-8 -8,-16l0 -8c0,-24 8,-40 16,-40 8,0 8,24 16,40zm112 -88c0,-8 0,-8 8,-8 8,0 24,8 32,24 0,8 8,16 8,24 0,8 -8,8 -8,8 -16,0 -40,-24 -40,-32l0 -16zm-56 16c-8,0 -16,24 -24,24l0 -24c8,-24 16,-32 24,-32 0,0 8,8 8,24l-8 8zm112 -208c0,0 8,8 8,16 0,0 0,-8 -8,-8l0 -8zm40 -136c0,-24 -8,-24 -8,-24l-8 0c0,8 8,16 40,16l8 8 0 8c0,8 0,16 -8,16 -8,0 -24,-8 -24,-24zm-144 3913c-16,-176 -88,-48 -208,-328 -56,-128 -80,-288 -80,-464 0,-400 120,-864 192,-1144l448 -1481c33,-112 169,-344 169,-512 0,-112 -64,-200 -265,-200 -32,0 -64,0 -104,8 -208,24 -248,136 -312,352l-208 720 -16 64c-96,473 -320,1225 -320,1873 0,352 64,680 256,904 88,104 224,208 424,208l24 0z"/>
   <path class="fil0" d="M20967 3249c0,-16 8,-24 16,-24 0,0 8,0 8,8 0,0 0,8 -8,8 -8,8 -8,24 -16,24l0 -16zm56 -8c0,-8 8,-8 8,-8 8,0 8,0 8,8l-16 0zm-168 -160l8 8 8 0 0 32c0,-8 0,-8 -8,-8l-8 -8c-8,-24 -8,-32 -8,-32l8 24 0 -16zm16 -56l64 32c0,0 0,16 -16,16 -8,0 -16,0 -32,-8 -16,-8 -16,-8 -16,-16l0 -24zm88 16c0,-8 8,-16 8,-16 8,0 16,8 16,16 0,8 -8,16 -8,16 -8,0 -8,-8 -16,-16zm-1016 -24c0,-8 8,-8 8,-8 0,8 0,16 -8,16l-8 0 8 -8zm104 -8c8,0 16,-8 16,-8l16 0c0,8 0,8 8,16 -16,8 -24,8 -24,8l-16 -16zm928 -88c0,0 0,-8 8,-8 0,0 8,8 8,16l0 8 -16 0 0 -16zm-984 72c0,-8 -16,0 -16,-16l8 -16 -8 -8 40 0 -16 32c0,0 -8,0 -8,8zm200 -72l0 -8c0,-8 0,-16 16,-16 8,0 24,8 56,40l-72 -16zm-280 8c0,-8 16,-16 16,-16l8 0 -24 24 0 -8zm960 -88l8 0c16,0 24,8 24,8l-16 0 -16 8c-8,0 -8,0 -8,-8l8 -8zm168 -16c0,-8 0,-8 8,-8l8 8 0 8 -16 -8zm-800 16c0,24 0,24 -48,24 24,-16 32,-32 48,-56l0 32zm-104 16l8 8 -8 8 0 -16zm-48 72l-72 8 16 -40 16 0c8,0 16,0 24,-8 -8,-48 -16,-56 -24,-56 -8,0 -16,8 -16,8l0 -8c0,0 0,-16 8,-40 -40,16 -24,16 -56,32l-32 -64 112 8c0,-64 -24,-56 -24,-72 0,-8 0,-16 16,-40 24,16 32,32 56,56 48,-24 24,-24 72,-32 -16,80 -64,64 -120,80 -8,16 -8,32 -8,48 0,16 16,32 48,56l-16 64zm752 -128l16 8 -24 0c0,8 8,8 8,8l0 -16zm-568 80c8,-32 16,-40 16,-48 0,0 -8,-8 -16,-24 8,-8 8,-16 16,-16 8,0 16,32 24,64l-40 24zm-328 -48l56 16c-32,48 -16,16 -56,40l0 -56zm1048 -64l-8 -8 8 8zm-120 0c32,-8 40,-16 48,-16l0 16c0,8 0,16 8,24 -24,0 -40,8 -40,8 -8,0 -8,-8 -16,-32zm-992 48l8 -8 8 16c0,8 0,0 -8,16l-8 -24zm416 -40c0,-8 8,-16 16,-16l0 16c0,16 -8,24 -8,24 -8,0 -8,-8 -8,-24zm-208 48c0,-8 8,-16 8,-16 0,-8 -8,-16 -8,-16 0,0 8,0 32,-8 8,-8 40,-8 56,-16 -24,48 -24,48 -88,56zm136 -64c0,-16 8,-24 8,-24 8,0 8,8 8,8l0 8c0,16 -8,24 -8,24 -8,0 -8,-8 -8,-16zm800 -88c-8,16 -8,24 -16,24 0,0 -8,-8 -24,-8l40 -16zm-128 56c0,-64 16,-56 32,-72 0,0 16,0 16,16 0,8 -8,16 -16,32 -8,16 -16,8 -32,24zm-992 -8c8,-8 16,-8 16,-8 8,0 16,8 24,16 -16,16 -16,24 -24,24 0,0 0,-16 -16,-32zm1080 -88l16 -16 8 0c0,8 -8,8 -8,16 -8,0 -16,8 -16,8l0 -8zm96 -40c-16,40 0,24 -32,40l0 -32c0,0 8,0 32,-8zm-1096 48c16,8 32,0 32,16 0,8 0,16 -8,24 0,16 -8,16 -16,16l-32 0c0,-8 0,-16 8,-32l0 -16c8,0 8,0 16,-8zm480 0l8 -8 0 8 -8 8 0 -8zm-216 32c-32,-8 -40,-16 -40,-24 0,-8 8,-24 24,-40l16 64zm-400 24c24,-32 16,-16 56,-40l0 16c0,8 0,8 -24,24 -16,8 -16,8 -24,8l-8 -8zm1168 -136l-8 -8c0,-8 0,-8 8,-8l16 8 8 0 -16 8 -8 0zm-1240 72c0,0 8,-8 8,-16 0,0 -8,-8 -8,-16 40,16 24,0 48,32l-48 0zm1288 -120c0,0 8,16 16,16 8,0 8,8 8,16 0,8 -8,16 -16,16 0,0 -8,-8 -8,-24l0 -24zm-888 56l16 16c0,8 0,8 -8,8 0,0 -8,0 -8,-8l0 -16zm56 -8c8,0 8,8 8,8 0,0 0,8 -8,8 -8,0 -16,-8 -16,-16l16 0zm-368 8c0,8 8,16 8,24 0,16 -8,24 -40,32l32 -56zm1048 -152c0,88 32,72 80,104l8 64c-8,0 -8,0 -8,8l-24 16c-24,16 -8,8 -40,16l0 -24c0,-24 8,-16 48,-32l-40 -40c0,-8 -8,-24 -16,-32 -112,32 0,56 -128,72 24,-48 16,-48 72,-72l8 0c0,0 8,0 8,-8l8 0c-16,-16 -24,-16 -40,-16l-56 0c16,-64 8,-24 120,-56zm-992 152c8,-16 8,-24 8,-32l8 0c0,0 8,0 24,-8 0,8 -8,16 -8,24 0,8 0,8 -32,16zm1144 -96l0 16 -96 -16c16,-40 24,-32 56,-64l24 48 16 16zm-936 -32c40,16 16,-8 32,32l-24 0 0 -8c0,0 0,-8 -8,-24zm824 -48l16 16 0 16c0,0 -8,-8 -16,-24l0 -8zm208 -32l16 16 0 16c-8,0 -16,-8 -16,-16l0 -16zm-64 -8c16,8 24,8 32,8l8 0 8 32 -56 16 8 -56zm-272 32l8 -8 40 0 -8 8 8 8c-8,0 -8,8 -8,8l-16 0 -16 -8 -8 -8zm72 24c-8,-16 -8,-24 -8,-32l16 -16c8,8 8,16 8,16 0,8 0,8 -16,32zm-624 32c-40,-8 -32,-8 -48,-32l16 -16c32,24 24,8 32,48zm736 -72c0,-32 8,-40 8,-40 8,0 8,16 16,24l-24 16zm-856 -304c-40,-40 -40,0 -64,-80 64,24 32,56 144,72l32 -64c136,24 88,64 136,112l16 16 0 -8 8 16c-16,16 -8,16 -40,16 -48,-48 0,-24 -64,-80 -8,-8 -8,-8 -8,-16 0,-8 8,-8 8,-8 0,0 -8,0 -32,-8 -8,24 -16,32 -16,40 0,8 8,8 24,32l8 16 8 24c-64,24 -32,8 -72,64 -24,40 -32,40 -96,48l64 32 8 8 -24 32 0 16c-48,-16 -56,-16 -56,-24 0,-8 8,-8 8,-16 0,0 -8,-8 -24,-16 0,8 8,16 8,16 16,40 24,56 24,72 0,8 -8,16 -16,24l-88 80c40,48 72,32 112,48 -8,64 -16,16 -32,56l0 8c0,24 16,24 16,24 0,8 -8,16 -32,32 -88,0 -120,0 -128,-88 8,0 48,16 48,24l16 0c8,0 8,0 16,-8l8 0c-16,-40 8,-8 -32,-48 -16,-16 -24,-16 -40,-16 -8,0 -24,0 -40,-8l-32 -32 88 -8c16,-96 -16,-80 104,-96 -16,-64 -40,-48 -40,-72 0,-8 8,-24 16,-56 -32,8 -48,8 -56,8 8,-40 24,-32 56,-56l8 40c0,8 8,16 8,16l0 8 16 -16c24,-24 24,-32 24,-32l0 -64 -8 8c0,0 -8,0 -8,-8 0,0 0,-8 -8,-8 0,-8 -8,-8 -8,-16 0,-8 8,-16 32,-56zm88 104c8,-24 16,-32 16,-64l0 -8c0,-8 0,-8 -8,-8l-16 24c-24,-24 -24,-32 -32,-32 0,0 -8,8 -24,8l0 24c0,32 32,48 64,56zm736 136l8 -16c8,0 8,0 24,-8 32,-16 40,-24 48,-24 8,0 8,0 8,8l0 8 -88 32zm-704 -8l-8 16c-8,24 -8,16 -24,32 8,-56 0,-40 32,-64l0 16zm824 -48l8 -8 0 -8c8,0 16,0 24,8 0,8 -8,8 -8,8 0,8 8,8 8,8l-16 0c-16,0 -16,8 -16,8l8 -8c0,0 0,-8 -8,-8zm88 -40c0,0 0,16 8,16 8,0 16,8 16,8 0,8 -8,8 -16,8 0,0 -8,0 -8,-16l0 -16zm-1184 152l-32 -72c40,0 72,16 96,56l-64 16zm1072 -160l-8 32 -8 -8 -8 0 24 -24zm-136 40c0,0 8,0 8,-8l-8 8zm-632 16c-24,0 -16,-8 -24,-48 24,16 32,24 48,48l-24 0zm144 -88l8 0c8,0 8,8 8,8 0,8 -8,16 -8,16 -8,0 -8,-8 -8,-16l0 -8zm-88 24l-8 0 -24 -16c0,-16 16,-16 24,-16 16,0 32,8 40,16l-32 16zm-264 -8c-8,-16 -8,8 -24,-40l0 -16 16 0 8 24 0 32zm0 -120c8,0 8,8 16,24l0 8c0,0 0,8 -8,8 0,0 -8,-8 -8,-24l0 -16zm336 8c0,-48 8,-40 56,-56 -16,48 -16,40 -56,56zm104 -64l16 -8c0,0 8,0 8,8 0,8 -16,24 -32,24l-8 -8 16 -16zm64 -72l0 -8c8,0 16,8 16,8l0 16 -16 -16zm-376 -16c8,8 16,8 16,8 8,0 8,-8 16,-8 0,8 -8,16 -8,48 -8,-8 -16,-8 -16,-8l-8 -40zm104 -8c24,48 8,16 64,48l16 8c-24,16 0,16 -48,24 -16,0 -24,-8 -40,-8l8 -72zm192 -32c0,-8 0,-8 8,-8l24 0c-8,48 0,24 -32,40l0 -32zm-104 -112l0 -8c24,8 96,32 120,64l-48 16 0 -16c-24,-8 -48,-32 -48,-32 -8,-8 -8,-8 -16,-8 -8,24 -16,40 -16,56 0,56 48,72 104,96 -16,16 -16,16 -24,16l-24 0c-24,0 -32,0 -64,8l0 -48c-8,-24 -8,-32 -8,-32l0 8c-8,0 -8,0 -16,-8l-48 0 8 -72c24,0 32,8 40,8 0,0 0,-8 24,-16l16 -32zm-128 136c-16,-8 -32,-8 -32,-16 0,-8 0,-16 8,-32 8,-24 16,-24 24,-24l8 0 -8 72zm392 -96c0,-16 8,-16 16,-16 16,0 32,0 40,8 -24,32 0,8 -32,32l-24 -24zm-112 -32c8,0 8,8 16,8 8,0 8,0 8,8 0,8 -8,16 -16,16 0,0 -8,-8 -8,-24l0 -8zm224 16c-16,0 -24,0 -24,-16 0,-8 8,-16 8,-32l24 0c8,0 8,8 16,48l-24 0zm-152 -16l24 0 -8 8 -16 -8zm72 -72l-8 56c-48,-8 -32,0 -48,-40l56 -16zm-208 64l0 -16c0,-8 -8,-16 -8,-16 0,-8 8,-8 40,-16l24 -8c16,0 16,8 16,16l-72 40zm344 -120c8,0 16,0 16,24l0 16c0,16 -8,8 -32,16 -8,-16 -16,-24 -16,-32 0,0 0,-8 8,-24l24 0zm-288 24c0,0 8,8 16,8l0 8c0,0 -8,0 -16,-8l0 -8zm-72 24c-16,8 -24,16 -32,16 0,0 0,-8 -8,-40l24 0c8,0 0,0 16,24zm264 -8c0,-16 0,-16 8,-40 0,-16 8,-16 16,-24 8,16 8,32 8,48 0,16 -8,16 -16,16l-16 0zm-104 -8c-32,0 -48,-8 -48,-16 0,-8 16,-24 24,-40 24,24 24,24 24,56zm256 -40l0 -8 -8 8 8 0zm-200 8c-24,-16 -16,0 -24,-24l24 0 0 24zm224 -40c0,-16 8,-8 32,-16l0 8c0,8 8,16 8,16 0,0 -8,0 -40,8l0 -16zm-392 8c0,-16 8,-16 16,-32l24 16c-8,32 -8,24 -40,40l0 -24zm136 -40c-8,24 -16,32 -16,32 -8,0 -8,-16 -16,-24l32 -8zm480 -32c-40,-16 -24,0 -32,-41 8,0 16,8 16,8 8,0 8,-8 8,-8 0,0 0,8 8,41zm-320 8c-8,-8 -16,-16 -16,-24 0,-9 16,-9 16,-9l24 0c16,0 16,9 16,41l-16 0c-8,0 -8,0 -24,-8zm-56 -33l-8 9 8 8 24 0c0,8 -8,24 -16,24 -8,0 -8,-8 -8,-16l0 -25zm-160 -16l-8 8c0,8 8,8 8,8l8 0 0 17 -8 -33zm160 1057c0,48 -48,232 -48,416 0,176 40,352 200,432 48,24 88,40 128,40 56,0 104,-32 152,-80 0,-120 -40,-64 -48,-240l0 -16c0,-152 112,-472 144,-600 24,-88 64,-208 64,-304 0,-104 -40,-184 -184,-208 -24,-8 -40,-8 -56,-8 -40,0 -56,16 -96,48 -64,40 -32,0 -120,80 -32,32 -64,56 -96,96l-384 416c-16,32 -56,80 -80,80 -8,0 -8,-8 -16,-8 -16,-8 -32,-24 -32,-40 0,-152 376,-616 400,-640 80,-88 184,-192 336,-240 56,-16 104,-24 136,-24 184,0 192,176 208,216l16 0c104,0 160,-80 160,-184 0,-144 -112,-337 -352,-401 -64,-16 -136,-24 -200,-24 -144,0 -280,40 -408,88 -240,89 -496,289 -632,481l-136 240c-56,104 -144,392 -144,552l0 16c16,232 144,408 296,472 40,16 80,24 112,24 104,0 176,-64 216,-104 168,-128 184,-184 304,-352 64,-80 96,-152 160,-224zm1160 296c-8,0 -8,0 -8,8 0,8 8,16 24,16 8,0 8,0 8,8 0,8 -8,16 -16,16 -8,0 -8,0 -8,-16l0 -32zm1001 16l16 0c0,0 8,0 8,-8 0,0 -8,-8 -8,-16l40 -8 -56 32zm-1025 -16c-32,8 -40,16 -56,16 -16,0 -24,-8 -40,-8 -8,0 -32,8 -64,16 0,-16 24,-64 32,-80l128 56zm48 -128c-24,-24 -32,-40 -32,-48 0,-8 8,-8 24,-8l8 0c8,16 16,24 16,24 0,8 -8,16 -16,32zm-176 0c0,0 -8,16 -16,16l16 -16zm1049 0c8,-40 8,-48 16,-48 0,0 8,16 32,16 -24,40 0,16 -48,32zm-657 -96c-32,16 -48,24 -56,24l0 -32 56 8zm120 -40c0,0 8,8 8,16 0,0 0,-8 -8,-8l0 -8zm-72 -16c0,-8 -8,-16 -8,-16l8 0 16 24c8,8 8,16 8,16l-24 -24zm569 -24l72 8c-40,24 -56,32 -64,32 -8,0 -8,-8 -8,-16l0 -24zm-809 -16l0 -8 8 -8 -8 16zm-16 -8c-40,16 -56,24 -64,24l0 -16c0,-8 0,-8 -8,-16l-40 -64 64 0 16 16c0,8 24,48 32,56zm1033 -48l-8 -16c8,0 32,8 32,8l8 0c0,0 -8,8 -24,8l-8 0zm-1001 -72c24,40 40,48 40,56 0,8 -16,0 -24,16 -8,-8 -8,-8 -16,-8 -8,0 -16,8 -24,8l-8 -8c0,-8 8,-24 32,-64zm280 40c0,0 0,-8 -8,-8l8 8zm721 -48c0,0 -8,16 -16,16l16 -16zm-240 -16l16 -8 -16 8zm-633 -32c0,-8 8,-16 8,-16 8,0 8,0 8,16 0,8 -8,24 -16,24l0 -24zm-144 -48c8,0 16,24 16,24l8 0c16,0 16,8 16,16 0,8 -8,24 -16,24 -16,0 -24,-16 -24,-48l0 -16zm969 -32c16,-48 8,-16 24,-48 -8,112 8,72 -48,136 8,-32 16,-64 24,-88zm-184 64c0,-8 16,-16 16,-16 16,-8 24,-8 32,-8 0,8 -16,32 -40,32l-8 -8zm-369 -24c-8,8 -16,16 -24,16l24 -24c8,-8 16,-16 24,-16l-24 24zm-208 -40c0,-16 0,-24 8,-24 8,0 16,32 16,32 8,0 16,8 16,16 0,8 -8,24 -24,24 -8,0 -16,-16 -16,-48zm256 8c0,-8 8,-8 8,-8l-8 8zm-344 -48l24 64 -88 -32 64 -32zm200 8l0 -8c0,-8 -8,-8 -8,-16l8 24zm-384 -24c0,-24 8,-32 8,-32 8,0 16,16 24,40l0 32c-16,0 -32,-24 -32,-40zm1113 -40c8,0 8,24 8,24l8 8c0,8 -8,16 -16,16l0 -48zm-248 -16c64,40 8,56 64,56l40 0c-8,0 -24,16 -24,16l-48 24 -32 -96zm-169 24c0,40 -8,48 -16,48 -8,0 -24,-8 -40,-8l56 -40zm-592 8c0,-24 0,-24 8,-24 8,0 8,8 16,24l0 8c0,8 0,16 -8,16 -8,0 -16,-16 -16,-24zm1097 -8c0,-8 16,-8 16,-16l-16 16zm-160 -8c16,-72 56,-96 112,-128l-112 128zm-248 -32c8,0 8,8 8,16 0,0 -8,0 -16,-16l8 0zm-241 8c-8,-16 -16,-16 -16,-24l8 0c8,0 32,8 32,8 8,-8 8,-8 16,-8 0,8 -16,24 -32,24l-8 0zm-248 -32c0,-8 0,-16 8,-16l16 16c8,0 16,8 16,16 0,8 -16,24 -24,24 -8,0 -16,-8 -16,-40zm-72 -136c32,-32 16,-16 40,-32l8 24c0,56 -88,80 -128,112 40,16 40,24 40,24 8,0 8,-8 32,-8 8,0 32,-16 32,-24l-40 64 -88 -48c56,-48 32,-24 72,-72 16,-16 16,-24 32,-40zm705 32c-8,64 -8,80 -8,80l0 -8 -24 16c8,-64 8,-72 8,-72 8,0 8,0 24,-16zm128 24c0,8 8,8 8,8l-8 -8zm-280 24l0 -16c8,-8 32,-40 32,-40 0,8 0,16 -8,32l-24 24zm-713 -32c-16,-16 -16,-32 -16,-40l8 0c8,0 40,16 40,16 16,-8 24,-8 24,-8 8,0 16,0 16,8 0,8 -24,40 -48,40 -8,0 -16,-8 -24,-16zm809 -136c48,16 56,16 56,16l0 16c0,16 0,32 8,64l-64 -96zm-537 104c0,-8 8,-8 8,-16l-8 16zm761 -88c8,16 16,24 16,24 0,8 -8,8 -24,32l8 -56zm-993 8c0,-24 0,-32 8,-32 8,0 16,32 16,32 16,8 16,16 16,24 0,16 0,24 -16,24 -8,0 -16,-8 -24,-48zm1081 0c0,8 -16,24 -24,24 -8,0 -8,-8 -8,-16 8,-40 8,-48 16,-48 8,0 8,24 16,40zm-937 -72c-8,8 -8,8 -8,16 0,0 8,-8 8,-16l16 -8c0,0 -8,0 -16,8zm777 -48c-56,-8 -72,-8 -72,-16 0,0 8,0 8,-24l0 -16 64 56zm88 -168c8,0 16,24 16,24l0 32c-8,0 -8,-8 -16,-40l0 -16zm-96 0l-8 -8c0,8 8,16 8,16l0 -8zm-625 656c24,-184 200,-408 200,-592 0,-16 -8,-32 -8,-48 -24,-112 -208,-193 -368,-193 -88,0 -168,24 -216,73 -64,64 -72,240 -88,344 -72,344 -168,680 -288,1000 -32,88 -56,184 -56,264 0,96 32,184 136,240 96,56 176,80 248,80 120,0 208,-72 280,-208l448 -920c24,-32 16,-24 40,-40 8,24 16,48 16,80 0,120 -72,304 -72,488 0,56 8,112 24,168 64,216 177,296 313,296 384,0 928,-672 928,-896 0,-16 -8,-40 -16,-48 -16,-16 -32,-24 -56,-24 -160,0 -400,496 -608,496l-16 0c0,-16 -8,-40 -8,-64 0,-256 232,-648 232,-960 0,-144 -48,-272 -192,-361 -48,-32 -88,-48 -136,-48 -56,0 -112,32 -168,88 -120,121 -481,705 -505,737 -48,56 0,16 -64,48z"/>
   <path class="fil0" d="M23784 3081l8 8 -8 -8zm64 -88c8,0 8,24 16,24l8 0c8,0 16,8 16,8 0,16 -16,24 -24,24 -8,0 -16,-8 -16,-32l0 -24zm1176 16l0 -8 8 8 -8 0zm-968 -88c0,48 8,64 8,64l-48 0 40 -64zm192 32c0,0 8,8 8,16l-16 -8 8 -8zm-272 -32l-40 40c0,0 8,-8 16,-24l24 -16zm-72 -40c-48,80 -8,48 -112,88l112 -88zm328 -8l0 -8 32 16c16,-8 16,-8 24,-8 8,0 8,0 8,8 0,8 -16,24 -32,24 -8,0 -16,-8 -24,-16l-8 -16zm-512 -40l8 16c0,0 -8,0 -24,-16l16 0zm320 -120l0 -16 16 24c8,8 8,16 8,16 -8,0 -16,-16 -24,-24zm-208 -48c8,-24 8,-32 8,-32l-8 40 0 -8zm96 -80c8,0 16,24 16,24 8,0 8,8 8,8 0,8 -8,16 -8,16 -8,0 -16,-8 -16,-24l0 -24zm128 -16l8 24c16,8 16,16 16,24l0 16c-8,0 -16,-16 -24,-48l0 -16zm784 -16c-40,-40 -56,-32 -56,-40 0,-8 16,-16 24,-56 40,48 48,64 48,72 0,8 -8,16 -16,24zm120 -16c-8,-16 -16,-24 -16,-32l8 0c16,0 40,16 40,16 16,-8 24,-8 32,-8 0,8 -32,32 -48,32 -8,0 -8,-8 -16,-8zm-1168 -24c-8,-8 -8,-16 -8,-16 0,-8 8,-8 8,-8 16,0 32,8 32,8 16,0 24,-8 24,-8 8,0 8,8 8,8 0,8 -24,24 -40,24 -8,0 -16,0 -24,-8zm1320 -64l0 16c-8,0 -8,0 -16,-8l16 -8zm-1080 -80c0,-8 8,-8 8,-8l-8 8zm1080 -160c8,-24 8,-32 8,-32 0,0 0,24 8,32l8 0c8,0 16,8 16,8 0,16 -16,24 -24,24 -8,0 -16,-8 -16,-32zm-248 -32l0 -24c0,8 0,16 16,16l8 0 16 16c0,8 -8,16 -16,16 -8,0 -24,-8 -24,-24zm96 8c24,-40 40,-80 80,-120 16,16 16,32 16,40 0,40 -48,56 -96,80zm-824 -8c-8,-8 -8,-16 -8,-16 8,0 32,8 32,8l16 0c0,0 -16,16 -24,16 -8,0 -8,0 -16,-8zm800 -40l0 -8 8 -8 -8 16zm-784 0c8,-16 16,-16 16,-16l-16 16zm808 -96c0,-8 8,-8 8,-8 8,0 24,8 24,8l24 0c0,8 -16,24 -24,24 -8,0 -8,0 -16,-8l-16 -16zm-848 688l0 -48c0,-152 136,-376 200,-472 96,-144 176,-264 384,-264 24,0 56,8 80,8 -16,128 -48,136 -136,256 -80,128 -320,520 -504,520l-24 0zm944 -728l16 -16 0 24c0,8 -8,16 -8,16 -8,0 -8,0 -8,-8l0 -16zm176 0c0,0 0,8 8,32 -64,-32 -56,-24 -72,-112l24 32c0,8 8,8 8,16l32 32zm-1000 -72l8 24 8 0c8,0 16,8 16,8 0,8 -16,16 -24,16 -8,0 -16,0 -16,-24l8 -24zm-200 8c16,0 16,0 16,8l-8 0c-8,0 -16,0 -24,-8l16 0zm320 -16l8 16c0,0 -8,0 -16,-8l8 -8zm640 -24c0,0 -16,24 -24,24l0 -16c8,-40 16,-56 16,-56 8,0 8,32 8,48zm-576 0c0,-8 16,-8 16,-8l16 0c0,8 -8,8 -16,8l-16 0zm768 -32c0,0 8,16 8,24l-16 -16 8 -8zm-120 -32c0,8 40,16 40,40l0 32c0,24 0,32 -8,32 0,0 -8,-8 -16,-8 -8,0 -8,0 -16,8l0 -104zm-152 -112c0,-8 0,-8 8,-8 8,0 32,8 64,32 -16,16 -8,32 -16,32 -8,0 -24,-8 -56,-24l0 -32zm256 -176c24,0 32,8 32,16 0,0 -16,8 -32,8 -8,0 -16,0 -16,-8 0,-8 8,-8 8,-16l8 0zm136 -113l24 8c0,0 -8,0 -24,-8zm-88 -40c-32,56 -16,32 -56,64 16,-8 16,-16 16,-24 0,-16 -16,-16 -16,-16 0,-8 8,-8 56,-24zm136 -120l0 -40c8,0 32,32 32,40 16,16 16,24 16,24 0,-8 -8,-24 -16,-24l-32 0zm56 -32l0 -8 0 8zm-104 -56c-24,16 -24,24 -32,24 0,0 -16,-8 -40,-24l72 0zm80 -40l0 -16 16 24c8,16 16,16 16,24 -8,0 -24,-24 -32,-32zm-152 -72c8,0 24,32 24,40 8,16 16,24 16,24 0,8 0,8 -8,8 -8,0 -40,-24 -40,-32l8 -40zm160 -48l24 -8c0,8 -24,24 -40,24l-8 0 24 -16zm-88 -64c-16,0 -24,8 -24,8 0,8 8,16 8,16 0,0 -8,-8 -32,-16 40,-32 56,-48 80,-48 16,0 32,8 56,16l-32 24c0,0 0,-8 -16,-8 -8,0 -16,0 -40,8zm-32 -96c0,-24 0,-32 -8,-32l0 8c0,8 0,16 16,16l8 0c8,0 8,8 8,8 0,8 -8,24 -16,24 0,0 -8,-8 -8,-24zm128 -72c-16,48 0,40 -40,64l40 -64zm152 -24c16,16 16,24 16,24 0,0 -16,-32 -32,-40l0 -8 16 24zm-56 -136c8,0 32,24 32,32l0 8c0,8 -8,16 -16,16 -8,0 -16,-8 -16,-24l0 -32zm-64 -80l8 8 -8 -8zm-680 1185c-48,-24 -64,-40 -120,-64 -48,-16 -104,-24 -168,-24 -40,0 -80,0 -120,8 -96,16 -168,40 -240,96 -64,40 -144,80 -192,136 -224,216 -456,752 -456,1104 0,128 32,232 104,288 80,56 160,80 248,80 96,0 200,-32 280,-80 152,-96 224,-184 344,-320 56,-64 104,-112 152,-176 32,-48 96,-160 144,-192l0 168c0,728 304,1024 480,1024 40,0 80,-16 96,-48 8,-16 8,-24 8,-40 0,-88 -80,-168 -112,-280 -32,-112 -40,-232 -40,-360 0,-304 64,-624 120,-864 104,-440 288,-977 473,-1353 72,-136 176,-296 176,-440 0,-64 -16,-120 -72,-176 -72,-80 -145,-104 -209,-104 -144,0 -264,144 -344,272 -176,280 -440,1337 -456,1369l-96 -24z"/>
  </g>
 </g>
</svg>
